<svg width="570" height="570" viewBox="0 0 570 570" fill="none" xmlns="http://www.w3.org/2000/svg">
<path d="M467.582 149.34C467.582 149.34 441.362 89.7636 383.416 80.94C325.47 72.1164 285 115.14 242.41 137.256C220.088 148.804 194.587 144.324 170.886 149.91C95.1102 167.797 66.5646 279.87 98.1312 343.585C125.491 398.761 173.554 427.443 246.787 434.066C320.021 440.69 371.389 448.408 436.973 394.349C502.558 340.29 498.18 227.726 467.582 149.34Z" fill="#5878DB"/>
<path opacity="0.7" d="M467.582 149.34C467.582 149.34 441.362 89.7636 383.416 80.94C325.47 72.1164 285 115.14 242.41 137.256C220.088 148.804 194.587 144.324 170.886 149.91C95.1102 167.797 66.5646 279.87 98.1312 343.585C125.491 398.761 173.554 427.443 246.787 434.066C320.021 440.69 371.389 448.408 436.973 394.349C502.558 340.29 498.18 227.726 467.582 149.34Z" fill="white"/>
<path d="M292.558 486.495C397.532 486.495 482.63 480.799 482.63 473.773C482.63 466.746 397.532 461.05 292.558 461.05C187.584 461.05 102.486 466.746 102.486 473.773C102.486 480.799 187.584 486.495 292.558 486.495Z" fill="#5878DB"/>
<path opacity="0.5" d="M292.558 486.495C397.532 486.495 482.63 480.799 482.63 473.773C482.63 466.746 397.532 461.05 292.558 461.05C187.584 461.05 102.486 466.746 102.486 473.773C102.486 480.799 187.584 486.495 292.558 486.495Z" fill="white"/>
<path d="M153.9 340.86C149.488 347.392 143.355 355.885 140.083 362.691C141.337 358.199 142.546 353.959 143.663 350.151C145.339 346.868 149.819 338.546 154.994 333.051C161.572 326.017 164.388 321.491 160.843 321.092C158.392 320.83 151.21 330.395 146.707 339.891C147.687 336.642 148.462 334.191 148.987 332.709C149.203 332.059 149.408 331.33 149.614 330.566C154.24 324.012 158.444 317.169 162.199 310.08C168.845 297.665 170.989 285.946 166.554 290.985C162.473 295.625 155.371 318.687 149.739 329.551C150.206 327.682 150.662 325.607 151.061 323.578C151.859 321.594 152.908 319.588 153.501 317.775C154.424 314.971 155.234 312.075 155.884 309.259C156.966 304.78 157.509 300.187 157.502 295.579C157.617 290.167 156.142 284.84 153.262 280.258C152.498 279.118 147.835 272.129 146.422 275.698C146.234 276.287 146.198 276.915 146.319 277.522C146.992 283.461 149.146 288.922 150.48 294.701C152.475 303.354 151.153 317.889 150.48 324.068C150.218 325.037 149.899 326.257 149.522 327.659C150.457 316.897 145.783 304.141 141.463 301.906C136.116 299.147 141.36 309.977 145.487 319.428C147.446 323.567 148.366 328.122 148.166 332.698C147.322 335.81 146.353 339.298 145.35 342.832C145.156 343.322 144.962 343.801 144.791 344.28C145.244 341.976 145.431 339.627 145.35 337.28C144.951 331.102 137.951 318.721 133.312 320.477C128.672 322.232 136.526 328.742 140.733 336.334C142.913 340.529 143.742 345.296 143.104 349.98C143.104 350.254 143.013 350.527 142.979 350.801C142.5 352.408 142.021 353.97 141.554 355.441C140.414 358.861 139.445 362.144 138.476 365.313C139.665 360.718 140.191 355.977 140.038 351.234C139.445 342.171 134.144 333.621 129.778 332.458C125.411 331.295 133.756 346.058 136.618 354.358C138.11 359.221 138.33 364.387 137.256 369.36C135.911 373.852 134.623 378.275 133.312 382.972C133.682 376.834 133.552 370.677 132.924 364.561C132.069 354.483 126.084 348.042 121.946 348.316C117.808 348.589 122.128 354.301 128.09 366.556C131.222 372.989 132.617 380.13 132.137 387.269C131.602 389.253 130.997 391.282 130.496 393.403C129.869 395.819 129.356 398.441 128.911 401.143C128.307 398.738 127.418 395.227 126.38 391.351C125.172 387.062 124.296 382.686 123.758 378.263C123.2 373.133 121.855 366.715 116.816 364.048C116.474 363.807 116.083 363.645 115.672 363.572C115.26 363.499 114.838 363.518 114.434 363.627C114.03 363.735 113.656 363.932 113.336 364.201C113.017 364.471 112.761 364.808 112.586 365.188C112.113 366.287 112.005 367.51 112.279 368.676C112.946 372.17 114.097 375.554 115.699 378.731C114.706 380.628 114.253 382.761 114.388 384.898C114.388 385.708 114.467 386.506 114.513 387.292C114.068 386.483 113.647 385.73 113.248 385.012C112.521 383.809 111.622 382.718 110.58 381.775C110.844 379.886 110.973 377.981 110.968 376.075C110.968 373.567 108.038 367.205 105.393 371.925C104.344 373.806 104.549 377.522 104.447 379.985C103.717 380.657 103.501 382.048 104.105 384.248C103.504 389.96 103.804 395.73 104.994 401.348L104.093 399.752C102.798 393.159 102.036 386.472 101.813 379.757C101.483 368.676 103.261 359.567 100.229 356.159C97.1964 352.75 95.532 364.766 96.8088 377.819C97.4206 383.804 99.0152 389.647 101.528 395.113C98.5644 389.789 95.6346 384.362 92.8644 379.153C91.7244 376.348 88.8972 368.801 89.5926 361.141C90.4704 351.473 91.1088 343.573 87.438 338.135C83.7672 332.698 83.0034 336.22 84.8046 347.563C86.0358 355.338 87.3582 365.735 89.6154 372.951C87.4608 368.813 85.443 364.88 83.6418 361.312C82.6272 357.766 80.2218 348.635 80.2218 341.042C80.2218 331.409 79.1844 326.222 76.3344 328.309C74.3508 329.791 75.6276 341.681 78.831 351.701C77.3262 348.658 76.1976 346.321 75.5478 344.941C75.2628 344.314 74.9208 343.642 74.5446 342.935C73.5207 335 71.9977 327.137 69.9846 319.394C66.3594 305.771 59.9298 295.75 60.1236 302.453C60.3174 308.632 70.8624 330.338 74.157 342.125C73.2222 340.438 72.1392 338.614 71.0448 336.847C70.281 334.864 69.6768 332.686 68.8674 330.942C67.6362 328.274 66.291 325.641 64.809 323.099C62.5302 319.082 59.7867 315.348 56.6352 311.972C53.0219 307.939 48.3054 305.054 43.0692 303.673C41.724 303.354 33.5616 301.393 34.9524 305.041C35.21 305.599 35.6017 306.085 36.0924 306.455C40.6524 310.331 45.942 312.85 50.9124 316.168C58.2768 321.127 67.2258 332.652 70.9194 337.657C71.3982 338.534 71.991 339.652 72.675 340.928C66.006 332.424 53.8992 326.279 49.2138 327.602C43.4226 329.243 54.6516 333.575 64.1136 337.668C68.3724 339.355 72.1533 342.06 75.126 345.545C76.6308 348.384 78.3066 351.599 79.9824 354.871L80.5638 356.307C79.321 354.313 77.8521 352.469 76.1862 350.812C71.649 346.492 58.14 342.228 55.86 346.674C53.58 351.12 63.84 350.527 72.1164 353.195C76.585 354.75 80.4633 357.649 83.22 361.494L83.6874 362.189C84.4398 363.694 85.158 365.165 85.8192 366.556C87.381 369.816 88.8516 372.894 90.3108 375.869C88.0486 371.68 85.1917 367.84 81.8292 364.469C75.24 358.291 65.493 355.68 61.4802 357.823C57.4674 359.966 73.6668 365.051 81.3846 369.223C85.8001 371.714 89.5048 375.293 92.1462 379.62C94.221 383.827 96.3072 387.931 98.553 392.263C94.6378 387.522 90.3409 383.111 85.7052 379.073C78.204 372.233 69.426 371.674 66.5988 374.672C63.7716 377.671 70.8054 378.936 83.505 383.792C90.187 386.357 96.0821 390.625 100.605 396.173C101.563 397.985 102.554 399.844 103.592 401.77C104.732 403.97 106.18 406.25 107.707 408.519C105.632 407.174 102.589 405.213 99.18 403.081C95.3722 400.771 91.7478 398.172 88.3386 395.306C84.417 391.886 79.059 388.17 73.5186 389.606C73.1065 389.668 72.713 389.819 72.3657 390.049C72.0184 390.279 71.7258 390.583 71.5084 390.938C71.291 391.293 71.1542 391.692 71.1076 392.106C71.061 392.52 71.1057 392.939 71.2386 393.334C71.6448 394.457 72.3999 395.419 73.3932 396.082C78.5916 400.117 85.5798 402.055 91.6332 404.438C97.183 406.613 102.868 408.426 108.653 409.864C110.09 411.928 111.595 413.968 113.088 415.906L110.375 415.986C107.16 416.077 92.6592 409.511 85.2948 407.39C77.9304 405.27 71.0448 409.283 78.7626 413.432C86.4804 417.582 107.468 416.659 107.468 416.659L113.533 416.476C114.946 418.3 116.348 420.033 117.659 421.606H88.92V429.586H94.62L99.18 457.961H137.416L141.976 429.586H147.676V421.606H128.66C128.505 418.161 128.601 414.709 128.945 411.278C130.21 409.983 131.617 408.835 133.141 407.858C141.508 402.078 155.701 401.599 159.463 390.473C160.375 387.782 159.349 384.351 156.134 384.499C153.854 384.602 151.381 386.62 149.944 388.284C145.156 393.813 141.554 399.547 135.329 403.731C135.056 403.925 131.123 407.048 129.185 408.986C129.39 407.174 129.664 405.236 130.017 403.161C131.518 400.489 133.238 397.946 135.158 395.557C140.243 389.23 147.995 385.525 153.501 379.495C155.188 377.648 157.411 371.013 152.258 372.655C149.978 373.384 147.265 376.85 145.418 378.446C140.357 383.006 135.158 387.862 131.852 393.859C132.001 393.266 132.137 392.719 132.286 392.08C135.832 386.374 139.835 380.964 144.256 375.904C151.574 367.57 159.076 362.132 159.201 357.572C159.326 353.012 149.887 360.65 141.873 371.093C138.238 375.883 135.418 381.241 133.528 386.95C134.999 381.034 136.561 375.071 138.088 369.349C139.137 366.499 142.249 359.089 147.995 353.947C155.222 347.483 161.082 342.148 162.119 335.707C163.157 329.266 160.261 331.341 153.9 340.86ZM113.35 414.185C112.21 412.714 111.139 411.107 109.93 409.351C109.203 406.375 108.723 403.343 108.494 400.288C108.338 397.672 108.456 395.047 108.847 392.456C110.793 394.866 112.859 397.175 115.037 399.376C114.99 401.656 114.712 403.925 114.205 406.148C114.182 406.478 113.453 411.437 113.35 414.185ZM119.552 421.686C118.081 420.124 116.474 418.266 114.73 415.986C114.78 414.181 115.032 412.388 115.482 410.639C116.166 407.873 117.168 405.195 118.469 402.659C121.159 405.236 123.12 406.98 123.12 406.98L127.68 410.981C127.315 414.96 127.11 418.688 126.985 421.72L119.552 421.686ZM127.771 410.286L125.731 408.485C124.591 407.459 122.527 403.492 120.293 398.932C121.252 397.005 122.1 395.026 122.835 393.004C125.24 397.484 127.395 400.984 128.649 402.842C128.284 405.27 127.999 407.778 127.771 410.229V410.286Z" fill="#5878DB"/>
<path opacity="0.5" d="M153.9 340.86C149.488 347.392 143.355 355.885 140.083 362.691C141.337 358.199 142.546 353.959 143.663 350.151C145.339 346.868 149.819 338.546 154.994 333.051C161.572 326.017 164.388 321.491 160.843 321.092C158.392 320.83 151.21 330.395 146.707 339.891C147.687 336.642 148.462 334.191 148.987 332.709C149.203 332.059 149.408 331.33 149.614 330.566C154.24 324.012 158.444 317.169 162.199 310.08C168.845 297.665 170.989 285.946 166.554 290.985C162.473 295.625 155.371 318.687 149.739 329.551C150.206 327.682 150.662 325.607 151.061 323.578C151.859 321.594 152.908 319.588 153.501 317.775C154.424 314.971 155.234 312.075 155.884 309.259C156.966 304.78 157.509 300.187 157.502 295.579C157.617 290.167 156.142 284.84 153.262 280.258C152.498 279.118 147.835 272.129 146.422 275.698C146.234 276.287 146.198 276.915 146.319 277.522C146.992 283.461 149.146 288.922 150.48 294.701C152.475 303.354 151.153 317.889 150.48 324.068C150.218 325.037 149.899 326.257 149.522 327.659C150.457 316.897 145.783 304.141 141.463 301.906C136.116 299.147 141.36 309.977 145.487 319.428C147.446 323.567 148.366 328.122 148.166 332.698C147.322 335.81 146.353 339.298 145.35 342.832C145.156 343.322 144.962 343.801 144.791 344.28C145.244 341.976 145.431 339.627 145.35 337.28C144.951 331.102 137.951 318.721 133.312 320.477C128.672 322.232 136.526 328.742 140.733 336.334C142.913 340.529 143.742 345.296 143.104 349.98C143.104 350.254 143.013 350.527 142.979 350.801C142.5 352.408 142.021 353.97 141.554 355.441C140.414 358.861 139.445 362.144 138.476 365.313C139.665 360.718 140.191 355.977 140.038 351.234C139.445 342.171 134.144 333.621 129.778 332.458C125.411 331.295 133.756 346.058 136.618 354.358C138.11 359.221 138.33 364.387 137.256 369.36C135.911 373.852 134.623 378.275 133.312 382.972C133.682 376.834 133.552 370.677 132.924 364.561C132.069 354.483 126.084 348.042 121.946 348.316C117.808 348.589 122.128 354.301 128.09 366.556C131.222 372.989 132.617 380.13 132.137 387.269C131.602 389.253 130.997 391.282 130.496 393.403C129.869 395.819 129.356 398.441 128.911 401.143C128.307 398.738 127.418 395.227 126.38 391.351C125.172 387.062 124.296 382.686 123.758 378.263C123.2 373.133 121.855 366.715 116.816 364.048C116.474 363.807 116.083 363.645 115.672 363.572C115.26 363.499 114.838 363.518 114.434 363.627C114.03 363.735 113.656 363.932 113.336 364.201C113.017 364.471 112.761 364.808 112.586 365.188C112.113 366.287 112.005 367.51 112.279 368.676C112.946 372.17 114.097 375.554 115.699 378.731C114.706 380.628 114.253 382.761 114.388 384.898C114.388 385.708 114.467 386.506 114.513 387.292C114.068 386.483 113.647 385.73 113.248 385.012C112.521 383.809 111.622 382.718 110.58 381.775C110.844 379.886 110.973 377.981 110.968 376.075C110.968 373.567 108.038 367.205 105.393 371.925C104.344 373.806 104.549 377.522 104.447 379.985C103.717 380.657 103.501 382.048 104.105 384.248C103.504 389.96 103.804 395.73 104.994 401.348L104.093 399.752C102.798 393.159 102.036 386.472 101.813 379.757C101.483 368.676 103.261 359.567 100.229 356.159C97.1964 352.75 95.532 364.766 96.8088 377.819C97.4206 383.804 99.0152 389.647 101.528 395.113C98.5644 389.789 95.6346 384.362 92.8644 379.153C91.7244 376.348 88.8972 368.801 89.5926 361.141C90.4704 351.473 91.1088 343.573 87.438 338.135C83.7672 332.698 83.0034 336.22 84.8046 347.563C86.0358 355.338 87.3582 365.735 89.6154 372.951C87.4608 368.813 85.443 364.88 83.6418 361.312C82.6272 357.766 80.2218 348.635 80.2218 341.042C80.2218 331.409 79.1844 326.222 76.3344 328.309C74.3508 329.791 75.6276 341.681 78.831 351.701C77.3262 348.658 76.1976 346.321 75.5478 344.941C75.2628 344.314 74.9208 343.642 74.5446 342.935C73.5207 335 71.9977 327.137 69.9846 319.394C66.3594 305.771 59.9298 295.75 60.1236 302.453C60.3174 308.632 70.8624 330.338 74.157 342.125C73.2222 340.438 72.1392 338.614 71.0448 336.847C70.281 334.864 69.6768 332.686 68.8674 330.942C67.6362 328.274 66.291 325.641 64.809 323.099C62.5302 319.082 59.7867 315.348 56.6352 311.972C53.0219 307.939 48.3054 305.054 43.0692 303.673C41.724 303.354 33.5616 301.393 34.9524 305.041C35.21 305.599 35.6017 306.085 36.0924 306.455C40.6524 310.331 45.942 312.85 50.9124 316.168C58.2768 321.127 67.2258 332.652 70.9194 337.657C71.3982 338.534 71.991 339.652 72.675 340.928C66.006 332.424 53.8992 326.279 49.2138 327.602C43.4226 329.243 54.6516 333.575 64.1136 337.668C68.3724 339.355 72.1533 342.06 75.126 345.545C76.6308 348.384 78.3066 351.599 79.9824 354.871L80.5638 356.307C79.321 354.313 77.8521 352.469 76.1862 350.812C71.649 346.492 58.14 342.228 55.86 346.674C53.58 351.12 63.84 350.527 72.1164 353.195C76.585 354.75 80.4633 357.649 83.22 361.494L83.6874 362.189C84.4398 363.694 85.158 365.165 85.8192 366.556C87.381 369.816 88.8516 372.894 90.3108 375.869C88.0486 371.68 85.1917 367.84 81.8292 364.469C75.24 358.291 65.493 355.68 61.4802 357.823C57.4674 359.966 73.6668 365.051 81.3846 369.223C85.8001 371.714 89.5048 375.293 92.1462 379.62C94.221 383.827 96.3072 387.931 98.553 392.263C94.6378 387.522 90.3409 383.111 85.7052 379.073C78.204 372.233 69.426 371.674 66.5988 374.672C63.7716 377.671 70.8054 378.936 83.505 383.792C90.187 386.357 96.0821 390.625 100.605 396.173C101.563 397.985 102.554 399.844 103.592 401.77C104.732 403.97 106.18 406.25 107.707 408.519C105.632 407.174 102.589 405.213 99.18 403.081C95.3722 400.771 91.7478 398.172 88.3386 395.306C84.417 391.886 79.059 388.17 73.5186 389.606C73.1065 389.668 72.713 389.819 72.3657 390.049C72.0184 390.279 71.7258 390.583 71.5084 390.938C71.291 391.293 71.1542 391.692 71.1076 392.106C71.061 392.52 71.1057 392.939 71.2386 393.334C71.6448 394.457 72.3999 395.419 73.3932 396.082C78.5916 400.117 85.5798 402.055 91.6332 404.438C97.183 406.613 102.868 408.426 108.653 409.864C110.09 411.928 111.595 413.968 113.088 415.906L110.375 415.986C107.16 416.077 92.6592 409.511 85.2948 407.39C77.9304 405.27 71.0448 409.283 78.7626 413.432C86.4804 417.582 107.468 416.659 107.468 416.659L113.533 416.476C114.946 418.3 116.348 420.033 117.659 421.606H88.92V429.586H94.62L99.18 457.961H137.416L141.976 429.586H147.676V421.606H128.66C128.505 418.161 128.601 414.709 128.945 411.278C130.21 409.983 131.617 408.835 133.141 407.858C141.508 402.078 155.701 401.599 159.463 390.473C160.375 387.782 159.349 384.351 156.134 384.499C153.854 384.602 151.381 386.62 149.944 388.284C145.156 393.813 141.554 399.547 135.329 403.731C135.056 403.925 131.123 407.048 129.185 408.986C129.39 407.174 129.664 405.236 130.017 403.161C131.518 400.489 133.238 397.946 135.158 395.557C140.243 389.23 147.995 385.525 153.501 379.495C155.188 377.648 157.411 371.013 152.258 372.655C149.978 373.384 147.265 376.85 145.418 378.446C140.357 383.006 135.158 387.862 131.852 393.859C132.001 393.266 132.137 392.719 132.286 392.08C135.832 386.374 139.835 380.964 144.256 375.904C151.574 367.57 159.076 362.132 159.201 357.572C159.326 353.012 149.887 360.65 141.873 371.093C138.238 375.883 135.418 381.241 133.528 386.95C134.999 381.034 136.561 375.071 138.088 369.349C139.137 366.499 142.249 359.089 147.995 353.947C155.222 347.483 161.082 342.148 162.119 335.707C163.157 329.266 160.261 331.341 153.9 340.86ZM113.35 414.185C112.21 412.714 111.139 411.107 109.93 409.351C109.203 406.375 108.723 403.343 108.494 400.288C108.338 397.672 108.456 395.047 108.847 392.456C110.793 394.866 112.859 397.175 115.037 399.376C114.99 401.656 114.712 403.925 114.205 406.148C114.182 406.478 113.453 411.437 113.35 414.185ZM119.552 421.686C118.081 420.124 116.474 418.266 114.73 415.986C114.78 414.181 115.032 412.388 115.482 410.639C116.166 407.873 117.168 405.195 118.469 402.659C121.159 405.236 123.12 406.98 123.12 406.98L127.68 410.981C127.315 414.96 127.11 418.688 126.985 421.72L119.552 421.686ZM127.771 410.286L125.731 408.485C124.591 407.459 122.527 403.492 120.293 398.932C121.252 397.005 122.1 395.026 122.835 393.004C125.24 397.484 127.395 400.984 128.649 402.842C128.284 405.27 127.999 407.778 127.771 410.229V410.286Z" fill="white"/>
<path d="M402.078 340.86C406.49 347.392 412.623 355.885 415.895 362.691C414.641 358.199 413.432 353.959 412.315 350.151C410.639 346.868 406.159 338.546 400.972 333.051C394.394 326.017 391.59 321.491 395.124 321.092C397.586 320.83 404.768 330.395 409.26 339.891C408.28 336.642 407.516 334.191 407.048 332.709C406.832 332.059 406.627 331.33 406.41 330.566C401.753 324.011 397.515 317.169 393.722 310.08C387.076 297.665 384.932 285.946 389.367 290.985C393.437 295.625 400.539 318.687 406.182 329.551C405.703 327.682 405.259 325.607 404.848 323.578C404.05 321.594 403.013 319.588 402.409 317.775C401.497 314.971 400.676 312.075 400.026 309.259C398.955 304.778 398.412 300.187 398.407 295.579C398.297 290.166 399.775 284.839 402.659 280.258C403.423 279.118 408.086 272.129 409.499 275.698C409.682 276.288 409.717 276.914 409.602 277.522C408.929 283.461 406.763 288.922 405.441 294.701C403.446 303.354 404.768 317.889 405.441 324.068C405.703 325.037 406.022 326.257 406.399 327.659C405.464 316.897 410.126 304.141 414.447 301.906C419.794 299.147 414.55 309.977 410.434 319.428C408.475 323.567 407.555 328.122 407.755 332.698C408.599 335.81 409.556 339.298 410.571 342.832C410.765 343.322 410.947 343.801 411.13 344.28C410.671 341.976 410.484 339.627 410.571 337.28C410.97 331.102 417.97 318.721 422.609 320.477C427.249 322.232 419.395 328.742 415.177 336.334C412.999 340.53 412.174 345.297 412.817 349.98C412.817 350.254 412.897 350.527 412.942 350.801C413.421 352.408 413.9 353.97 414.367 355.441C415.45 358.861 416.465 362.144 417.445 365.313C416.246 360.72 415.72 355.978 415.883 351.234C416.465 342.171 421.777 333.621 426.143 332.458C430.51 331.295 422.165 346.058 419.303 354.358C417.776 359.205 417.521 364.363 418.562 369.337C419.908 373.829 421.196 378.252 422.495 382.949C422.135 376.811 422.268 370.654 422.894 364.538C423.749 354.46 429.734 348.019 433.861 348.293C437.988 348.566 433.69 354.278 427.728 366.533C424.592 372.965 423.193 380.106 423.67 387.247C424.217 389.23 424.753 391.259 425.311 393.38C425.95 395.797 426.451 398.419 426.907 401.12C427.5 398.715 428.401 395.204 429.438 391.328C430.642 387.039 431.515 382.663 432.049 378.241C432.619 373.111 433.964 366.692 439.003 364.025C439.344 363.784 439.735 363.622 440.147 363.549C440.558 363.476 440.981 363.495 441.384 363.604C441.788 363.713 442.163 363.909 442.482 364.179C442.801 364.448 443.057 364.785 443.232 365.165C443.707 366.265 443.811 367.489 443.528 368.653C442.866 372.149 441.715 375.534 440.108 378.708C441.101 380.605 441.554 382.738 441.419 384.875C441.419 385.685 441.34 386.483 441.294 387.269C441.727 386.46 442.149 385.708 442.559 384.989C443.277 383.779 444.168 382.681 445.204 381.729C444.94 379.84 444.811 377.936 444.817 376.029C444.817 373.521 447.746 367.16 450.38 371.879C451.44 373.76 451.235 377.477 451.337 379.939C452.067 380.612 452.284 382.003 451.668 384.203C452.28 389.914 451.98 395.686 450.779 401.303C451.087 400.778 451.383 400.243 451.691 399.707C452.99 393.114 453.752 386.427 453.971 379.711C454.313 368.63 452.534 359.522 455.555 356.113C458.576 352.705 460.264 364.72 458.975 377.773C458.364 383.758 456.769 389.601 454.256 395.067C457.208 389.743 460.138 384.317 462.908 379.107C464.048 376.303 466.887 368.756 466.192 361.095C465.314 351.428 464.675 343.528 468.335 338.09C471.994 332.652 472.781 336.175 470.98 347.518C469.737 355.292 468.426 365.689 466.169 372.905C468.323 368.767 470.33 364.834 472.142 361.266C473.157 357.721 475.562 348.589 475.562 340.997C475.562 331.364 476.588 326.177 479.45 328.263C481.422 329.745 480.145 341.635 476.953 351.656C478.458 348.612 479.575 346.275 480.225 344.896C480.521 344.269 480.863 343.596 481.228 342.889C482.254 334.954 483.777 327.092 485.788 319.348C489.413 305.725 495.843 295.705 495.638 302.408C495.455 308.587 484.91 330.292 481.616 342.08C482.539 340.393 483.622 338.569 484.728 336.802C485.492 334.818 486.096 332.641 486.894 330.896C488.137 328.229 489.482 325.595 490.964 323.053C493.298 319.019 496.103 315.276 499.32 311.904C502.929 307.871 507.642 304.985 512.875 303.605C514.22 303.286 522.394 301.325 520.991 304.973C520.735 305.531 520.343 306.017 519.851 306.386C515.291 310.262 510.002 312.782 505.031 316.099C497.667 321.058 488.718 332.584 485.024 337.588L483.269 340.86C489.938 332.356 502.056 326.211 506.741 327.533C512.533 329.175 501.304 333.507 491.842 337.6C487.581 339.283 483.799 341.988 480.829 345.477C479.324 348.316 477.637 351.53 475.961 354.802C475.779 355.292 475.585 355.771 475.391 356.239C476.63 354.242 478.1 352.398 479.769 350.744C484.272 346.492 497.827 342.228 500.027 346.674C502.227 351.12 492.047 350.527 483.782 353.195C479.326 354.756 475.46 357.654 472.712 361.494L472.234 362.189C471.493 363.694 470.774 365.165 470.113 366.556C468.551 369.816 467.081 372.894 465.622 375.869C467.879 371.68 470.733 367.84 474.092 364.469C480.704 358.245 490.417 355.612 494.441 357.778C498.465 359.944 482.254 365.005 474.536 369.178C470.115 371.681 466.41 375.276 463.775 379.62C461.689 383.827 459.614 387.931 457.357 392.263C461.276 387.522 465.577 383.111 470.216 379.073C477.717 372.233 486.495 371.674 489.322 374.672C492.149 377.671 485.104 378.936 472.405 383.792C465.723 386.357 459.827 390.625 455.305 396.173C454.347 397.985 453.355 399.844 452.318 401.77C451.178 403.97 449.719 406.25 448.202 408.519C450.277 407.174 453.321 405.213 456.73 403.081C460.535 400.768 464.16 398.169 467.571 395.306C471.493 391.886 476.851 388.17 482.391 389.606C482.802 389.67 483.194 389.822 483.541 390.053C483.887 390.283 484.179 390.586 484.396 390.941C484.613 391.296 484.75 391.694 484.797 392.107C484.845 392.521 484.802 392.939 484.671 393.334C484.26 394.457 483.501 395.42 482.505 396.082C477.307 400.117 470.33 402.055 464.265 404.438C458.712 406.616 453.023 408.428 447.233 409.864C445.808 411.928 444.304 413.968 442.81 415.906L445.523 415.986C448.727 416.077 463.239 409.511 470.603 407.39C477.968 405.27 484.853 409.283 477.136 413.432C469.418 417.582 448.419 416.659 448.419 416.659L442.366 416.476C440.952 418.3 439.55 420.033 438.239 421.606H466.99V429.586H461.29L456.673 457.961H418.483L413.923 429.586H408.223V421.606H427.295C427.444 418.161 427.349 414.709 427.01 411.278C425.742 409.986 424.335 408.839 422.815 407.858C414.447 402.078 400.254 401.599 396.492 390.473C395.58 387.782 396.606 384.351 399.821 384.499C402.101 384.602 404.575 386.62 406.011 388.284C410.788 393.813 414.401 399.547 420.614 403.731C420.899 403.925 424.821 407.048 426.77 408.986C426.565 407.174 426.292 405.236 425.938 403.161C424.437 400.489 422.717 397.946 420.797 395.557C415.712 389.23 407.96 385.525 402.443 379.495C400.756 377.648 398.533 371.013 403.685 372.655C405.965 373.384 408.69 376.85 410.468 378.446C415.541 383.006 420.728 387.862 424.034 393.859C423.898 393.266 423.761 392.719 423.613 392.08C420.066 386.374 416.063 380.964 411.643 375.904C404.312 367.57 396.823 362.132 396.686 357.572C396.549 353.012 406 360.65 414.014 371.093C417.654 375.88 420.474 381.239 422.359 386.95C420.899 381.034 419.338 375.071 417.799 369.349C416.75 366.499 413.626 359.089 407.892 353.947C400.653 347.483 394.793 342.148 393.767 335.707C392.741 329.266 395.66 331.341 402.078 340.86ZM442.571 414.185C443.65 412.71 444.771 411.099 445.934 409.351C446.655 406.374 447.136 403.343 447.37 400.288C447.522 397.672 447.4 395.047 447.005 392.456C445.066 394.871 443 397.181 440.815 399.376C440.872 401.656 441.154 403.924 441.659 406.148C441.727 406.478 442.468 411.437 442.571 414.185ZM436.369 421.686C437.828 420.124 439.447 418.266 441.191 415.986C441.135 414.182 440.882 412.389 440.439 410.639C439.745 407.876 438.743 405.199 437.452 402.659C434.762 405.213 432.767 406.923 432.767 406.923L428.207 410.924C428.572 414.903 428.777 418.631 428.891 421.663L436.369 421.686ZM428.15 410.286L430.19 408.485C431.33 407.459 433.394 403.492 435.617 398.932C434.666 397.003 433.821 395.024 433.086 393.004C430.681 397.484 428.526 400.984 427.272 402.842C427.625 405.27 427.922 407.778 428.15 410.229V410.286Z" fill="#5878DB"/>
<path opacity="0.5" d="M402.078 340.86C406.49 347.392 412.623 355.885 415.895 362.691C414.641 358.199 413.432 353.959 412.315 350.151C410.639 346.868 406.159 338.546 400.972 333.051C394.394 326.017 391.59 321.491 395.124 321.092C397.586 320.83 404.768 330.395 409.26 339.891C408.28 336.642 407.516 334.191 407.048 332.709C406.832 332.059 406.627 331.33 406.41 330.566C401.753 324.011 397.515 317.169 393.722 310.08C387.076 297.665 384.932 285.946 389.367 290.985C393.437 295.625 400.539 318.687 406.182 329.551C405.703 327.682 405.259 325.607 404.848 323.578C404.05 321.594 403.013 319.588 402.409 317.775C401.497 314.971 400.676 312.075 400.026 309.259C398.955 304.778 398.412 300.187 398.407 295.579C398.297 290.166 399.775 284.839 402.659 280.258C403.423 279.118 408.086 272.129 409.499 275.698C409.682 276.288 409.717 276.914 409.602 277.522C408.929 283.461 406.763 288.922 405.441 294.701C403.446 303.354 404.768 317.889 405.441 324.068C405.703 325.037 406.022 326.257 406.399 327.659C405.464 316.897 410.126 304.141 414.447 301.906C419.794 299.147 414.55 309.977 410.434 319.428C408.475 323.567 407.555 328.122 407.755 332.698C408.599 335.81 409.556 339.298 410.571 342.832C410.765 343.322 410.947 343.801 411.13 344.28C410.671 341.976 410.484 339.627 410.571 337.28C410.97 331.102 417.97 318.721 422.609 320.477C427.249 322.232 419.395 328.742 415.177 336.334C412.999 340.53 412.174 345.297 412.817 349.98C412.817 350.254 412.897 350.527 412.942 350.801C413.421 352.408 413.9 353.97 414.367 355.441C415.45 358.861 416.465 362.144 417.445 365.313C416.246 360.72 415.72 355.978 415.883 351.234C416.465 342.171 421.777 333.621 426.143 332.458C430.51 331.295 422.165 346.058 419.303 354.358C417.776 359.205 417.521 364.363 418.562 369.337C419.908 373.829 421.196 378.252 422.495 382.949C422.135 376.811 422.268 370.654 422.894 364.538C423.749 354.46 429.734 348.019 433.861 348.293C437.988 348.566 433.69 354.278 427.728 366.533C424.592 372.965 423.193 380.106 423.67 387.247C424.217 389.23 424.753 391.259 425.311 393.38C425.95 395.797 426.451 398.419 426.907 401.12C427.5 398.715 428.401 395.204 429.438 391.328C430.642 387.039 431.515 382.663 432.049 378.241C432.619 373.111 433.964 366.692 439.003 364.025C439.344 363.784 439.735 363.622 440.147 363.549C440.558 363.476 440.981 363.495 441.384 363.604C441.788 363.713 442.163 363.909 442.482 364.179C442.801 364.448 443.057 364.785 443.232 365.165C443.707 366.265 443.811 367.489 443.528 368.653C442.866 372.149 441.715 375.534 440.108 378.708C441.101 380.605 441.554 382.738 441.419 384.875C441.419 385.685 441.34 386.483 441.294 387.269C441.727 386.46 442.149 385.708 442.559 384.989C443.277 383.779 444.168 382.681 445.204 381.729C444.94 379.84 444.811 377.936 444.817 376.029C444.817 373.521 447.746 367.16 450.38 371.879C451.44 373.76 451.235 377.477 451.337 379.939C452.067 380.612 452.284 382.003 451.668 384.203C452.28 389.914 451.98 395.686 450.779 401.303C451.087 400.778 451.383 400.243 451.691 399.707C452.99 393.114 453.752 386.427 453.971 379.711C454.313 368.63 452.534 359.522 455.555 356.113C458.576 352.705 460.264 364.72 458.975 377.773C458.364 383.758 456.769 389.601 454.256 395.067C457.208 389.743 460.138 384.317 462.908 379.107C464.048 376.303 466.887 368.756 466.192 361.095C465.314 351.428 464.675 343.528 468.335 338.09C471.994 332.652 472.781 336.175 470.98 347.518C469.737 355.292 468.426 365.689 466.169 372.905C468.323 368.767 470.33 364.834 472.142 361.266C473.157 357.721 475.562 348.589 475.562 340.997C475.562 331.364 476.588 326.177 479.45 328.263C481.422 329.745 480.145 341.635 476.953 351.656C478.458 348.612 479.575 346.275 480.225 344.896C480.521 344.269 480.863 343.596 481.228 342.889C482.254 334.954 483.777 327.092 485.788 319.348C489.413 305.725 495.843 295.705 495.638 302.408C495.455 308.587 484.91 330.292 481.616 342.08C482.539 340.393 483.622 338.569 484.728 336.802C485.492 334.818 486.096 332.641 486.894 330.896C488.137 328.229 489.482 325.595 490.964 323.053C493.298 319.019 496.103 315.276 499.32 311.904C502.929 307.871 507.642 304.985 512.875 303.605C514.22 303.286 522.394 301.325 520.991 304.973C520.735 305.531 520.343 306.017 519.851 306.386C515.291 310.262 510.002 312.782 505.031 316.099C497.667 321.058 488.718 332.584 485.024 337.588L483.269 340.86C489.938 332.356 502.056 326.211 506.741 327.533C512.533 329.175 501.304 333.507 491.842 337.6C487.581 339.283 483.799 341.988 480.829 345.477C479.324 348.316 477.637 351.53 475.961 354.802C475.779 355.292 475.585 355.771 475.391 356.239C476.63 354.242 478.1 352.398 479.769 350.744C484.272 346.492 497.827 342.228 500.027 346.674C502.227 351.12 492.047 350.527 483.782 353.195C479.326 354.756 475.46 357.654 472.712 361.494L472.234 362.189C471.493 363.694 470.774 365.165 470.113 366.556C468.551 369.816 467.081 372.894 465.622 375.869C467.879 371.68 470.733 367.84 474.092 364.469C480.704 358.245 490.417 355.612 494.441 357.778C498.465 359.944 482.254 365.005 474.536 369.178C470.115 371.681 466.41 375.276 463.775 379.62C461.689 383.827 459.614 387.931 457.357 392.263C461.276 387.522 465.577 383.111 470.216 379.073C477.717 372.233 486.495 371.674 489.322 374.672C492.149 377.671 485.104 378.936 472.405 383.792C465.723 386.357 459.827 390.625 455.305 396.173C454.347 397.985 453.355 399.844 452.318 401.77C451.178 403.97 449.719 406.25 448.202 408.519C450.277 407.174 453.321 405.213 456.73 403.081C460.535 400.768 464.16 398.169 467.571 395.306C471.493 391.886 476.851 388.17 482.391 389.606C482.802 389.67 483.194 389.822 483.541 390.053C483.887 390.283 484.179 390.586 484.396 390.941C484.613 391.296 484.75 391.694 484.797 392.107C484.845 392.521 484.802 392.939 484.671 393.334C484.26 394.457 483.501 395.42 482.505 396.082C477.307 400.117 470.33 402.055 464.265 404.438C458.712 406.616 453.023 408.428 447.233 409.864C445.808 411.928 444.304 413.968 442.81 415.906L445.523 415.986C448.727 416.077 463.239 409.511 470.603 407.39C477.968 405.27 484.853 409.283 477.136 413.432C469.418 417.582 448.419 416.659 448.419 416.659L442.366 416.476C440.952 418.3 439.55 420.033 438.239 421.606H466.99V429.586H461.29L456.673 457.961H418.483L413.923 429.586H408.223V421.606H427.295C427.444 418.161 427.349 414.709 427.01 411.278C425.742 409.986 424.335 408.839 422.815 407.858C414.447 402.078 400.254 401.599 396.492 390.473C395.58 387.782 396.606 384.351 399.821 384.499C402.101 384.602 404.575 386.62 406.011 388.284C410.788 393.813 414.401 399.547 420.614 403.731C420.899 403.925 424.821 407.048 426.77 408.986C426.565 407.174 426.292 405.236 425.938 403.161C424.437 400.489 422.717 397.946 420.797 395.557C415.712 389.23 407.96 385.525 402.443 379.495C400.756 377.648 398.533 371.013 403.685 372.655C405.965 373.384 408.69 376.85 410.468 378.446C415.541 383.006 420.728 387.862 424.034 393.859C423.898 393.266 423.761 392.719 423.613 392.08C420.066 386.374 416.063 380.964 411.643 375.904C404.312 367.57 396.823 362.132 396.686 357.572C396.549 353.012 406 360.65 414.014 371.093C417.654 375.88 420.474 381.239 422.359 386.95C420.899 381.034 419.338 375.071 417.799 369.349C416.75 366.499 413.626 359.089 407.892 353.947C400.653 347.483 394.793 342.148 393.767 335.707C392.741 329.266 395.66 331.341 402.078 340.86ZM442.571 414.185C443.65 412.71 444.771 411.099 445.934 409.351C446.655 406.374 447.136 403.343 447.37 400.288C447.522 397.672 447.4 395.047 447.005 392.456C445.066 394.871 443 397.181 440.815 399.376C440.872 401.656 441.154 403.924 441.659 406.148C441.727 406.478 442.468 411.437 442.571 414.185ZM436.369 421.686C437.828 420.124 439.447 418.266 441.191 415.986C441.135 414.182 440.882 412.389 440.439 410.639C439.745 407.876 438.743 405.199 437.452 402.659C434.762 405.213 432.767 406.923 432.767 406.923L428.207 410.924C428.572 414.903 428.777 418.631 428.891 421.663L436.369 421.686ZM428.15 410.286L430.19 408.485C431.33 407.459 433.394 403.492 435.617 398.932C434.666 397.003 433.821 395.024 433.086 393.004C430.681 397.484 428.526 400.984 427.272 402.842C427.625 405.27 427.922 407.778 428.15 410.229V410.286Z" fill="white"/>
<path d="M408.907 458.634C410.796 460.466 412.807 462.168 414.926 463.729C417.137 465.154 418.939 465.36 418.733 466.579C418.528 467.799 417.137 468.21 413.923 468.415C410.708 468.62 408.109 467.799 406.501 466.135C404.894 464.47 403.492 464.71 401.884 464.299C400.277 463.889 399.878 458.599 401.291 457.585C402.705 456.57 408.907 458.634 408.907 458.634Z" fill="#263238" stroke="#263238" stroke-linecap="round" stroke-linejoin="round"/>
<path d="M402.089 459.648C402.089 459.648 406.501 466.374 407.71 467.799C408.918 469.224 410.719 470.649 409.716 470.854C407.313 471.594 404.765 471.735 402.295 471.265C398.875 470.444 395.865 465.154 395.272 464.14C394.679 463.125 393.061 464.744 393.665 461.689C394.026 459.856 394.777 458.122 395.865 456.604C395.865 456.604 398.476 459.853 402.089 459.648Z" fill="#263238" stroke="#263238" stroke-linecap="round" stroke-linejoin="round"/>
<path d="M422.94 407.721L408.895 458.633L407.094 458.839C405.792 458.909 404.489 458.699 403.275 458.223L411.711 407.516C411.711 407.516 417.935 410.161 422.94 407.721Z" fill="#5878DB" stroke="#263238" stroke-linecap="round" stroke-linejoin="round"/>
<path d="M428.948 284.305L429.37 298.634L434.636 335.867L430.418 336.722L423.681 314.252C423.681 314.252 417.559 296.924 417.776 292C417.992 287.075 422.416 274.9 425.995 274.033C429.575 273.167 428.948 284.305 428.948 284.305Z" fill="white" stroke="#263238" stroke-linecap="round" stroke-linejoin="round"/>
<path d="M434.636 335.867C434.636 335.867 435.298 341.168 434.819 343.562C434.34 345.956 432.231 351.222 431.285 351.701C430.339 352.18 428.936 343.562 428.936 340.689C428.87 339.959 428.969 339.223 429.226 338.537C429.482 337.85 429.89 337.23 430.418 336.722L434.636 335.867Z" fill="white" stroke="#263238" stroke-linecap="round" stroke-linejoin="round"/>
<path d="M389.447 312.611C386.987 318.628 385.695 325.058 385.639 331.558C385.434 342.752 394.064 358.849 397.871 365.974C401.679 373.099 414.322 391.841 414.322 391.841C414.322 391.841 405.099 411.392 404.7 417.297C404.301 423.202 395.865 456.604 395.865 456.604C396.153 457.232 396.569 457.792 397.088 458.247C397.607 458.703 398.215 459.044 398.875 459.249C399.932 459.477 401.008 459.61 402.089 459.648C402.089 459.648 427.169 402.431 427.967 397.541C428.765 392.65 429.974 390.61 429.107 387.554C428.571 385.212 428.235 382.829 428.104 380.429C428.104 380.429 430.92 367.194 431.319 346.423C431.718 325.652 430.92 316.487 429.313 311.596C429.37 311.596 408.302 319.132 389.447 312.611Z" fill="#5878DB" stroke="#263238" stroke-linecap="round" stroke-linejoin="round"/>
<path d="M424.924 214.594C424.924 214.594 431.057 217.694 429.871 222.961C428.686 228.228 424.684 230.143 422.564 234.452C420.443 238.762 423.977 247.369 422.803 253.593C421.629 259.817 417.388 265.073 413.82 261.06C410.252 257.047 410.058 240.95 412.885 231.42C415.712 221.89 419.52 212.439 424.924 214.594Z" fill="#263238" stroke="#263238" stroke-linecap="round" stroke-linejoin="round"/>
<path d="M408.713 243.778C404.815 245.203 400.803 246.293 396.72 247.038C391.305 247.848 385.685 248.874 385.685 253.764C385.685 258.655 397.518 290.005 397.518 290.005L388.295 314.036C388.295 314.036 393.71 317.456 406.946 318.927C415.165 319.692 423.435 318.14 430.817 314.446C430.817 314.446 426.007 299.17 426.007 292.866C426.007 286.562 432.63 283.495 432.026 274.74C431.422 265.985 429.016 258.438 425.402 253.559C421.789 248.68 414.002 244.439 412.361 243.983C411.162 243.731 409.932 243.662 408.713 243.778Z" fill="white" stroke="#263238" stroke-linecap="round" stroke-linejoin="round"/>
<path d="M423.35 280.748C423.35 280.748 411.688 288.956 406.934 291.11" stroke="#263238" stroke-linecap="round" stroke-linejoin="round"/>
<path d="M394.44 279.026C394.44 279.026 400.482 272.551 401.348 267.797" stroke="#263238" stroke-linecap="round" stroke-linejoin="round"/>
<path d="M424.639 257.001L430.692 266.931" stroke="#263238" stroke-linecap="round" stroke-linejoin="round"/>
<path d="M407.299 227.282C407.299 227.282 407.71 233.597 407.71 237.667C407.71 241.737 406.296 243.572 407.504 247.654C408.713 251.735 412.919 259.863 414.926 256.774C416.932 253.684 417.935 238.853 417.935 238.853C417.935 238.853 413.923 232.948 411.916 230.098C409.91 227.248 407.71 225.446 407.299 227.282Z" fill="white" stroke="#263238" stroke-linecap="round" stroke-linejoin="round"/>
<path d="M422.746 216.896C424.642 220.271 425.742 224.033 425.961 227.897C426.36 234.407 425.357 239.297 421.948 242.353C418.54 245.408 416.932 246.023 413.968 244.997C411.004 243.971 407.755 231.967 407.755 231.967C407.755 231.967 403.936 231.762 400.334 225.857C396.731 219.952 402.135 210.786 409.955 209.771C417.776 208.757 422.746 216.896 422.746 216.896Z" fill="white" stroke="#263238" stroke-linecap="round" stroke-linejoin="round"/>
<path d="M410.913 231.352C410.913 231.352 408.109 225.446 406.296 227.932C404.483 230.417 405.703 234.646 407.105 235.262C408.508 235.877 409.511 234.042 409.511 234.042" fill="white"/>
<path d="M410.913 231.352C410.913 231.352 408.109 225.446 406.296 227.932C404.483 230.417 405.703 234.646 407.105 235.262C408.508 235.877 409.511 234.042 409.511 234.042" stroke="#263238" stroke-linecap="round" stroke-linejoin="round"/>
<path d="M389.538 248.782C389.538 248.782 382.994 249.204 383.416 256.694C383.838 264.184 380.475 300.994 380.258 305.269C380.042 309.544 393.539 342.285 393.539 342.285L398.384 341.647L390.587 303.343L395.854 273.6C396.273 272.403 396.414 271.126 396.268 269.866C396.122 268.607 395.692 267.396 395.01 266.327" fill="white"/>
<path d="M389.538 248.782C389.538 248.782 382.994 249.204 383.416 256.694C383.838 264.184 380.475 300.994 380.258 305.269C380.042 309.544 393.539 342.285 393.539 342.285L398.384 341.647L390.587 303.343L395.854 273.6C396.273 272.403 396.414 271.126 396.268 269.866C396.122 268.607 395.692 267.396 395.01 266.327" stroke="#263238" stroke-linecap="round" stroke-linejoin="round"/>
<path d="M407.96 229.664L409.408 229.026L415.028 226.552C422.096 223.44 423.271 219.61 424.924 214.594C426.577 209.578 425.163 210.284 416.203 207.172C407.242 204.06 401.383 205.736 396.64 211.481C391.898 217.227 392.639 232.537 390.94 237.804C389.242 243.071 387.406 246.411 390.94 251.678C394.474 256.945 407.675 265.791 409.089 258.381C410.503 250.971 405.84 236.607 407.96 229.664Z" fill="#263238" stroke="#263238" stroke-linecap="round" stroke-linejoin="round"/>
<path d="M398.384 341.646C399.978 342.581 401.452 343.706 402.773 344.998C403.913 346.434 405.361 349.558 405.122 350.504C404.882 351.45 403.001 348.11 402.067 347.631C401.132 347.153 403.948 352.898 404.187 354.095C404.426 355.292 404.187 355.76 401.827 354.813C399.467 353.867 398.054 352.659 395.694 350.025C393.334 347.392 393.539 342.285 393.539 342.285L398.384 341.646Z" fill="white" stroke="#263238" stroke-linecap="round" stroke-linejoin="round"/>
<path d="M413.136 326.576C413.136 326.576 426.109 361.027 427.523 377.785" stroke="#263238" stroke-linecap="round" stroke-linejoin="round"/>
<path d="M422.564 325.858C422.564 325.858 419.509 332.549 417.149 335.183" stroke="#263238" stroke-linecap="round" stroke-linejoin="round"/>
<path d="M353.309 309.043C353.309 309.043 348.065 276.838 348.065 263.728C348.065 250.618 351.69 238.898 357.743 244.199L367.536 316.544L371.64 339.435C373.179 345.625 372.962 351.599 372.005 354.745C371.047 357.892 369.223 357.459 369.782 354.871C370.34 352.283 368.95 348.521 368.3 349.171C367.65 349.821 369.178 352.83 367.912 354.221C366.647 355.612 366.214 353.012 365.632 349.661C365.051 346.309 366.647 340.997 366.647 340.997L353.309 309.043Z" fill="white" stroke="#263238" stroke-linecap="round" stroke-linejoin="round"/>
<path d="M356.649 242.626C359.037 244.686 360.647 247.503 361.209 250.606C361.961 255.634 369.246 292.045 369.246 292.045C369.246 292.045 366.966 294.063 360.958 296.32C357.169 297.707 353.181 298.477 349.148 298.6L348.395 246.867" fill="#5878DB"/>
<path d="M356.649 242.626C359.037 244.686 360.647 247.503 361.209 250.606C361.961 255.634 369.246 292.045 369.246 292.045C369.246 292.045 366.966 294.063 360.958 296.32C357.169 297.707 353.181 298.477 349.148 298.6L348.395 246.867" stroke="#263238" stroke-linecap="round" stroke-linejoin="round"/>
<path d="M355.737 291.966H360.97L363.352 288.158H368.117" stroke="#263238" stroke-linecap="round" stroke-linejoin="round"/>
<path d="M284.818 285.319C288.089 273.589 294.77 253.855 296.058 249.626C297.814 243.846 300.835 242.341 300.835 242.341L305.395 270.476L303.639 274.239C303.639 274.239 298.76 287.816 295.055 294.519L305.144 315.928L308.666 323.464L304.106 329.996C304.106 329.996 283.518 298.076 282.446 295.796C281.375 293.516 284.818 285.319 284.818 285.319Z" fill="white" stroke="#263238" stroke-linecap="round" stroke-linejoin="round"/>
<path d="M302.1 241.874C299.559 242.642 297.404 244.345 296.069 246.639C293.561 250.663 281.249 291.099 281.249 291.099C283.841 293.032 286.853 294.325 290.039 294.873C292.607 295.341 295.231 295.426 297.825 295.123L305.11 276.028" fill="#5878DB"/>
<path d="M302.1 241.874C299.559 242.642 297.404 244.345 296.069 246.639C293.561 250.663 281.249 291.099 281.249 291.099C283.841 293.032 286.853 294.325 290.039 294.873C292.607 295.341 295.231 295.426 297.825 295.123L305.11 276.028" stroke="#263238" stroke-linecap="round" stroke-linejoin="round"/>
<path d="M283.313 284.818L288.078 288.637L294.28 286.254L298.087 290.062" stroke="#263238" stroke-linecap="round" stroke-linejoin="round"/>
<path d="M361.072 459.238C361.072 459.238 361.072 460.264 367.445 465.622C373.817 470.98 375.106 472.462 373.316 474.297C371.526 476.133 362.851 472.77 360.046 470.98C357.242 469.19 358.519 469.19 355.201 467.662C351.884 466.135 353.411 460.765 353.924 459.489C354.437 458.212 361.072 459.238 361.072 459.238Z" fill="white" stroke="#263238" stroke-linecap="round" stroke-linejoin="round"/>
<path d="M299.353 458.086C299.353 458.086 299.353 459.101 292.969 464.459C286.585 469.817 285.308 471.356 287.098 473.134C288.887 474.913 297.563 471.607 300.367 469.817C303.172 468.027 301.906 468.039 305.224 466.5C308.541 464.961 307.002 459.66 306.5 458.337C305.999 457.015 299.353 458.086 299.353 458.086Z" fill="white" stroke="#263238" stroke-linecap="round" stroke-linejoin="round"/>
<path d="M303.24 362.52C302.431 353.936 303.628 331.284 303.628 329.244C303.628 327.203 307.481 318.904 308.598 316.567L308.712 313.888C308.712 313.888 348.407 312.383 353.651 310.468C353.651 310.468 360.4 337.828 361.152 358.04C361.904 378.252 365.267 402.99 364.515 417.217C363.922 428.617 363.375 451.338 362.885 458.964C362.828 459.837 362.491 460.667 361.924 461.333C361.357 461.999 360.591 462.463 359.738 462.658L358.815 462.863C358.266 462.988 357.696 462.998 357.143 462.89C356.59 462.783 356.065 462.561 355.602 462.239C355.14 461.917 354.75 461.502 354.457 461.021C354.164 460.539 353.975 460.002 353.902 459.443C352.055 444.623 345.249 394.919 342.422 385.788C339.002 374.923 332.162 345.523 332.162 345.523C332.162 345.523 316.202 418.004 314.366 427.74C312.531 437.475 306.5 459.58 306.5 459.58C304.938 460.181 303.3 460.565 301.633 460.72C300.241 460.657 298.864 460.404 297.54 459.967L303.24 362.52Z" fill="#263238" stroke="#263238" stroke-linecap="round" stroke-linejoin="round"/>
<path d="M330.6 234.988C330.6 234.988 340.279 236.926 346.822 238.864C353.366 240.802 357.721 242.011 357.721 244.2C357.721 246.388 354.814 311.46 354.814 311.46C354.814 311.46 354.574 314.127 348.76 314.88C342.946 315.632 312.2 316.567 310.262 316.088C308.324 315.609 307.595 313.66 307.355 310.753C307.116 307.846 299.603 246.103 300.094 243.208C300.584 240.312 324.307 235.935 325.025 235.695C326.785 234.957 328.712 234.713 330.6 234.988Z" fill="#5878DB" stroke="#263238" stroke-linecap="round" stroke-linejoin="round"/>
<path d="M355.737 272.46C355.737 272.46 345.728 294.85 332.39 306.284" stroke="#263238" stroke-linecap="round" stroke-linejoin="round"/>
<path d="M335.719 291.966C335.719 291.966 321.913 310.548 314.287 313.888" stroke="#263238" stroke-linecap="round" stroke-linejoin="round"/>
<path d="M302.374 266.247L311.425 260.524L318.573 267.193L328.582 261.003L336.676 268.151L346.207 259.578L353.833 267.193L356.683 260.524" stroke="#263238" stroke-linecap="round" stroke-linejoin="round"/>
<path d="M336.528 218.55C336.528 218.55 338.626 213.306 339.674 217.501C340.723 221.696 337.052 226.929 334.955 225.355" fill="white"/>
<path d="M336.528 218.55C336.528 218.55 338.626 213.306 339.674 217.501C340.723 221.696 337.052 226.929 334.955 225.355" stroke="#263238" stroke-linecap="round" stroke-linejoin="round"/>
<path d="M315.062 219.849C315.062 219.849 310.604 216.976 310.867 220.898C311.129 224.819 315.062 229.277 316.361 226.928" fill="white"/>
<path d="M315.062 219.849C315.062 219.849 310.604 216.976 310.867 220.898C311.129 224.819 315.062 229.277 316.361 226.928" stroke="#263238" stroke-linecap="round" stroke-linejoin="round"/>
<path d="M334.955 225.355L334.693 241.589C334.648 242.502 334.422 243.397 334.027 244.222C333.633 245.047 333.079 245.786 332.397 246.395C331.715 247.004 330.918 247.471 330.054 247.769C329.19 248.067 328.275 248.191 327.362 248.132C320.294 248.132 320.522 240.016 320.522 240.016L318.949 226.928C318.949 226.928 330.247 228.228 334.955 225.355Z" fill="white" stroke="#263238" stroke-linecap="round" stroke-linejoin="round"/>
<path d="M313.169 216.11C313.169 216.11 310.08 206.42 318.402 200.64C326.724 194.86 335.684 202.213 336.733 209.544C337.782 216.874 336.995 226.564 333.074 232.059C329.152 237.553 326.701 237.952 322.335 234.681C317.969 231.409 313.432 222.391 313.169 216.11Z" fill="white" stroke="#263238" stroke-linecap="round" stroke-linejoin="round"/>
<path d="M315.21 212.245C315.21 212.245 316.213 215.506 315.962 216.805C315.712 218.105 317.216 221.571 314.959 221.365C312.702 221.16 311.699 212.337 311.699 212.337L315.21 212.245Z" fill="#263238" stroke="#263238" stroke-linecap="round" stroke-linejoin="round"/>
<path d="M336.779 217.261C336.779 217.261 334.772 219.017 334.772 217.011C334.772 215.004 336.277 214.001 335.023 212.451C333.769 210.9 331.261 209.943 331.261 207.435V203.171C328.301 206.119 325.02 208.727 321.48 210.946C316.92 213.454 312.451 214.959 308.94 213.705C305.429 212.451 310.194 207.936 310.194 207.936C310.194 207.936 304.927 210.695 304.927 205.93C304.927 201.165 313.694 194.895 321.719 194.895C329.745 194.895 332.504 200.161 332.504 200.161C332.504 200.161 337.269 200.161 338.021 204.425C338.774 208.689 336.779 217.261 336.779 217.261Z" fill="#263238" stroke="#263238" stroke-linecap="round" stroke-linejoin="round"/>
<path d="M236.322 460.332C236.322 460.332 229.881 466.499 227.829 471.527C225.777 476.554 230.998 476.007 235.809 472.461C240.62 468.916 241.509 459.294 241.509 459.294C241.509 459.294 238.465 459.933 236.322 460.332Z" fill="#5878DB" stroke="#263238" stroke-linecap="round" stroke-linejoin="round"/>
<path d="M254.22 459.032C254.22 459.032 254.881 467.799 256.557 472.644C258.233 477.489 262.884 479.176 264.377 475.254C265.871 471.333 259.658 458.77 259.658 458.77C259.658 458.77 256.147 459.956 254.22 459.032Z" fill="#5878DB" stroke="#263238" stroke-linecap="round" stroke-linejoin="round"/>
<path d="M214.81 316.281C214.81 316.281 210.148 327.419 212.53 345.032C214.913 362.645 221.65 377.682 222.893 386.483C224.135 395.283 223.155 412.395 227.555 425.607C231.956 438.82 236.368 460.332 236.368 460.332C237.237 460.687 238.191 460.778 239.112 460.593C240.032 460.409 240.878 459.957 241.543 459.294C241.543 459.294 242.581 424.57 242.843 407.732C243.105 390.894 240.768 364.982 241.03 360.057C241.292 355.133 243.31 322.232 243.31 322.232C243.31 322.232 221.548 320.157 214.81 316.281Z" fill="#263238" stroke="#263238" stroke-linecap="round" stroke-linejoin="round"/>
<path d="M239.947 322.495C239.947 322.495 237.359 351.77 239.172 375.083C240.985 398.396 246.422 424.103 249.272 435.503C252.122 446.903 254.22 459.033 254.22 459.033C254.22 459.033 257.64 461.62 259.658 458.77C259.658 458.77 261.47 431.832 261.733 417.32C261.995 402.808 259.453 393.995 259.453 384.932C259.453 375.869 267.227 349.957 268.265 338.295C269.302 326.633 269.564 324.82 267.49 318.607C265.415 312.394 243.914 316.327 241.577 318.094C240.903 318.586 240.388 319.266 240.098 320.048C239.808 320.831 239.756 321.682 239.947 322.495Z" fill="#263238" stroke="#263238" stroke-linecap="round" stroke-linejoin="round"/>
<path d="M242.82 407.732C242.82 407.732 237.975 384.784 239.001 369.257C239.514 361.551 241.76 336.528 241.76 336.528" stroke="white" stroke-linecap="round" stroke-linejoin="round"/>
<path d="M235.672 332.937L241.349 340.86" stroke="white" stroke-linecap="round" stroke-linejoin="round"/>
<path d="M241.885 200.184C241.885 200.184 239.514 196.639 232.013 200.583C224.512 204.527 225.31 221.103 226.096 224.66C226.883 228.217 222.152 229.79 218.207 236.903C214.263 244.017 222.551 259.008 222.152 264.138C221.753 269.268 212.678 277.556 213.032 286.63C213.385 295.705 235.136 306.01 252.1 304.004C269.063 301.997 273.418 295.716 273.76 285.844C274.102 275.971 269.017 270.841 269.017 264.925C269.017 259.008 275.732 253.867 272.175 244.006C268.618 234.145 263.488 232.606 263.488 228.217C263.488 223.828 270.203 220.715 267.832 212.827C265.46 204.938 253.331 192.295 241.885 200.184Z" fill="#263238" stroke="#263238" stroke-linecap="round" stroke-linejoin="round"/>
<path d="M240.209 240.369C240.209 240.369 230.873 242.957 225.697 243.789C220.522 244.621 215.335 245.601 215.585 249.751C215.836 253.901 223.885 288.351 224.398 290.426C224.911 292.501 214.32 317.307 214.32 317.307C214.32 317.307 216.6 319.382 232.457 323.007C248.315 326.633 268.47 319.382 268.47 319.382C268.47 319.382 259.658 294.507 259.658 290.882C259.658 287.257 272.608 250.469 270.02 246.582C267.433 242.694 247.46 240.62 240.209 240.369Z" fill="white" stroke="#263238" stroke-linecap="round" stroke-linejoin="round"/>
<path d="M259.977 278.627L235.205 294.827" stroke="#263238" stroke-linecap="round" stroke-linejoin="round"/>
<path d="M243.778 286.254L227.578 295.305" stroke="#263238" stroke-linecap="round" stroke-linejoin="round"/>
<path d="M240.437 257.195L241.395 321.503" stroke="#263238" stroke-linecap="round" stroke-linejoin="round"/>
<path d="M269.735 245.544C269.735 245.544 271.81 248.657 272.335 261.607C272.859 274.557 285.547 332.082 285.547 332.082L280.098 332.857C280.098 332.857 272.848 314.982 268.447 305.132C265.478 298.112 263.143 290.84 261.47 283.404L264.412 263.477" fill="white"/>
<path d="M269.735 245.544C269.735 245.544 271.81 248.657 272.335 261.607C272.859 274.557 285.547 332.082 285.547 332.082L280.098 332.857C280.098 332.857 272.848 314.982 268.447 305.132C265.478 298.112 263.143 290.84 261.47 283.404L264.412 263.477" stroke="#263238" stroke-linecap="round" stroke-linejoin="round"/>
<path d="M273.794 281.489C271.949 285.108 269.878 288.607 267.592 291.965" stroke="#263238" stroke-linecap="round" stroke-linejoin="round"/>
<path d="M240.209 240.369C240.209 240.369 234.35 238.967 232.708 242.227C231.067 245.487 229.448 257.914 229.448 257.914C229.448 257.914 239.571 253.992 241.862 253.992C244.154 253.992 254.938 259.92 254.938 259.92C254.938 259.92 253.627 245.214 251.017 241.292C248.406 237.371 240.209 240.369 240.209 240.369Z" fill="white" stroke="#263238" stroke-linecap="round" stroke-linejoin="round"/>
<path d="M236.322 235.706C236.322 235.706 237.359 245.807 237.872 249.17C238.385 252.533 240.551 267.718 244.348 249.17C245.193 244.377 245.711 239.532 245.898 234.669C245.898 234.669 239.947 236.995 236.322 235.706Z" fill="white" stroke="#263238" stroke-linecap="round" stroke-linejoin="round"/>
<path d="M241.498 206.682L231.42 221.969C231.42 221.969 230.896 237.77 238.933 239.844C246.97 241.919 252.613 226.37 252.613 226.37C252.613 226.37 239.172 213.419 241.498 206.682Z" fill="white" stroke="#263238" stroke-linecap="round" stroke-linejoin="round"/>
<path d="M219.222 266.76L205.485 279.197L216.326 309.977L212.998 312.873C212.998 312.873 190.334 282.389 190.46 278.673C190.585 274.957 216.68 246.286 216.68 246.286C217.072 246.065 217.505 245.929 217.953 245.886C218.401 245.842 218.852 245.893 219.279 246.035" fill="white"/>
<path d="M219.222 266.76L205.485 279.197L216.326 309.977L212.998 312.873C212.998 312.873 190.334 282.389 190.46 278.673C190.585 274.957 216.68 246.286 216.68 246.286C217.072 246.065 217.505 245.929 217.953 245.886C218.401 245.842 218.852 245.893 219.279 246.035" stroke="#263238" stroke-linecap="round" stroke-linejoin="round"/>
<path d="M205.485 279.232C205.485 279.232 199.466 274.82 197.083 274.82" stroke="#263238" stroke-linecap="round" stroke-linejoin="round"/>
<path d="M280.098 332.88C280.098 332.88 277.51 338.067 277.51 341.692C277.51 345.317 277.51 348.088 279.072 346.868C280.634 345.648 279.585 342.205 280.36 341.692C281.135 341.179 281.922 345.317 280.885 347.905C279.847 350.493 281.66 351.325 283.165 348.167C284.669 345.01 286.015 338.842 285.445 332.105L280.098 332.88Z" fill="white" stroke="#263238" stroke-linecap="round" stroke-linejoin="round"/>
<path d="M216.326 310.011C216.326 310.011 219.062 305.189 220.613 305.714C222.163 306.238 226.472 310.274 226.472 311.357C226.472 312.44 220.613 308.826 220.613 308.826C220.613 308.826 226.472 312.132 224.922 313.169C223.372 314.207 218.789 310.741 218.789 310.741C218.789 310.741 223.885 315.495 222.323 315.244C220.761 314.993 217.409 312.645 217.409 312.645C217.409 312.645 221.285 316.281 219.473 316.065C218.145 315.744 216.95 315.019 216.053 313.99C216.053 313.99 214.343 316.726 212.941 312.953L216.326 310.011Z" fill="white" stroke="#263238" stroke-linecap="round" stroke-linejoin="round"/>
<path d="M175.047 200.936L171.627 203.399C171.016 202.567 170.132 201.977 169.129 201.731C168.127 201.485 167.07 201.599 166.144 202.053C162.724 203.615 154.846 211.675 152.464 219.051C150.081 226.427 157.833 234.828 156.374 237.964C154.915 241.098 150.788 241.988 151.118 247.243C151.449 252.499 170.134 259.544 179.083 255.405C188.032 251.267 179.425 241.646 181.431 238.522C183.437 235.398 189.263 236.242 189.263 226.997C189.263 217.751 187.484 213.009 184.121 207.309C181.26 202.384 178.296 199.819 175.047 200.936Z" fill="#263238" stroke="#263238" stroke-linecap="round" stroke-linejoin="round"/>
<path d="M185.204 455.829C184.644 458.769 183.882 461.668 182.924 464.504C181.784 467.275 177.578 468.38 179.607 470.045C181.636 471.709 185.877 471.527 188.465 468.905C191.053 466.283 190.676 462.623 192.706 460.788C194.735 458.953 194.552 456.912 193.264 454.689C192.703 453.509 191.712 452.587 190.494 452.113C190.494 452.113 189.81 455.282 185.204 455.829Z" fill="white" stroke="#263238" stroke-linecap="round" stroke-linejoin="round"/>
<path d="M146.752 296.4C146.752 296.4 143.526 311.619 144.677 323.395C145.451 332.322 146.837 341.186 148.827 349.923C149.967 354.073 158.517 393.3 159.212 393.756C159.908 394.212 174.032 426.987 176.974 435.058C179.915 443.129 185.056 455.578 185.056 455.578C185.056 455.578 188.203 457.094 190.277 455.247C192.352 453.401 191.6 452.899 191.6 452.899C191.6 452.899 186.903 412.212 183.209 400.676C179.516 389.139 173.747 376.211 173.747 376.211C173.747 376.211 184.828 333.302 182.286 316.452C179.744 299.603 176.518 297.54 176.518 297.54C176.518 297.54 157.594 304.38 146.752 296.4Z" fill="#263238" stroke="#263238" stroke-linecap="round" stroke-linejoin="round"/>
<path d="M177.977 299.82C184.969 309.312 189.394 320.448 190.825 332.15C192.899 351.063 181.819 363.523 179.516 375.527C177.213 387.531 182.514 397.666 179.06 410.126C175.606 422.586 172.14 434.773 169.86 441.693C167.58 448.613 164.878 457.527 164.878 457.527C163.633 458.497 162.075 458.976 160.501 458.873C157.502 458.873 157.081 458.873 157.081 458.873C157.081 458.873 162.199 407.835 162.427 396.298C162.655 384.761 164.046 372.301 164.046 372.301C164.046 372.301 162.427 329.619 165.893 321.548C169.358 313.477 171.661 311.163 171.661 311.163" fill="#263238"/>
<path d="M177.977 299.82C184.969 309.312 189.394 320.448 190.825 332.15C192.899 351.063 181.819 363.523 179.516 375.527C177.213 387.531 182.514 397.666 179.06 410.126C175.606 422.586 172.14 434.773 169.86 441.693C167.58 448.613 164.878 457.527 164.878 457.527C163.633 458.497 162.075 458.976 160.501 458.873C157.502 458.873 157.081 458.873 157.081 458.873C157.081 458.873 162.199 407.835 162.427 396.298C162.655 384.761 164.046 372.301 164.046 372.301C164.046 372.301 162.427 329.619 165.893 321.548C169.358 313.477 171.661 311.163 171.661 311.163" stroke="#263238" stroke-linecap="round" stroke-linejoin="round"/>
<path d="M162.427 388.17C162.427 381.387 162.507 371.663 162.781 364.389C163.259 351.998 164.217 322.46 170.886 314.366" stroke="white" stroke-linecap="round" stroke-linejoin="round"/>
<path d="M162.439 396.241C162.439 396.241 162.439 394.964 162.439 392.821" stroke="white" stroke-linecap="round" stroke-linejoin="round"/>
<path d="M151.825 316.27C151.825 316.27 156.796 329.152 164.844 332.287" stroke="white" stroke-linecap="round" stroke-linejoin="round"/>
<path d="M148.827 245.351C147.163 245.138 145.474 245.474 144.018 246.307C142.562 247.14 141.416 248.425 140.756 249.968C138.214 255.497 127.452 277.328 127.452 280.052C127.452 282.777 130.473 290.381 135.432 286.185C138.362 283.723 146.741 266.11 146.741 266.11" fill="#5878DB"/>
<path d="M148.827 245.351C147.163 245.138 145.474 245.474 144.018 246.307C142.562 247.14 141.416 248.425 140.756 249.968C138.214 255.497 127.452 277.328 127.452 280.052C127.452 282.777 130.473 290.381 135.432 286.185C138.362 283.723 146.741 266.11 146.741 266.11" stroke="#263238" stroke-linecap="round" stroke-linejoin="round"/>
<path d="M187.131 251.609C184.999 245.009 172.026 244.667 171.023 244.45C171.023 244.45 170.578 245.123 170.578 243.663C170.578 242.204 171.353 236.732 171.353 236.732C171.353 236.732 162.518 236.732 161.093 233.597C161.093 233.597 160.865 241.201 159.862 244.108C158.386 244.902 156.71 245.246 155.04 245.1C151.688 245.1 146.148 243.755 144.472 248.337C144.363 248.65 144.276 248.97 144.21 249.295C143.389 252.339 140.893 261.835 140.596 265.939C140.402 268.686 141.953 274.056 143.366 278.274C143.469 281.318 143.617 283.905 143.788 285.593C144.575 293.082 144.119 302.761 146.581 304.334C149.044 305.907 167.534 308.552 173.348 306.09C179.162 303.627 178.809 296.776 178.809 293.55C178.809 290.324 189.24 258.21 187.131 251.609Z" fill="#5878DB" stroke="#263238" stroke-linecap="round" stroke-linejoin="round"/>
<path d="M155.165 267.193C155.165 267.193 156.59 273.395 164.217 276.724" stroke="#263238" stroke-linecap="round" stroke-linejoin="round"/>
<path d="M178.706 245.647C176.176 245.084 173.608 244.703 171.023 244.507C171.023 244.507 170.578 245.18 170.578 243.72C170.578 242.261 171.353 236.789 171.353 236.789C171.353 236.789 162.518 236.789 161.093 233.654C161.093 233.654 160.865 241.258 159.862 244.165C159.862 244.165 156.613 244.803 153.535 245.157C154.071 248.337 156.077 255.006 163.556 255.816C170.065 256.5 175.663 250.059 178.706 245.647Z" fill="white" stroke="#263238" stroke-linecap="round" stroke-linejoin="round"/>
<path d="M172.471 210.102C172.471 210.102 166.885 215.802 160.284 216.486C160.284 216.486 157.594 226.438 159.942 233.153C162.29 239.867 166.44 240.87 169.678 239.993C175.195 238.476 179.527 227.247 180.747 222.995C180.747 222.972 174.42 216.372 172.471 210.102Z" fill="white" stroke="#263238" stroke-linecap="round" stroke-linejoin="round"/>
<path d="M157.092 458.816C157.092 458.816 153.216 468.05 151.928 470.808C150.64 473.567 146.023 474.878 147.869 476.508C149.716 478.139 157.651 475.961 160.968 473.373C164.285 470.786 165.767 470.056 166.326 467.468C166.885 464.88 164.844 457.505 164.844 457.505C162.379 458.476 159.739 458.923 157.092 458.816Z" fill="white" stroke="#263238" stroke-linecap="round" stroke-linejoin="round"/>
<path d="M150.605 279.448C150.605 279.448 144.814 272.813 144.449 272.186C144.085 271.559 134.794 268.573 134.794 268.573C134.588 269.151 134.588 269.783 134.794 270.362C135.158 270.989 141.121 272.563 141.121 272.563L141.656 273.349L133.448 272.209C133.448 272.209 132.001 272.46 132.388 273.406C132.776 274.352 141.508 275.606 141.508 275.606L132.582 276.005C132.7 276.44 132.943 276.829 133.282 277.126C133.621 277.422 134.04 277.611 134.486 277.67C135.945 277.738 139.513 277.522 139.513 277.522C139.513 277.522 135.318 278.103 136.207 279.186C137.096 280.269 141.565 279.015 141.565 279.015L145.122 281.227L148.702 283.769L150.605 279.448Z" fill="white" stroke="#263238" stroke-linecap="round" stroke-linejoin="round"/>
<path d="M180.12 259.019L174.146 283.769C174.146 283.769 158.357 281.922 154.949 280.919C153.632 280.609 152.347 280.182 151.107 279.642L148.61 283.86C148.61 283.86 159.6 290.506 168.424 293.493C177.247 296.48 180.359 298.896 182.639 295.055C184.919 291.213 188.898 267.9 190.038 260.079C191.178 252.259 189.89 249.694 187.336 248.679C185.439 247.993 183.486 247.47 181.499 247.118" fill="#5878DB"/>
<path d="M180.12 259.019L174.146 283.769C174.146 283.769 158.357 281.922 154.949 280.919C153.632 280.609 152.347 280.182 151.107 279.642L148.61 283.86C148.61 283.86 159.6 290.506 168.424 293.493C177.247 296.48 180.359 298.896 182.639 295.055C184.919 291.213 188.898 267.9 190.038 260.079C191.178 252.259 189.89 249.694 187.336 248.679C185.439 247.993 183.486 247.47 181.499 247.118" stroke="#263238" stroke-linecap="round" stroke-linejoin="round"/>
<path d="M131.488 276.746L164.981 281.306L163.841 285.627C155.627 287.539 147.276 288.797 138.863 289.389C124.397 290.027 126.323 280.269 128.843 275.891" fill="#5878DB"/>
<path d="M131.488 276.746L164.981 281.306L163.841 285.627C155.627 287.539 147.276 288.797 138.863 289.389C124.397 290.027 126.323 280.269 128.843 275.891" stroke="#263238" stroke-linecap="round" stroke-linejoin="round"/>
<path d="M164.981 281.34C164.981 281.34 173.645 279.345 174.317 279.06C174.99 278.775 184.156 282.173 184.156 282.173C184.156 282.173 183.768 283.313 183.084 283.609C182.4 283.905 176.757 281.454 176.757 281.454L175.845 281.739L182.993 285.923C182.993 285.923 183.973 287.063 183.084 287.519C182.195 287.975 174.58 283.643 174.58 283.643L181.42 289.469C181.059 289.739 180.625 289.897 180.175 289.921C179.724 289.945 179.277 289.836 178.889 289.605C177.692 288.762 175.024 286.391 175.024 286.391C175.024 286.391 177.965 289.434 176.597 289.742C175.229 290.05 172.493 286.322 172.493 286.322L168.321 285.878L163.943 285.672L164.981 281.34Z" fill="white" stroke="#263238" stroke-linecap="round" stroke-linejoin="round"/>
</svg>
