<svg width="48" height="57" viewBox="0 0 48 57" fill="none" xmlns="http://www.w3.org/2000/svg">
<path d="M1.23896 42.7924L6.75114 36.9203C9.2965 34.2102 11.0613 30.853 11.8547 27.2153L13.1462 21.2933C14.7766 13.817 21.1225 8.58636 28.3587 8.04217L29.2834 3.80211C29.8517 1.19659 32.4232 -0.458124 35.0172 0.112632C37.6111 0.683388 39.2585 3.26641 38.6903 5.87192L37.7656 10.112C44.1126 13.645 47.7003 21.0613 46.0698 28.5376L44.7783 34.4596C43.985 38.0973 44.1915 41.8857 45.3735 45.4161L47.9369 53.0651C48.0758 53.4794 47.9816 53.9339 47.6914 54.2587C47.4012 54.5835 46.9632 54.7273 46.5399 54.6342L1.85785 44.8026C1.43454 44.7095 1.09416 44.3945 0.965187 43.9799C0.836239 43.5652 0.943245 43.1085 1.23896 42.7924Z" fill="#5878DB" fill-opacity="0.9"/>
<path d="M31.0892 53.7099C29.156 56.2007 25.9246 57.5246 22.6535 56.8048C19.3824 56.085 16.9978 53.5255 16.2783 50.451L31.0892 53.7099Z" fill="#5878DB" fill-opacity="0.9"/>
</svg>
