<svg width="65" height="65" viewBox="0 0 65 65" fill="none" xmlns="http://www.w3.org/2000/svg">
<g clip-path="url(#clip0)">
<path d="M53.122 42.789C51.0797 41.6051 49.7021 39.3966 49.7021 36.8709V21.5677C49.7021 15.1406 44.9501 9.80294 38.7751 8.88253V6.27517C38.775 2.81506 35.9601 0 32.4999 0C29.0398 0 26.2248 2.81506 26.2248 6.27517V8.88253C20.0498 9.80294 15.2978 15.1406 15.2978 21.5677V36.8709C15.2978 39.3966 13.9202 41.6052 11.8779 42.789H53.122Z" fill="#5878DB" fill-opacity="0.7"/>
<path d="M6.55621 46.5976V56.2584H26.2248V58.725C26.2248 62.1849 29.0399 65 32.5 65C35.9601 65 38.7751 62.1849 38.7751 58.7248V56.2583H58.4439V46.5975H6.55621V46.5976Z" fill="#5878DB" fill-opacity="0.7"/>
</g>
<defs>
<clipPath id="clip0">
<rect width="65" height="65" fill="white"/>
</clipPath>
</defs>
</svg>
