<svg width="65" height="65" viewBox="0 0 65 65" fill="none" xmlns="http://www.w3.org/2000/svg">
<path d="M65 21.4551C65 17.2136 65 14.2463 65 13.9648C65 10.8148 62.4372 8.25195 59.2871 8.25195H58.5254V15.2344C58.5254 16.2861 57.6728 17.1387 56.6211 17.1387C55.5694 17.1387 54.7168 16.2861 54.7168 15.2344C54.7168 13.0966 54.7168 7.20687 54.7168 5.07812C54.7168 4.02645 53.8642 3.17383 52.8125 3.17383C51.7608 3.17383 50.9082 4.02645 50.9082 5.07812V8.25195H38.2129V15.2344C38.2129 16.2861 37.3603 17.1387 36.3086 17.1387C35.2569 17.1387 34.4043 16.2861 34.4043 15.2344C34.4043 13.0966 34.4043 7.20687 34.4043 5.07812C34.4043 4.02645 33.5517 3.17383 32.5 3.17383C31.4483 3.17383 30.5957 4.02645 30.5957 5.07812V8.25195H17.9004V15.2344C17.9004 16.2861 17.0478 17.1387 15.9961 17.1387C14.9444 17.1387 14.0918 16.2861 14.0918 15.2344C14.0918 13.0966 14.0918 7.20687 14.0918 5.07812C14.0918 4.02645 13.2392 3.17383 12.1875 3.17383C11.1358 3.17383 10.2832 4.02645 10.2832 5.07812V8.25195H5.71289C2.5628 8.25195 0 10.8148 0 13.9648V21.4551H65Z" fill="#5878DB" fill-opacity="0.7"/>
<path d="M0 25.2637V56.1133C0 59.2634 2.5628 61.8262 5.71289 61.8262H59.2871C62.4372 61.8262 65 59.2634 65 56.1133C65 55.2976 65 37.475 65 25.2637C63.8149 25.2637 0.655586 25.2637 0 25.2637ZM18.2812 51.6699H14.2188C13.1671 51.6699 12.3145 50.8173 12.3145 49.7656C12.3145 48.7139 13.1671 47.8613 14.2188 47.8613H18.2812C19.3329 47.8613 20.1855 48.7139 20.1855 49.7656C20.1855 50.8173 19.3329 51.6699 18.2812 51.6699ZM18.2812 43.5449H14.2188C13.1671 43.5449 12.3145 42.6923 12.3145 41.6406C12.3145 40.5889 13.1671 39.7363 14.2188 39.7363H18.2812C19.3329 39.7363 20.1855 40.5889 20.1855 41.6406C20.1855 42.6923 19.3329 43.5449 18.2812 43.5449ZM18.2812 35.4199H14.2188C13.1671 35.4199 12.3145 34.5673 12.3145 33.5156C12.3145 32.4639 13.1671 31.6113 14.2188 31.6113H18.2812C19.3329 31.6113 20.1855 32.4639 20.1855 33.5156C20.1855 34.5673 19.3329 35.4199 18.2812 35.4199ZM34.5312 51.6699H30.4688C29.4171 51.6699 28.5645 50.8173 28.5645 49.7656C28.5645 48.7139 29.4171 47.8613 30.4688 47.8613H34.5312C35.5829 47.8613 36.4355 48.7139 36.4355 49.7656C36.4355 50.8173 35.5829 51.6699 34.5312 51.6699ZM34.5312 43.5449H30.4688C29.4171 43.5449 28.5645 42.6923 28.5645 41.6406C28.5645 40.5889 29.4171 39.7363 30.4688 39.7363H34.5312C35.5829 39.7363 36.4355 40.5889 36.4355 41.6406C36.4355 42.6923 35.5829 43.5449 34.5312 43.5449ZM34.5312 35.4199H30.4688C29.4171 35.4199 28.5645 34.5673 28.5645 33.5156C28.5645 32.4639 29.4171 31.6113 30.4688 31.6113H34.5312C35.5829 31.6113 36.4355 32.4639 36.4355 33.5156C36.4355 34.5673 35.5829 35.4199 34.5312 35.4199ZM50.7812 51.6699H46.7188C45.6671 51.6699 44.8145 50.8173 44.8145 49.7656C44.8145 48.7139 45.6671 47.8613 46.7188 47.8613H50.7812C51.8329 47.8613 52.6855 48.7139 52.6855 49.7656C52.6855 50.8173 51.8329 51.6699 50.7812 51.6699ZM50.7812 43.5449H46.7188C45.6671 43.5449 44.8145 42.6923 44.8145 41.6406C44.8145 40.5889 45.6671 39.7363 46.7188 39.7363H50.7812C51.8329 39.7363 52.6855 40.5889 52.6855 41.6406C52.6855 42.6923 51.8329 43.5449 50.7812 43.5449ZM50.7812 35.4199H46.7188C45.6671 35.4199 44.8145 34.5673 44.8145 33.5156C44.8145 32.4639 45.6671 31.6113 46.7188 31.6113H50.7812C51.8329 31.6113 52.6855 32.4639 52.6855 33.5156C52.6855 34.5673 51.8329 35.4199 50.7812 35.4199Z" fill="#5878DB" fill-opacity="0.7"/>
</svg>
