<svg width="599" height="444" viewBox="0 0 599 444" fill="none" xmlns="http://www.w3.org/2000/svg">
<g clip-path="url(#clip0)">
<path d="M431.046 263.396L435.759 260.488C436.206 260.204 436.648 259.901 437.102 259.617C426.996 257.878 417.786 252.74 410.997 245.051C404.208 237.363 400.248 227.587 399.771 217.34C399.424 210.293 400.756 203.264 403.656 196.833C406.357 190.815 410.344 185.463 415.337 181.155C420.33 176.846 426.207 173.686 432.554 171.896L432.321 190.447L442.508 170.255C442.55 170.249 442.593 170.249 442.634 170.255C448.538 169.979 454.438 170.87 459.998 172.875C465.557 174.88 470.668 177.961 475.037 181.942C479.406 185.923 482.949 190.726 485.462 196.076C487.976 201.426 489.411 207.22 489.687 213.125C489.724 213.983 489.687 214.829 489.687 215.649C493.232 211.604 496.449 207.269 498.581 202.518C502.896 192.895 502.997 181.998 502.637 168.753C501.956 142.504 500.827 116.059 499.351 89.6897C488.714 88.508 478.846 83.5709 471.522 75.7653C464.197 67.9598 459.895 57.7974 459.389 47.1038C459.326 45.7219 459.345 44.3653 459.389 43.015C459.389 42.6805 459.389 42.3398 459.439 42.0054C459.527 40.6992 459.647 39.4057 459.849 38.1311C459.849 37.9165 459.925 37.7146 459.963 37.5001C460.148 36.419 460.369 35.3505 460.625 34.2946C460.726 33.9034 460.821 33.5059 460.928 33.1147C461.243 31.9662 461.559 30.8368 461.994 29.7199C462.126 29.3476 462.284 28.9879 462.423 28.622C462.745 27.8017 463.092 26.994 463.457 26.1926C463.653 25.7699 463.842 25.3534 464.05 24.9306C464.101 24.8234 464.145 24.7161 464.202 24.6088C468.951 15.2249 476.838 7.80246 486.491 3.63168C496.144 -0.539105 506.953 -1.1945 517.039 1.77942L516.736 25.9213L526.829 5.98185C535.108 10.722 541.654 17.9858 545.513 26.7122C549.372 35.4386 550.34 45.1705 548.276 54.4865H548.327C548.258 54.8083 548.157 55.1175 548.081 55.433C547.942 56.0261 547.791 56.6129 547.627 57.1998C547.412 57.9506 547.172 58.6889 546.926 59.4272C546.737 59.9761 546.554 60.5377 546.346 61.0804C546.043 61.8754 545.715 62.6516 545.349 63.4277C545.148 63.882 544.965 64.3426 544.719 64.7906C544.142 65.9517 543.512 67.0874 542.826 68.198C542.593 68.5829 542.328 68.9489 542.082 69.3338C541.602 70.0784 541.117 70.8166 540.593 71.536C540.271 71.9777 539.924 72.4004 539.584 72.8358C539.092 73.4668 538.587 74.0978 538.064 74.672C537.691 75.0948 537.313 75.5112 536.922 75.934C536.373 76.5145 535.805 77.0761 535.219 77.6314C534.834 78.0037 534.443 78.376 534.039 78.7293C533.377 79.3161 532.683 79.8777 531.983 80.4267C531.629 80.7043 531.289 80.9946 530.923 81.2596C529.859 82.0505 528.759 82.7929 527.624 83.487C527.409 83.6132 527.182 83.7205 526.993 83.8467C526.047 84.4083 525.1 84.932 524.085 85.4242C523.662 85.6324 523.221 85.8154 522.785 86.011C521.972 86.377 521.151 86.7303 520.313 87.0521C519.827 87.2351 519.328 87.4055 518.83 87.5759C518.004 87.8598 517.165 88.1185 516.307 88.352C515.802 88.4908 515.304 88.6296 514.793 88.7495C513.872 88.9704 512.932 89.1534 511.986 89.3111C511.923 89.3111 511.866 89.3111 511.803 89.349C512.425 100.471 512.978 111.6 513.462 122.735C516.145 117.225 519.925 112.322 524.571 108.326C529.216 104.33 534.628 101.326 540.476 99.4968C546.324 97.6681 552.483 97.0538 558.577 97.6916C564.671 98.3294 570.57 100.206 575.912 103.206L567.958 125.007L584.321 109.288C593.08 117.319 598.298 128.498 598.83 140.371C599.038 144.538 598.653 148.712 597.688 152.77C595.632 161.552 590.986 169.513 584.351 175.621C577.716 181.729 569.4 185.701 560.481 187.023C551.561 188.344 542.451 186.954 534.331 183.033C526.211 179.111 519.457 172.839 514.944 165.031C514.944 166.16 515.026 167.296 515.058 168.425C515.354 180.111 515.727 194.649 509.904 207.635C505.962 216.438 499.609 223.587 493.333 229.992C489.251 234.162 485.019 238.194 480.679 242.1C476.411 247.832 470.841 252.465 464.429 255.616C457.301 261.11 449.92 266.255 442.287 271.05L437.651 274.041C433.368 276.698 428.977 279.424 424.669 282.244C425.426 282.169 426.176 282.087 426.946 282.055C436.483 281.608 445.915 284.205 453.879 289.471C461.844 294.738 467.929 302.4 471.254 311.352L443.133 334.251L474.042 327.077C474.034 334.689 472.097 342.175 468.412 348.835C464.726 355.495 459.414 361.112 452.97 365.161C446.526 369.21 439.161 371.559 431.563 371.989C423.965 372.419 416.382 370.915 409.523 367.618C410.217 368.489 410.917 369.353 411.611 370.218C412.992 371.94 414.368 373.65 415.711 375.348C434.005 398.524 439.102 420.533 430.037 437.311L419.023 431.355C427.854 415.025 414.607 394.126 405.883 383.109C404.565 381.443 403.215 379.765 401.852 378.061C390.163 363.548 376.916 347.066 377.251 326.868C377.724 296.454 407.303 278.111 431.046 263.396Z" fill="#F2F2F2"/>
<path d="M287.335 444C446.025 444 574.67 438.067 574.67 430.749C574.67 423.431 446.025 417.498 287.335 417.498C128.644 417.498 0 423.431 0 430.749C0 438.067 128.644 444 287.335 444Z" fill="#3F3D56"/>
<path d="M519.467 425.808C521.36 422.332 519.215 418.072 516.767 414.968C514.32 411.863 511.336 408.658 511.399 404.689C511.487 399.01 517.512 395.659 522.331 392.65C525.9 390.414 529.193 387.764 532.14 384.756C533.377 383.598 534.4 382.231 535.162 380.717C536.152 378.496 536.127 375.972 536.064 373.537C535.854 365.435 535.454 357.341 534.865 349.256" stroke="#3F3D56" stroke-width="4" stroke-miterlimit="10"/>
<path d="M544.018 348.827C543.948 347.344 543.507 345.903 542.735 344.636C541.964 343.368 540.887 342.314 539.603 341.57L537.622 345.495L537.679 340.75C536.324 340.344 534.891 340.27 533.502 340.533C532.112 340.796 530.806 341.389 529.693 342.262C528.581 343.135 527.694 344.263 527.107 345.55C526.521 346.838 526.252 348.247 526.324 349.66C526.434 352.003 527.471 354.206 529.205 355.784C530.064 356.566 531.068 357.171 532.16 357.564C533.253 357.958 534.412 358.132 535.572 358.077C536.732 358.023 537.869 357.74 538.92 357.245C539.97 356.751 540.913 356.054 541.695 355.195C542.476 354.336 543.081 353.332 543.474 352.239C543.867 351.147 544.042 349.987 543.987 348.827H544.018Z" fill="#57B793"/>
<path d="M528.229 408.771C527.302 410.573 525.784 412.001 523.93 412.816C522.076 413.631 519.998 413.783 518.044 413.248C516.091 412.713 514.381 411.523 513.2 409.876C512.02 408.23 511.441 406.228 511.561 404.205C511.681 402.183 512.492 400.263 513.859 398.768C515.225 397.272 517.064 396.292 519.067 395.992C521.07 395.691 523.116 396.089 524.861 397.117C526.606 398.146 527.944 399.743 528.652 401.641L523.126 406.14L529.207 404.727C529.208 406.134 528.872 407.52 528.229 408.771Z" fill="#57B793"/>
<path d="M523.858 391.552C522.696 391.608 521.535 391.433 520.441 391.039C519.347 390.645 518.341 390.039 517.482 389.255C516.623 388.471 515.927 387.525 515.434 386.472C514.941 385.418 514.661 384.277 514.61 383.115C514.54 381.73 514.801 380.347 515.373 379.083C515.903 377.9 516.686 376.847 517.667 375.998C518.648 375.15 519.803 374.527 521.051 374.174L521.006 377.827L523.012 373.852C525.359 373.743 527.653 374.57 529.389 376.152C531.126 377.734 532.163 379.942 532.273 382.289C532.382 384.636 531.555 386.93 529.974 388.667C528.392 390.405 526.185 391.442 523.839 391.552H523.858Z" fill="#57B793"/>
<path d="M545.349 377.222C543.007 377.332 540.717 376.507 538.983 374.929C537.248 373.35 536.212 371.147 536.102 368.804C535.991 366.461 536.816 364.171 538.394 362.436C539.972 360.701 542.175 359.664 544.517 359.554C546.172 359.472 547.817 359.862 549.26 360.677L547.696 364.968L550.913 361.876C552.64 363.454 553.67 365.653 553.777 367.99C553.817 368.809 553.741 369.629 553.55 370.426C553.108 372.297 552.069 373.973 550.589 375.199C549.109 376.426 547.269 377.136 545.349 377.222Z" fill="#57B793"/>
<path opacity="0.1" d="M542.826 351.162C540.782 351.389 538.795 352.026 536.745 352.152C534.695 352.278 532.443 351.786 531.143 350.19C530.443 349.332 530.096 348.246 529.503 347.313C528.945 346.44 528.18 345.718 527.277 345.211C526.742 346.328 526.449 347.545 526.415 348.783C526.381 350.02 526.608 351.251 527.081 352.396C527.553 353.54 528.261 354.572 529.158 355.425C530.055 356.279 531.121 356.934 532.287 357.348C533.454 357.762 534.694 357.927 535.928 357.831C537.162 357.735 538.362 357.38 539.451 356.791C540.539 356.201 541.491 355.389 542.245 354.407C543 353.425 543.539 352.296 543.829 351.092C543.488 351.105 543.154 351.13 542.826 351.162Z" fill="black"/>
<path opacity="0.1" d="M545.349 377.222C543.823 377.299 542.302 376.979 540.936 376.292C539.57 375.605 538.405 374.576 537.557 373.304C536.708 372.032 536.204 370.561 536.094 369.036C535.983 367.51 536.271 365.983 536.928 364.602C537.631 365.076 538.235 365.683 538.707 366.388C539.338 367.34 539.716 368.438 540.461 369.315C541.836 370.937 544.195 371.467 546.333 371.366C548.472 371.265 550.528 370.666 552.642 370.47C552.932 370.47 553.235 370.42 553.531 370.413C553.093 372.284 552.057 373.96 550.581 375.189C549.104 376.417 547.268 377.131 545.349 377.222Z" fill="black"/>
<path opacity="0.1" d="M523.858 391.552C522.696 391.608 521.535 391.433 520.441 391.039C519.347 390.645 518.341 390.039 517.482 389.255C516.623 388.471 515.927 387.525 515.434 386.472C514.941 385.418 514.661 384.277 514.61 383.115C514.54 381.73 514.801 380.347 515.373 379.083C516.107 379.563 516.749 380.173 517.266 380.882C517.953 381.853 518.382 382.97 519.158 383.866C520.653 385.532 523.164 386.119 525.428 386.062C527.693 386.005 529.731 385.475 531.913 385.311C531.374 387.053 530.312 388.587 528.871 389.704C527.429 390.821 525.679 391.466 523.858 391.552Z" fill="black"/>
<path opacity="0.1" d="M528.229 408.772C527.753 409.832 527.072 410.788 526.227 411.585C525.381 412.382 524.387 413.005 523.3 413.418C522.214 413.83 521.057 414.025 519.896 413.991C518.734 413.956 517.591 413.693 516.531 413.217C515.471 412.74 514.515 412.06 513.718 411.214C512.921 410.368 512.299 409.373 511.886 408.287C511.473 407.2 511.279 406.043 511.313 404.881C511.348 403.719 511.61 402.575 512.087 401.515C512.814 401.998 513.468 402.583 514.03 403.25C514.869 404.279 515.424 405.44 516.402 406.405C518.212 408.178 521.133 408.929 523.732 408.98C525.234 408.999 526.735 408.93 528.229 408.772Z" fill="black"/>
<path d="M506.119 421.802C506.119 421.802 513.102 421.587 515.209 420.085C517.316 418.583 525.933 416.791 526.482 419.202C527.031 421.612 536.985 431.191 529.093 431.229C521.202 431.267 510.762 429.967 508.661 428.705C506.561 427.443 506.119 421.802 506.119 421.802Z" fill="#656380"/>
<path opacity="0.2" d="M529.232 430.389C521.347 430.453 510.901 429.127 508.8 427.865C507.204 426.894 506.561 423.392 506.353 421.776H506.119C506.119 421.776 506.561 427.411 508.643 428.717C510.724 430.023 521.183 431.292 529.074 431.241C531.352 431.241 532.14 430.408 532.096 429.209C531.8 429.922 530.929 430.377 529.232 430.389Z" fill="black"/>
<path d="M122.636 406.342C118.056 397.862 123.267 387.475 129.222 379.916C135.177 372.357 142.469 364.495 142.311 354.859C142.084 341.015 127.399 332.844 115.666 325.505C106.959 320.059 98.9278 313.601 91.739 306.266C88.8562 303.32 86.0617 300.177 84.3837 296.416C81.9614 291.003 82.0245 284.85 82.1822 278.919C82.6868 259.148 83.6625 239.414 85.1092 219.719" stroke="#3F3D56" stroke-width="4" stroke-miterlimit="10"/>
<path d="M62.7973 218.64C62.9701 215.028 64.0472 211.517 65.9297 208.43C67.8123 205.343 70.44 202.779 73.5716 200.972L78.4036 210.532L78.2585 198.959C82.6483 197.665 87.3356 197.8 91.6436 199.345C95.9516 200.89 99.6574 203.764 102.226 207.553C104.794 211.341 106.093 215.849 105.933 220.424C105.774 224.999 104.165 229.404 101.339 233.005C98.513 236.606 94.6162 239.215 90.2111 240.456C85.806 241.697 81.1207 241.505 76.8316 239.908C72.5426 238.312 68.8717 235.393 66.3491 231.574C63.8265 227.754 62.5827 223.232 62.7973 218.659V218.64Z" fill="#57B793"/>
<path d="M101.289 364.753C103.46 368.984 106.966 372.379 111.263 374.411C115.56 376.443 120.408 376.999 125.054 375.992C129.699 374.984 133.882 372.471 136.953 368.841C140.023 365.211 141.809 360.669 142.034 355.919C142.184 352.934 141.705 349.949 140.627 347.161C139.051 343.071 136.268 339.558 132.648 337.089C129.028 334.619 124.742 333.31 120.36 333.335C115.979 333.361 111.708 334.719 108.117 337.23C104.526 339.742 101.784 343.287 100.255 347.395L113.735 358.361L98.905 354.91C98.8989 358.335 99.7167 361.711 101.289 364.753Z" fill="#57B793"/>
<path d="M111.944 322.843C117.236 323.085 122.433 321.371 126.544 318.029C130.655 314.687 133.394 309.95 134.24 304.718C135.085 299.487 133.978 294.127 131.129 289.659C128.279 285.192 123.887 281.928 118.788 280.49L118.902 289.381L114.044 279.708H113.988C108.269 279.441 102.678 281.457 98.4448 285.314C94.212 289.17 91.6841 294.551 91.4173 300.272C91.1504 305.993 93.1665 311.585 97.0219 315.819C100.877 320.053 106.256 322.582 111.975 322.849L111.944 322.843Z" fill="#57B793"/>
<path d="M59.5486 287.967C62.8902 288.13 66.2238 287.514 69.2864 286.167C72.349 284.82 75.0568 282.78 77.196 280.207C79.3351 277.634 80.8472 274.599 81.6127 271.341C82.3782 268.084 82.3763 264.693 81.6071 261.436C80.8379 258.179 79.3225 255.146 77.1804 252.575C75.0384 250.004 72.3283 247.967 69.2642 246.624C66.2001 245.28 62.8657 244.668 59.5244 244.834C56.183 245.001 52.9261 245.942 50.0108 247.584L53.7956 258.039L45.9799 250.486C43.8905 252.388 42.1966 254.683 40.9952 257.241C39.7937 259.798 39.1082 262.568 38.9779 265.39C38.8777 267.388 39.0625 269.389 39.5267 271.334C40.5996 275.909 43.1353 280.008 46.7488 283.01C50.3623 286.012 54.8564 287.752 59.5486 287.967Z" fill="#57B793"/>
<path opacity="0.1" d="M65.6991 224.395C70.6825 224.944 75.5271 226.49 80.5232 226.799C85.5192 227.108 91.0136 225.915 94.1739 222.028C95.8771 219.933 96.7287 217.283 98.167 214.999C99.5298 212.871 101.398 211.113 103.605 209.882C104.979 212.618 105.755 215.615 105.883 218.675C106.011 221.734 105.486 224.786 104.345 227.627C103.203 230.468 101.471 233.034 99.262 235.154C97.0533 237.274 94.4191 238.9 91.5342 239.924C88.6493 240.948 85.5796 241.347 82.5289 241.093C79.4783 240.84 76.5164 239.94 73.8398 238.454C71.1633 236.968 68.8333 234.93 67.0045 232.474C65.1757 230.019 63.89 227.202 63.2326 224.212C64.0716 224.25 64.8916 224.306 65.6991 224.395Z" fill="black"/>
<path opacity="0.1" d="M59.5486 287.967C63.2681 288.139 66.9688 287.346 70.2914 285.665C73.6141 283.984 76.4459 281.472 78.5121 278.374C80.5782 275.275 81.8084 271.695 82.0834 267.981C82.3584 264.266 81.6688 260.544 80.0815 257.175C78.3678 258.328 76.8939 259.802 75.7416 261.516C74.2024 263.838 73.2751 266.52 71.4646 268.653C68.1024 272.603 62.362 273.896 57.1515 273.663C51.941 273.429 46.9135 271.94 41.7282 271.467C41.0091 271.404 40.2773 271.353 39.5519 271.334C40.6236 275.905 43.1555 280.001 46.764 283.003C50.3725 286.004 54.8607 287.747 59.5486 287.967Z" fill="black"/>
<path opacity="0.1" d="M111.944 322.843C115.627 323.016 119.293 322.242 122.592 320.595C125.892 318.948 128.714 316.483 130.79 313.434C132.866 310.386 134.127 306.857 134.452 303.183C134.777 299.509 134.156 295.813 132.647 292.448C130.87 293.629 129.324 295.126 128.086 296.864C126.408 299.231 125.361 301.957 123.399 304.14C119.76 308.197 113.641 309.629 108.121 309.497C102.778 309.383 97.6308 308.071 92.3193 307.661C93.6343 311.902 96.2237 315.635 99.7352 318.351C103.247 321.068 107.51 322.636 111.944 322.843Z" fill="black"/>
<path opacity="0.1" d="M101.289 364.753C103.459 368.984 106.966 372.379 111.263 374.411C115.56 376.443 120.408 376.999 125.054 375.992C129.699 374.984 133.882 372.471 136.953 368.841C140.023 365.211 141.809 360.669 142.034 355.919C142.184 352.934 141.705 349.949 140.627 347.161C138.851 348.328 137.257 349.75 135.896 351.382C133.846 353.906 132.489 356.721 130.118 359.055C125.702 363.384 118.58 365.176 112.24 365.365C108.581 365.378 104.924 365.174 101.289 364.753Z" fill="black"/>
<path d="M272.019 418.949L188.752 435.986L186.859 435.797L113.685 428.414V335.658L203.26 320.514L268.234 328.086L268.253 328.496L268.259 328.698L272.019 418.949Z" fill="#5878DB"/>
<path opacity="0.1" d="M272.019 418.949L188.752 435.986L186.859 435.797V340.706L268.253 328.496L272.019 418.949Z" fill="black"/>
<path opacity="0.05" d="M268.259 328.698L268.234 328.717L186.859 340.706L113.685 335.658L203.26 320.514L268.234 328.086L268.253 328.496L268.259 328.698Z" fill="black"/>
<path d="M363.486 422.735L280.219 439.772L278.327 439.583L205.153 432.2V339.444L294.728 324.3L359.702 331.872L359.721 332.282L359.727 332.484L363.486 422.735Z" fill="#3F3D56"/>
<path opacity="0.1" d="M363.486 422.735L280.219 439.772L278.327 439.583V344.492L359.72 332.282L363.486 422.735Z" fill="black"/>
<path opacity="0.05" d="M359.727 332.484L359.702 332.503L278.327 344.492L205.153 339.444L294.728 324.3L359.702 331.872L359.721 332.282L359.727 332.484Z" fill="black"/>
<path d="M306.083 331.872L222.815 348.909L220.923 348.72L147.749 341.337V248.581L237.324 233.437L302.298 241.009L302.317 241.419L302.323 241.621L306.083 331.872Z" fill="#3F3D56"/>
<path opacity="0.1" d="M306.083 331.872L222.815 348.909L220.923 348.72V253.629L302.317 241.419L306.083 331.872Z" fill="black"/>
<path opacity="0.05" d="M302.323 241.621L302.298 241.64L220.923 253.629L147.749 248.581L237.324 233.437L302.298 241.009L302.317 241.419L302.323 241.621Z" fill="black"/>
<path d="M353.393 335.759L309.937 344.656L308.946 344.555L270.757 340.7V292.29L317.507 284.383L351.419 288.34L351.432 288.554V288.655L353.393 335.759Z" fill="#3F3D56"/>
<path opacity="0.1" d="M353.393 335.759L309.937 344.656L308.946 344.555V294.927L351.432 288.554L353.393 335.759Z" fill="black"/>
<path opacity="0.05" d="M351.432 288.655L351.419 288.668L308.946 294.927L270.757 292.29L317.507 284.383L351.419 288.34L351.432 288.554V288.655Z" fill="black"/>
<path d="M236.693 241.741L193.237 250.631L192.246 250.537L154.057 246.681V198.271L200.806 190.365L234.719 194.321L234.731 194.536V194.637L236.693 241.741Z" fill="#3F3D56"/>
<path opacity="0.1" d="M236.693 241.741L193.237 250.631L192.246 250.537V200.909L234.731 194.536L236.693 241.741Z" fill="black"/>
<path opacity="0.05" d="M234.731 194.637L234.719 194.65L192.246 200.909L154.057 198.271L200.806 190.365L234.719 194.321L234.731 194.536V194.637Z" fill="black"/>
<path d="M313.021 239.848L269.565 248.738L268.574 248.644L230.385 244.788V196.378L277.135 188.472L311.047 192.428L311.06 192.643V192.744L313.021 239.848Z" fill="#5878DB"/>
<path opacity="0.1" d="M313.021 239.848L269.565 248.738L268.574 248.644V199.016L311.06 192.643L313.021 239.848Z" fill="black"/>
<path opacity="0.05" d="M311.06 192.744L311.047 192.757L268.574 199.016L230.385 196.378L277.135 188.472L311.047 192.428L311.06 192.643V192.744Z" fill="black"/>
<path d="M335.731 191.261L292.274 200.152L291.284 200.057L253.094 196.202V147.792L299.844 139.885L333.756 143.842L333.769 144.056V144.157L335.731 191.261Z" fill="#3F3D56"/>
<path opacity="0.1" d="M335.731 191.261L292.274 200.152L291.284 200.057V150.429L333.769 144.056L335.731 191.261Z" fill="black"/>
<path opacity="0.05" d="M333.769 144.157L333.756 144.17L291.284 150.429L253.094 147.792L299.844 139.885L333.756 143.842L333.769 144.056V144.157Z" fill="black"/>
<path d="M365.328 92.2957C364.868 96.3972 361.739 99.7036 360.578 103.654C358.837 109.617 361.84 116.021 365.978 120.691C369.313 124.401 373.351 127.412 377.858 129.55C382.364 131.688 387.25 132.911 392.232 133.146C393.696 133.272 395.17 133.112 396.572 132.673C397.821 132.165 398.946 131.394 399.872 130.414C402.975 127.291 404.647 122.968 405.309 118.608C405.972 114.248 405.719 109.812 405.461 105.414C405.46 104.504 405.294 103.601 404.969 102.751C404.546 101.943 403.965 101.228 403.259 100.65C401.022 98.5934 398.556 96.8002 395.91 95.3056C394.775 94.6746 393.557 94.0436 392.832 92.952C392.334 92.0827 392.01 91.1246 391.879 90.1314L391.066 85.9921C390.922 84.7986 390.514 83.652 389.873 82.6352C388.441 80.7043 385.697 80.4393 383.294 80.3447L374.463 79.9976C371.719 79.8904 368.11 79.1016 365.429 79.6443C362.906 80.1427 363.758 82.4522 364.212 84.5471C364.869 87.0808 365.243 89.6795 365.328 92.2957Z" fill="#FFC0C6"/>
<path opacity="0.1" d="M365.328 92.2957C364.868 96.3972 361.739 99.7036 360.578 103.654C358.837 109.617 361.84 116.021 365.978 120.691C369.313 124.401 373.351 127.412 377.858 129.55C382.364 131.688 387.25 132.911 392.232 133.146C393.696 133.272 395.17 133.112 396.572 132.673C397.821 132.165 398.946 131.394 399.872 130.414C402.975 127.291 404.647 122.968 405.309 118.608C405.972 114.248 405.719 109.812 405.461 105.414C405.46 104.504 405.294 103.601 404.969 102.751C404.546 101.943 403.965 101.228 403.259 100.65C401.022 98.5934 398.556 96.8002 395.91 95.3056C394.775 94.6746 393.557 94.0436 392.832 92.952C392.334 92.0827 392.01 91.1246 391.879 90.1314L391.066 85.9921C390.922 84.7986 390.514 83.652 389.873 82.6352C388.441 80.7043 385.697 80.4393 383.294 80.3447L374.463 79.9976C371.719 79.8904 368.11 79.1016 365.429 79.6443C362.906 80.1427 363.758 82.4522 364.212 84.5471C364.869 87.0808 365.243 89.6795 365.328 92.2957Z" fill="black"/>
<path d="M421.414 277.026L417.667 318.116C416.689 328.894 415.692 339.715 413.775 350.354C413.144 354.02 412.336 357.667 411.415 361.283C408.854 371.322 405.139 381.134 403.94 391.425C403.902 391.722 403.871 392.056 403.839 392.328C403.593 394.599 403.379 396.896 402.578 399.016C401.947 400.587 401.058 402.02 400.408 403.572C399.146 406.677 398.944 410.109 398.787 413.472C394.239 410.905 389.26 409.194 384.095 408.424C381.572 408.052 378.828 407.793 377.156 405.9C375.264 403.843 375.484 400.695 375.8 397.931C376.792 389.349 377.781 380.772 378.765 372.199C379.093 368.51 379.726 364.855 380.657 361.27C380.998 360.078 381.408 358.904 381.824 357.73C382.398 356.115 382.978 354.5 383.414 352.84C384.017 350.174 384.435 347.469 384.663 344.744C385.678 336.112 386.902 327.499 387.974 318.874L388.031 318.419C389.64 305.345 390.864 292.208 390.51 279.039C390.46 277.089 390.378 275.139 390.252 273.183C390.075 270.35 389.816 268.848 392.144 267.075C394.737 265.119 398.149 263.75 401.114 262.469C402.71 261.775 420.285 255.528 420.669 256.904C421.485 259.825 421.91 262.843 421.931 265.876C421.967 269.6 421.794 273.322 421.414 277.026Z" fill="#605D82"/>
<path opacity="0.1" d="M413.775 350.354C413.144 354.02 412.336 357.667 411.415 361.283C408.854 371.322 405.139 381.134 403.94 391.425C403.903 391.722 403.871 392.056 403.839 392.328C396.005 381.134 389.406 369.095 381.761 357.781C382.335 356.165 382.915 354.55 383.351 352.891C383.978 350.209 384.416 347.487 384.663 344.744C385.678 336.112 386.902 327.499 387.975 318.874L388.031 318.419C388.474 320.25 389.108 322.028 389.924 323.726C395.059 334.163 407.258 339.438 413.226 349.426C413.424 349.738 413.607 350.047 413.775 350.354Z" fill="black"/>
<path d="M350.201 258.595C350.46 266.962 351.797 275.259 353.135 283.525L355.891 300.562C357.399 309.901 358.976 319.423 363.392 327.783C366.697 334.043 371.454 339.381 375.762 344.991C386.347 358.784 394.302 374.414 404.338 388.611C407.258 392.738 411.428 397.205 416.405 396.341C419.673 395.779 422.045 393.053 424.606 390.959C427.634 388.485 431.28 386.674 433.664 383.57C436.049 380.465 436.515 375.316 433.286 373.108C432.182 372.357 430.838 372.073 429.589 371.593C424.587 369.7 421.344 364.804 419.288 359.857C417.232 354.91 415.976 349.603 413.232 345.003C407.265 335.014 395.059 329.739 389.924 319.296C387.047 313.453 386.77 306.676 386.555 300.196L385.994 283.595C385.931 281.777 385.887 279.891 386.625 278.231C388.586 273.814 394.516 273.398 399.323 272.836C404.774 272.2 410.055 270.534 414.885 267.927C417.654 266.432 420.354 264.526 421.824 261.75C423.174 259.226 423.357 256.254 423.514 253.389L425.18 223.297C425.325 220.71 425.451 218.028 424.549 215.605C422.259 209.509 414.563 207.516 408.06 207.806C395.961 208.348 384.795 213.554 373.365 217.075C370.533 217.946 367.688 218.728 364.767 219.315C362.244 219.826 359.09 219.618 356.667 220.438C352.327 221.902 352.435 231.405 351.823 235.342C350.56 243.026 350.017 250.81 350.201 258.595Z" fill="#605D82"/>
<path d="M414.765 397.616C415.831 398.695 416.178 400.272 416.456 401.761C417.998 410.026 418.8 418.411 418.853 426.818C418.784 427.602 418.939 428.39 419.301 429.09C419.603 429.504 420.01 429.831 420.48 430.036C423.565 431.506 427.142 429.456 429.715 427.203C434.478 423.032 438.509 417.429 438.78 411.1C438.849 409.472 438.667 407.825 438.95 406.216C439.367 403.831 440.761 401.755 441.985 399.673C444.078 396.123 445.771 392.352 447.031 388.428C447.498 386.952 447.813 385.097 446.653 384.068C446.246 383.745 445.781 383.503 445.284 383.355L431.343 378.181C430.132 377.733 427.129 385.45 426.656 386.295C425.489 388.359 424.328 389.526 421.988 390.006C419.648 390.485 416.758 389.791 414.525 390.984C410.741 392.997 412.627 395.464 414.765 397.616Z" fill="#535070"/>
<path d="M393.267 402.38C393.009 401.864 392.648 401.407 392.207 401.035C391.563 400.625 390.83 400.376 390.069 400.31C387.419 399.856 384.278 399.559 382.442 401.534C380.726 403.383 381.023 406.393 379.591 408.475C379.137 409.106 378.519 409.674 378.128 410.368C377.641 411.43 377.425 412.596 377.497 413.763C377.421 416.974 377.345 420.199 377.572 423.404C377.755 426.092 378.203 428.913 379.887 431.02C382.587 434.403 387.457 434.888 391.772 435.103L395.273 435.286C396.236 435.399 397.211 435.308 398.137 435.021C398.711 434.757 399.225 434.38 399.65 433.913C400.075 433.446 400.401 432.898 400.61 432.301C402.433 427.771 399.55 422.893 397.771 418.35C395.721 413.119 396.087 407.32 393.267 402.38Z" fill="#535070"/>
<path d="M364.319 69.1697C364.274 68.7104 364.341 68.2471 364.515 67.8194C365.026 66.9171 366.363 67.1884 367.372 67.4156C371.428 68.4378 375.705 67.5102 379.888 67.75C384.07 67.9898 388.776 70.0784 389.615 74.1798C392.649 72.0319 395.264 69.3457 397.329 66.2545C398.49 64.5193 399.499 62.5317 399.342 60.4494C399.115 57.4458 396.598 55.1995 394.295 53.2939L387.356 47.6149C386.442 46.7762 385.387 46.1055 384.24 45.6336C382.638 45.0846 380.884 45.3497 379.194 45.3497C374.147 45.3497 368.735 43.0465 364.237 45.3497C362.345 46.3151 360.938 47.9746 359.575 49.59L353.375 56.9347C352.905 57.4029 352.562 57.9826 352.378 58.6195C352.201 59.5155 352.662 60.3989 352.826 61.3012C353.116 62.9418 352.409 64.696 352.952 66.2735C353.854 68.8858 357.033 69.2581 358.976 70.7599C359.695 71.3151 360.831 73.2144 361.695 73.1892C363.215 73.1576 364.275 70.3813 364.319 69.1697Z" fill="#3F3D56"/>
<path d="M374.841 90.8318C385.815 90.8318 394.712 81.9329 394.712 70.9555C394.712 59.9781 385.815 51.0791 374.841 51.0791C363.867 51.0791 354.97 59.9781 354.97 70.9555C354.97 81.9329 363.867 90.8318 374.841 90.8318Z" fill="#FFC0C6"/>
<path d="M379.496 114.45C378.823 112.523 377.556 110.861 375.877 109.702C374.197 108.543 372.194 107.947 370.154 108.001C369.569 108.113 368.964 108.035 368.426 107.78C368.121 107.547 367.876 107.244 367.713 106.897C366.508 104.722 365.538 102.425 364.817 100.044C364.502 98.9906 364.067 97.7475 363.001 97.4762C362.143 97.2553 361.266 97.8106 360.692 98.4858C360.183 99.2103 359.631 99.9035 359.039 100.562C356.516 102.795 352.1 100.757 349.457 102.808C349.022 103.142 348.662 103.572 348.196 103.881C347.741 104.158 347.251 104.37 346.738 104.512C341.608 106.181 336.578 108.147 331.675 110.399C333.441 121.025 335.245 131.853 339.383 141.791C341.351 146.523 343.578 151.161 345.155 156.039C348.65 166.848 348.801 178.414 348.845 189.778C348.845 197.552 348.845 205.49 346.322 212.847C345.754 214.513 345.06 216.166 344.903 217.895C344.745 219.624 345.262 221.58 346.682 222.615C347.503 223.157 348.446 223.489 349.426 223.581C353.785 224.212 358.175 223.063 362.464 222.066C373.964 219.403 385.697 217.876 397.399 216.387L417.017 213.863C418.424 213.765 419.802 213.408 421.08 212.81C424.669 210.847 425.009 205.446 422.776 202.013C421.71 200.366 420.203 199.016 419.301 197.274C418.399 195.533 418.329 193.085 419.875 191.879C423.029 189.419 422.083 184.856 422.234 180.869C422.654 169.713 422.598 158.565 422.064 147.426C421.903 145.116 421.865 142.799 421.95 140.485C422.171 136.56 423.142 132.717 424.114 128.9L430.075 105.427C428.517 102.966 425.533 101.401 422.713 100.694C419.894 99.9875 416.948 99.7793 414.166 98.9148C408.489 97.148 403.392 92.668 397.443 93.0844C396.992 93.0925 396.548 93.2002 396.144 93.3999C394.806 94.1634 395.014 96.0943 394.932 97.6339C394.743 101.048 392.232 103.893 389.47 105.894C386.707 107.894 383.54 109.345 380.998 111.623C380.556 111.956 380.193 112.382 379.934 112.87C379.674 113.358 379.525 113.898 379.496 114.45Z" fill="#3F3D56"/>
<path d="M300.765 136.718C299.449 137.574 298.05 138.295 296.589 138.87C295.201 139.419 293.719 139.854 292.583 140.813C292.021 141.301 291.549 141.884 291.189 142.536C290.517 143.729 290.177 145.081 290.205 146.45C290.233 147.819 290.628 149.156 291.348 150.321C292.069 151.485 293.088 152.435 294.301 153.072C295.513 153.708 296.874 154.007 298.242 153.938C300.065 153.843 301.787 153.105 303.458 152.379L317.475 146.277C319.847 145.249 322.408 144.05 323.531 141.715C323.66 141.497 323.709 141.24 323.67 140.99C323.561 140.715 323.354 140.49 323.089 140.359C319.931 138.303 317.168 135.695 314.933 132.661C314.359 131.878 313.671 130.036 312.839 129.562C309.874 127.915 303.143 135.178 300.765 136.718Z" fill="#FFC0C6"/>
<path d="M450.595 131.765L455.762 137.671C456.872 138.933 457.982 140.195 458.991 141.558C461.475 144.979 463.467 148.732 464.908 152.707C466.031 155.654 466.965 158.796 466.574 161.926C466.312 163.531 465.878 165.102 465.281 166.614C464.334 169.521 463.159 172.348 461.767 175.07C460.604 177.135 459.291 179.111 457.837 180.982C453.835 186.286 449.457 191.294 444.735 195.968C442.969 197.716 442.212 200.549 441.461 202.909C440.042 207.269 436.667 210.67 433.406 213.889C432.357 214.998 431.196 215.996 429.942 216.867C428.065 218.079 425.868 218.703 423.634 218.659C422.66 218.664 421.694 218.465 420.802 218.072C418.569 217.012 417.433 214.431 417.2 211.97C416.994 209.734 417.368 207.483 418.285 205.433C421.25 198.865 428.864 196.019 434.245 191.223C437.399 188.415 439.815 184.882 442.199 181.392C443.814 179.211 445.163 176.845 446.217 174.344C447.416 171.132 446.949 167.334 448.003 164.078C448.444 162.696 449.264 161.453 449.712 160.084C450.16 158.714 450.311 157.093 449.472 155.913C448.844 155.158 448.04 154.569 447.132 154.196C443.694 152.455 439.846 150.209 439.19 146.404C438.927 144.297 439.478 142.169 440.729 140.453C441.974 138.76 443.43 137.233 445.063 135.91C446.558 134.56 449.088 133.064 450.595 131.765Z" fill="#FFC0C6"/>
<path d="M297.447 144.959C296.538 143.116 295.397 141.236 293.555 140.321C292.658 139.934 291.692 139.734 290.716 139.734C289.74 139.734 288.774 139.934 287.877 140.321C286.092 141.093 284.42 142.103 282.906 143.324L278.453 146.612C277.443 147.275 276.55 148.1 275.81 149.054C275.104 150.211 274.636 151.499 274.435 152.84C273.804 155.913 273.293 159.074 273.734 162.185C274.441 167.233 277.469 171.599 280.8 175.436C282.881 177.821 285.455 180.231 288.622 180.339C289.991 180.383 291.511 179.84 292.078 178.597C292.276 178.103 292.381 177.577 292.388 177.045C292.728 171.442 290.722 165.971 288.388 160.866C287.757 159.478 287.076 158.039 287.127 156.518C287.107 156.26 287.174 156.003 287.316 155.787C287.516 155.577 287.784 155.445 288.073 155.414C291.271 154.783 296.784 157.269 299.024 153.717C300.475 151.37 298.481 147.047 297.447 144.959Z" fill="#FFC0C6"/>
<path d="M363.272 62.9166C363.232 62.4569 363.302 61.9943 363.474 61.5662C363.985 60.6576 365.322 60.9352 366.331 61.1624C370.387 62.1846 374.664 61.2571 378.847 61.4968C383.029 61.7366 387.729 63.8252 388.574 67.9267C391.605 65.7753 394.219 63.0897 396.289 60.0014C397.449 58.2598 398.459 56.2722 398.301 54.1899C398.074 51.1864 395.551 48.94 393.254 47.0407L386.315 41.3618C385.404 40.5232 384.351 39.8524 383.206 39.3804C381.597 38.8315 379.85 39.0965 378.159 39.0965C373.113 39.0965 367.7 36.7934 363.203 39.0965C361.31 40.0619 359.903 41.7214 358.541 43.3368L352.334 50.6816C351.867 51.1508 351.526 51.7303 351.343 52.3663C351.167 53.2623 351.627 54.1457 351.791 55.0481C352.081 56.6886 351.375 58.4428 351.917 60.014C352.819 62.6326 355.999 63.0049 357.942 64.5067C358.661 65.062 359.796 66.9612 360.66 66.936C362.155 66.9045 363.215 64.1281 363.272 62.9166Z" fill="#3F3D56"/>
<path d="M321.071 117.384C320.27 117.904 319.565 118.56 318.989 119.321C318.264 120.426 318.112 121.845 317.488 122.981C316.15 125.467 313.015 126.357 311.066 128.395C310.75 128.674 310.529 129.044 310.435 129.455C310.423 130.01 310.609 130.551 310.959 130.982L320.383 145.798C323.537 146.075 326.527 144.107 329.669 144.372C330.836 144.466 332.04 144.87 333.163 144.523C333.966 144.166 334.719 143.705 335.403 143.154C337.295 141.968 339.768 141.829 341.339 140.27C342.909 138.712 343.042 136.421 343.023 134.295C343.051 132.449 342.863 130.607 342.461 128.805C341.074 123.126 336.727 118.747 334.002 113.712C332.671 111.257 331.952 109.825 329.145 111.51C326.338 113.194 323.726 115.441 321.071 117.384Z" fill="#3F3D56"/>
<path d="M435.506 109.894C437.277 111.045 438.875 112.443 440.25 114.046C441.682 115.895 442.496 118.167 443.877 120.06C445.258 121.953 447.031 123.315 448.545 125.007C450.848 127.568 452.406 130.686 453.932 133.784C450.195 138.647 446.123 143.244 441.745 147.539C441.257 148.114 440.612 148.535 439.89 148.751C439.401 148.804 438.906 148.734 438.45 148.547C437.994 148.361 437.592 148.065 437.279 147.685C436.597 146.978 436.118 146.094 435.468 145.356C433.938 143.777 431.897 142.791 429.709 142.573C427.539 142.362 425.355 142.33 423.18 142.479C422.703 142.535 422.219 142.454 421.786 142.245C421.464 142.024 421.203 141.724 421.029 141.375C418.506 137.033 419.294 131.582 420.196 126.622L422.259 115.264C422.56 113.095 423.139 110.975 423.981 108.954C424.763 107.282 426.504 104.442 428.662 104.947C430.819 105.452 433.683 108.582 435.506 109.894Z" fill="#3F3D56"/>
<path d="M255.618 193.154L212.161 202.045L211.171 201.95L172.981 198.095V149.685L219.731 141.778L253.643 145.735L253.656 145.949V146.05L255.618 193.154Z" fill="#5878DB"/>
<path opacity="0.1" d="M255.618 193.154L212.161 202.045L211.171 201.95V152.322L253.656 145.949L255.618 193.154Z" fill="black"/>
<path opacity="0.05" d="M253.656 146.05L253.643 146.063L211.171 152.322L172.981 149.685L219.731 141.778L253.643 145.735L253.656 145.949V146.05Z" fill="black"/>
<path d="M278.327 145.198L234.87 154.095L233.88 153.994L195.69 150.139V101.729L242.44 93.8228L276.352 97.7791L276.365 97.9936V98.0946L278.327 145.198Z" fill="#3F3D56"/>
<path opacity="0.1" d="M278.327 145.198L234.87 154.095L233.88 153.994V104.367L276.365 97.9936L278.327 145.198Z" fill="black"/>
<path opacity="0.05" d="M276.365 98.0946L276.352 98.1072L233.88 104.367L195.69 101.729L242.44 93.8228L276.352 97.7791L276.365 97.9936V98.0946Z" fill="black"/>
</g>
<defs>
<clipPath id="clip0">
<rect width="599" height="444" fill="white"/>
</clipPath>
</defs>
</svg>
