<svg width="395" height="395" viewBox="0 0 395 395" fill="none" xmlns="http://www.w3.org/2000/svg">
<path d="M328.134 98.8527C331.919 157.747 260.826 221.303 209.579 237.893C160.196 253.906 61.4462 247.941 56.3981 178.54C54.5021 152.47 69.5674 124.03 91.8928 110.442C127.79 88.6143 155.93 117.742 191.314 122.426C219.43 126.147 241.203 113.61 262.296 96.4906C279.865 82.2469 325.29 54.668 328.134 98.8527Z" fill="#5878DB"/>
<path opacity="0.8" d="M328.134 98.8527C331.919 157.747 260.826 221.303 209.579 237.893C160.196 253.906 61.4462 247.941 56.3981 178.54C54.5021 152.47 69.5674 124.03 91.8928 110.442C127.79 88.6143 155.93 117.742 191.314 122.426C219.43 126.147 241.203 113.61 262.296 96.4906C279.865 82.2469 325.29 54.668 328.134 98.8527Z" fill="white"/>
<path d="M197.5 337.772C282.095 337.772 350.673 333.769 350.673 328.83C350.673 323.891 282.095 319.887 197.5 319.887C112.905 319.887 44.3269 323.891 44.3269 328.83C44.3269 333.769 112.905 337.772 197.5 337.772Z" fill="#F5F5F5"/>
<path d="M116.068 210.397C132.777 193.688 132.777 166.597 116.068 149.888C99.3588 133.179 72.268 133.179 55.5589 149.888C38.8497 166.597 38.8497 193.688 55.5589 210.397C72.268 227.106 99.3589 227.106 116.068 210.397Z" fill="#5878DB"/>
<path opacity="0.4" d="M116.068 210.397C132.777 193.688 132.777 166.597 116.068 149.888C99.3588 133.179 72.268 133.179 55.5589 149.888C38.8497 166.597 38.8497 193.688 55.5589 210.397C72.268 227.106 99.3589 227.106 116.068 210.397Z" fill="black"/>
<path opacity="0.2" d="M121.235 186.184C124.571 166.623 111.419 148.062 91.8582 144.725C72.2976 141.389 53.7358 154.541 50.3992 174.101C47.0627 193.662 60.2149 212.224 79.7756 215.56C99.3362 218.897 117.898 205.745 121.235 186.184Z" fill="black"/>
<path d="M122.952 183.584C124.285 164.535 109.924 148.011 90.8746 146.678C71.8256 145.344 55.3023 159.706 53.9688 178.755C52.6354 197.804 66.9968 214.327 86.0459 215.661C105.095 216.994 121.618 202.633 122.952 183.584Z" fill="#5878DB"/>
<path opacity="0.4" d="M122.952 183.584C124.285 164.535 109.924 148.011 90.8746 146.678C71.8256 145.344 55.3023 159.706 53.9688 178.755C52.6354 197.804 66.9968 214.327 86.0459 215.661C105.095 216.994 121.618 202.633 122.952 183.584Z" fill="black"/>
<path d="M100.022 176.849L102.273 186.606C102.369 186.978 102.386 187.367 102.324 187.746C102.261 188.126 102.12 188.488 101.91 188.81C101.706 189.139 101.438 189.424 101.122 189.648C100.806 189.872 100.448 190.03 100.069 190.113L91.4899 192.096L93.0699 198.961C93.1629 199.332 93.1772 199.719 93.1119 200.096C93.0466 200.473 92.9031 200.832 92.6908 201.15C92.4867 201.474 92.2178 201.752 91.901 201.966C91.5842 202.181 91.2264 202.328 90.85 202.398C90.4731 202.492 90.081 202.51 89.697 202.451C89.313 202.391 88.9449 202.255 88.6143 202.05C88.2851 201.857 87.9998 201.596 87.7768 201.286C87.5537 200.976 87.3977 200.623 87.3188 200.249L85.7388 193.305L77.2305 195.272C76.8638 195.361 76.483 195.374 76.111 195.312C75.739 195.249 75.3835 195.112 75.0659 194.909C74.7358 194.715 74.4495 194.455 74.2251 194.145C74.0007 193.835 73.8431 193.482 73.7624 193.108C73.6725 192.738 73.6584 192.355 73.7209 191.98C73.7833 191.605 73.9211 191.247 74.1258 190.927C74.3211 190.6 74.5819 190.317 74.8918 190.095C75.2018 189.874 75.5542 189.718 75.927 189.639L95.8349 185.05L94.9028 180.997L75.0501 185.571C74.6825 185.665 74.2998 185.683 73.925 185.625C73.5503 185.566 73.1912 185.432 72.8697 185.231C72.5399 185.033 72.2551 184.769 72.0333 184.455C71.8116 184.14 71.6579 183.783 71.582 183.406L69.3384 173.689C69.1657 172.942 69.2967 172.157 69.7026 171.507C70.1085 170.857 70.7561 170.394 71.503 170.221L79.9718 168.27L78.3918 161.397C78.3001 161.034 78.2823 160.655 78.3393 160.285C78.3963 159.915 78.5269 159.559 78.7236 159.24C78.9319 158.895 79.2117 158.597 79.5441 158.369C79.8765 158.14 80.2539 157.984 80.6512 157.913C81.0165 157.824 81.3961 157.811 81.7668 157.873C82.1376 157.936 82.4918 158.073 82.8079 158.276C83.1323 158.476 83.4129 158.739 83.6329 159.05C83.8528 159.361 84.0075 159.713 84.0877 160.086L85.6677 166.951L94.3577 164.96C94.7336 164.869 95.1241 164.855 95.5056 164.919C95.887 164.982 96.2517 165.123 96.5776 165.331C96.9072 165.521 97.1939 165.776 97.4196 166.082C97.6453 166.388 97.8052 166.738 97.889 167.109C98.0554 167.873 97.9163 168.672 97.5015 169.334C97.0867 169.997 96.429 170.471 95.6691 170.656L75.7611 175.246L76.6301 179.275L96.467 174.701C96.8429 174.61 97.2333 174.596 97.6148 174.659C97.9963 174.723 98.361 174.863 98.6868 175.072C99.0218 175.258 99.3138 175.512 99.5439 175.818C99.7739 176.125 99.9368 176.476 100.022 176.849Z" fill="#5878DB"/>
<g opacity="0.7">
<path opacity="0.7" d="M100.022 176.849L102.273 186.606C102.369 186.978 102.386 187.367 102.324 187.746C102.261 188.126 102.12 188.488 101.91 188.81C101.706 189.139 101.438 189.424 101.122 189.648C100.806 189.872 100.448 190.03 100.069 190.113L91.4899 192.096L93.0699 198.961C93.1629 199.332 93.1772 199.719 93.1119 200.096C93.0466 200.473 92.9031 200.832 92.6908 201.15C92.4867 201.474 92.2178 201.752 91.901 201.966C91.5842 202.181 91.2264 202.328 90.85 202.398C90.4731 202.492 90.081 202.51 89.697 202.451C89.313 202.391 88.9449 202.255 88.6143 202.05C88.2851 201.857 87.9998 201.596 87.7768 201.286C87.5537 200.976 87.3977 200.623 87.3188 200.249L85.7388 193.305L77.2305 195.272C76.8638 195.361 76.483 195.374 76.111 195.312C75.739 195.249 75.3835 195.112 75.0659 194.909C74.7358 194.715 74.4495 194.455 74.2251 194.145C74.0007 193.835 73.8431 193.482 73.7624 193.108C73.6725 192.738 73.6584 192.355 73.7209 191.98C73.7833 191.605 73.9211 191.247 74.1258 190.927C74.3211 190.6 74.5819 190.317 74.8918 190.095C75.2018 189.874 75.5542 189.718 75.927 189.639L95.8349 185.05L94.9028 180.997L75.0501 185.571C74.6825 185.665 74.2998 185.683 73.925 185.625C73.5503 185.566 73.1912 185.432 72.8697 185.231C72.5399 185.033 72.2551 184.769 72.0333 184.455C71.8116 184.14 71.6579 183.783 71.582 183.406L69.3384 173.689C69.1657 172.942 69.2967 172.157 69.7026 171.507C70.1085 170.857 70.7561 170.394 71.503 170.221L79.9718 168.27L78.3918 161.397C78.3001 161.034 78.2823 160.655 78.3393 160.285C78.3963 159.915 78.5269 159.559 78.7236 159.24C78.9319 158.895 79.2117 158.597 79.5441 158.369C79.8765 158.14 80.2539 157.984 80.6512 157.913C81.0165 157.824 81.3961 157.811 81.7668 157.873C82.1376 157.936 82.4918 158.073 82.8079 158.276C83.1323 158.476 83.4129 158.739 83.6329 159.05C83.8528 159.361 84.0075 159.713 84.0877 160.086L85.6677 166.951L94.3577 164.96C94.7336 164.869 95.1241 164.855 95.5056 164.919C95.887 164.982 96.2517 165.123 96.5776 165.331C96.9072 165.521 97.1939 165.776 97.4196 166.082C97.6453 166.388 97.8052 166.738 97.889 167.109C98.0554 167.873 97.9163 168.672 97.5015 169.334C97.0867 169.997 96.429 170.471 95.6691 170.656L75.7611 175.246L76.6301 179.275L96.467 174.701C96.8429 174.61 97.2333 174.596 97.6148 174.659C97.9963 174.723 98.361 174.863 98.6868 175.072C99.0218 175.258 99.3138 175.512 99.5439 175.818C99.7739 176.125 99.9368 176.476 100.022 176.849Z" fill="white"/>
</g>
<path d="M177.117 146.117C187.762 133.52 186.18 114.679 173.583 104.034C160.986 93.3885 142.145 94.9706 131.5 107.567C120.855 120.164 122.437 139.005 135.034 149.651C147.631 160.296 166.472 158.713 177.117 146.117Z" fill="#5878DB"/>
<path opacity="0.4" d="M177.117 146.117C187.762 133.52 186.18 114.679 173.583 104.034C160.986 93.3885 142.145 94.9706 131.5 107.567C120.855 120.164 122.437 139.005 135.034 149.651C147.631 160.296 166.472 158.713 177.117 146.117Z" fill="black"/>
<path opacity="0.2" d="M173.636 142.796C182.46 132.123 180.96 116.317 170.287 107.494C159.613 98.6702 143.808 100.17 134.984 110.843C126.161 121.517 127.66 137.322 138.334 146.145C149.007 154.969 164.813 153.469 173.636 142.796Z" fill="black"/>
<path d="M174.393 143.058C182.466 132.495 180.447 117.389 169.885 109.316C159.322 101.243 144.215 103.261 136.143 113.824C128.07 124.386 130.088 139.493 140.651 147.566C151.213 155.639 166.32 153.62 174.393 143.058Z" fill="#5878DB"/>
<path opacity="0.4" d="M174.393 143.058C182.466 132.495 180.447 117.389 169.885 109.316C159.322 101.243 144.215 103.261 136.143 113.824C128.07 124.386 130.088 139.493 140.651 147.566C151.213 155.639 166.32 153.62 174.393 143.058Z" fill="black"/>
<path d="M164.178 129.291L162.479 136.07C162.418 136.327 162.303 136.569 162.142 136.78C161.982 136.991 161.779 137.166 161.547 137.294C161.313 137.437 161.052 137.53 160.78 137.57C160.509 137.609 160.232 137.593 159.967 137.523L154.05 136.03L152.849 140.77C152.788 141.029 152.674 141.272 152.513 141.485C152.353 141.697 152.15 141.873 151.917 142.002C151.693 142.142 151.443 142.234 151.182 142.273C150.921 142.312 150.655 142.298 150.4 142.232C150.137 142.17 149.89 142.056 149.671 141.898C149.453 141.739 149.268 141.538 149.128 141.307C148.986 141.082 148.891 140.829 148.85 140.566C148.81 140.302 148.824 140.033 148.891 139.775L150.1 134.956L144.175 133.51C143.918 133.448 143.677 133.336 143.465 133.178C143.253 133.021 143.075 132.822 142.943 132.594C142.8 132.37 142.705 132.118 142.664 131.856C142.623 131.594 142.638 131.326 142.706 131.069C142.765 130.809 142.876 130.564 143.034 130.35C143.192 130.135 143.392 129.955 143.622 129.821C143.849 129.682 144.102 129.591 144.366 129.553C144.629 129.515 144.897 129.531 145.155 129.599L158.98 133.068L159.691 130.255L145.905 126.795C145.647 126.737 145.403 126.627 145.19 126.47C144.977 126.314 144.798 126.115 144.665 125.886C144.522 125.661 144.428 125.408 144.39 125.144C144.352 124.88 144.37 124.61 144.444 124.354L146.134 117.599C146.198 117.342 146.312 117.1 146.47 116.887C146.628 116.673 146.826 116.494 147.054 116.358C147.282 116.222 147.534 116.132 147.797 116.095C148.059 116.057 148.326 116.072 148.583 116.138L154.445 117.607L155.646 112.867C155.704 112.6 155.817 112.347 155.977 112.125C156.138 111.903 156.342 111.717 156.578 111.579C156.814 111.44 157.077 111.351 157.348 111.319C157.62 111.286 157.896 111.311 158.158 111.39C158.413 111.449 158.652 111.56 158.862 111.717C159.071 111.873 159.246 112.071 159.375 112.298C159.514 112.524 159.607 112.775 159.646 113.037C159.686 113.299 159.671 113.567 159.604 113.823L158.403 118.563L164.407 120.072C164.67 120.135 164.918 120.251 165.135 120.412C165.353 120.574 165.535 120.778 165.671 121.012C165.815 121.234 165.912 121.483 165.955 121.744C165.999 122.005 165.988 122.272 165.924 122.529C165.858 122.792 165.74 123.039 165.577 123.257C165.414 123.474 165.21 123.656 164.976 123.793C164.742 123.938 164.482 124.034 164.21 124.075C163.938 124.116 163.661 124.1 163.396 124.03L149.563 120.562L148.868 123.358L162.645 126.811C162.909 126.874 163.156 126.989 163.374 127.151C163.591 127.313 163.773 127.517 163.909 127.751C164.061 127.974 164.164 128.226 164.21 128.492C164.257 128.758 164.246 129.03 164.178 129.291Z" fill="#5878DB"/>
<g opacity="0.7">
<path opacity="0.7" d="M164.178 129.291L162.479 136.07C162.418 136.327 162.303 136.569 162.142 136.78C161.982 136.991 161.779 137.166 161.547 137.294C161.313 137.437 161.052 137.53 160.78 137.57C160.509 137.609 160.232 137.593 159.967 137.523L154.05 136.03L152.849 140.77C152.788 141.029 152.674 141.272 152.513 141.485C152.353 141.697 152.15 141.873 151.917 142.002C151.693 142.142 151.443 142.234 151.182 142.273C150.921 142.312 150.655 142.298 150.4 142.232C150.137 142.17 149.89 142.056 149.671 141.898C149.453 141.739 149.268 141.538 149.128 141.307C148.986 141.082 148.891 140.829 148.85 140.566C148.81 140.302 148.824 140.033 148.891 139.775L150.1 134.956L144.175 133.51C143.918 133.448 143.677 133.336 143.465 133.178C143.253 133.021 143.075 132.822 142.943 132.594C142.8 132.37 142.705 132.118 142.664 131.856C142.623 131.594 142.638 131.326 142.706 131.069C142.765 130.809 142.876 130.564 143.034 130.35C143.192 130.135 143.392 129.955 143.622 129.821C143.849 129.682 144.102 129.591 144.366 129.553C144.629 129.515 144.897 129.531 145.155 129.599L158.98 133.068L159.691 130.255L145.905 126.795C145.647 126.737 145.403 126.627 145.19 126.47C144.977 126.314 144.798 126.115 144.665 125.886C144.522 125.661 144.428 125.408 144.39 125.144C144.352 124.88 144.37 124.61 144.444 124.354L146.134 117.599C146.198 117.342 146.312 117.1 146.47 116.887C146.628 116.673 146.826 116.494 147.054 116.358C147.282 116.222 147.534 116.132 147.797 116.095C148.059 116.057 148.326 116.072 148.583 116.138L154.445 117.607L155.646 112.867C155.704 112.6 155.817 112.347 155.977 112.125C156.138 111.903 156.342 111.717 156.578 111.579C156.814 111.44 157.077 111.351 157.348 111.319C157.62 111.286 157.896 111.311 158.158 111.39C158.413 111.449 158.652 111.56 158.862 111.717C159.071 111.873 159.246 112.071 159.375 112.298C159.514 112.524 159.607 112.775 159.646 113.037C159.686 113.299 159.671 113.567 159.604 113.823L158.403 118.563L164.407 120.072C164.67 120.135 164.918 120.251 165.135 120.412C165.353 120.574 165.535 120.778 165.671 121.012C165.815 121.234 165.912 121.483 165.955 121.744C165.999 122.005 165.988 122.272 165.924 122.529C165.858 122.792 165.74 123.039 165.577 123.257C165.414 123.474 165.21 123.656 164.976 123.793C164.742 123.938 164.482 124.034 164.21 124.075C163.938 124.116 163.661 124.1 163.396 124.03L149.563 120.562L148.868 123.358L162.645 126.811C162.909 126.874 163.156 126.989 163.374 127.151C163.591 127.313 163.773 127.517 163.909 127.751C164.061 127.974 164.164 128.226 164.21 128.492C164.257 128.758 164.246 129.03 164.178 129.291Z" fill="white"/>
</g>
<path d="M81.5754 307.286H80.7854V316.205H81.5754V307.286Z" fill="#5878DB"/>
<path opacity="0.1" d="M81.5754 307.286H80.7854V316.205H81.5754V307.286Z" fill="black"/>
<path d="M314.215 236.629H313.425V248.85H314.215V236.629Z" fill="#5878DB"/>
<path d="M314.215 255.257H313.425V261.885H314.215V255.257Z" fill="#5878DB"/>
<path opacity="0.1" d="M314.215 236.629H313.425V248.85H314.215V236.629Z" fill="black"/>
<path opacity="0.1" d="M314.215 255.257H313.425V261.885H314.215V255.257Z" fill="black"/>
<path d="M299.568 183.628H95.4399C88.8735 183.628 83.5504 188.951 83.5504 195.517V315.005C83.5504 321.571 88.8735 326.894 95.4399 326.894H299.568C306.134 326.894 311.458 321.571 311.458 315.005V195.517C311.458 188.951 306.134 183.628 299.568 183.628Z" fill="#5878DB"/>
<path opacity="0.2" d="M299.568 183.628H95.4399C88.8735 183.628 83.5504 188.951 83.5504 195.517V315.005C83.5504 321.571 88.8735 326.894 95.4399 326.894H299.568C306.134 326.894 311.458 321.571 311.458 315.005V195.517C311.458 188.951 306.134 183.628 299.568 183.628Z" fill="black"/>
<path opacity="0.2" d="M274.564 233.516C282.71 233.516 289.314 226.913 289.314 218.767C289.314 210.621 282.71 204.017 274.564 204.017C266.419 204.017 259.815 210.621 259.815 218.767C259.815 226.913 266.419 233.516 274.564 233.516Z" fill="black"/>
<path d="M255.525 233.516C263.671 233.516 270.275 226.913 270.275 218.767C270.275 210.621 263.671 204.017 255.525 204.017C247.38 204.017 240.776 210.621 240.776 218.767C240.776 226.913 247.38 233.516 255.525 233.516Z" fill="#5878DB"/>
<path d="M145.945 233.516H110.813C107.986 233.516 105.694 235.808 105.694 238.635V261.601C105.694 264.428 107.986 266.72 110.813 266.72H145.945C148.772 266.72 151.064 264.428 151.064 261.601V238.635C151.064 235.808 148.772 233.516 145.945 233.516Z" fill="#5878DB"/>
<path opacity="0.3" d="M145.945 233.516H110.813C107.986 233.516 105.694 235.808 105.694 238.635V261.601C105.694 264.428 107.986 266.72 110.813 266.72H145.945C148.772 266.72 151.064 264.428 151.064 261.601V238.635C151.064 235.808 148.772 233.516 145.945 233.516Z" fill="white"/>
<path d="M170.253 200.399H109.32C107.318 200.399 105.694 202.021 105.694 204.021C105.694 206.022 107.318 207.644 109.32 207.644H170.253C172.256 207.644 173.879 206.022 173.879 204.021C173.879 202.021 172.256 200.399 170.253 200.399Z" fill="#5878DB"/>
<path opacity="0.3" d="M170.253 200.399H109.32C107.318 200.399 105.694 202.021 105.694 204.021C105.694 206.022 107.318 207.644 109.32 207.644H170.253C172.256 207.644 173.879 206.022 173.879 204.021C173.879 202.021 172.256 200.399 170.253 200.399Z" fill="white"/>
<path d="M138.416 283.199H111.011C108.074 283.199 105.694 285.58 105.694 288.516V293.485C105.694 296.421 108.074 298.802 111.011 298.802H138.416C141.352 298.802 143.733 296.421 143.733 293.485V288.516C143.733 285.58 141.352 283.199 138.416 283.199Z" fill="#5878DB"/>
<path opacity="0.3" d="M138.416 283.199H111.011C108.074 283.199 105.694 285.58 105.694 288.516V293.485C105.694 296.421 108.074 298.802 111.011 298.802H138.416C141.352 298.802 143.733 296.421 143.733 293.485V288.516C143.733 285.58 141.352 283.199 138.416 283.199Z" fill="white"/>
<path d="M186.938 283.199H159.533C156.596 283.199 154.216 285.58 154.216 288.516V293.485C154.216 296.421 156.596 298.802 159.533 298.802H186.938C189.874 298.802 192.254 296.421 192.254 293.485V288.516C192.254 285.58 189.874 283.199 186.938 283.199Z" fill="#5878DB"/>
<path opacity="0.3" d="M186.938 283.199H159.533C156.596 283.199 154.216 285.58 154.216 288.516V293.485C154.216 296.421 156.596 298.802 159.533 298.802H186.938C189.874 298.802 192.254 296.421 192.254 293.485V288.516C192.254 285.58 189.874 283.199 186.938 283.199Z" fill="white"/>
<path d="M235.467 283.199H208.062C205.126 283.199 202.746 285.58 202.746 288.516V293.485C202.746 296.421 205.126 298.802 208.062 298.802H235.467C238.404 298.802 240.784 296.421 240.784 293.485V288.516C240.784 285.58 238.404 283.199 235.467 283.199Z" fill="#5878DB"/>
<path opacity="0.3" d="M235.467 283.199H208.062C205.126 283.199 202.746 285.58 202.746 288.516V293.485C202.746 296.421 205.126 298.802 208.062 298.802H235.467C238.404 298.802 240.784 296.421 240.784 293.485V288.516C240.784 285.58 238.404 283.199 235.467 283.199Z" fill="white"/>
<path d="M283.989 283.199H256.584C253.648 283.199 251.267 285.58 251.267 288.516V293.485C251.267 296.421 253.648 298.802 256.584 298.802H283.989C286.926 298.802 289.306 296.421 289.306 293.485V288.516C289.306 285.58 286.926 283.199 283.989 283.199Z" fill="#5878DB"/>
<path opacity="0.3" d="M283.989 283.199H256.584C253.648 283.199 251.267 285.58 251.267 288.516V293.485C251.267 296.421 253.648 298.802 256.584 298.802H283.989C286.926 298.802 289.306 296.421 289.306 293.485V288.516C289.306 285.58 286.926 283.199 283.989 283.199Z" fill="white"/>
<path d="M231.47 131.788C229.598 137.073 227.52 142.184 225.316 147.296C223.085 152.493 220.526 157.544 217.653 162.416C217.266 163.04 216.863 163.664 216.444 164.288L216.136 164.755L215.717 165.331C215.433 165.695 215.164 166.011 214.927 166.319C213.932 167.428 212.877 168.483 211.767 169.479C209.658 171.43 207.509 173.2 205.337 174.946C200.976 178.406 196.52 181.645 191.907 184.718L189.15 181.297L200.763 169.85C202.682 167.946 204.586 166.026 206.364 164.107C207.241 163.151 208.094 162.171 208.797 161.271C208.971 161.049 209.121 160.828 209.255 160.639L209.421 160.37L209.65 159.959C209.958 159.414 210.282 158.885 210.582 158.324C213 153.781 215.133 148.844 217.187 143.835C219.241 138.827 221.216 133.779 223.112 128.77L231.47 131.788Z" fill="#E4897B"/>
<path d="M233.69 127.98C235.483 133.226 224.945 148.654 224.945 148.654L214.88 143.053C216.595 138.239 218.622 133.542 220.947 128.991C224.471 122.324 231.723 122.221 233.69 127.98Z" fill="#5878DB"/>
<path opacity="0.7" d="M233.69 127.98C235.483 133.226 224.945 148.654 224.945 148.654L214.88 143.053C216.595 138.239 218.622 133.542 220.947 128.991C224.471 122.324 231.723 122.221 233.69 127.98Z" fill="white"/>
<path opacity="0.31" d="M233.84 128.636C231.581 127.553 228.982 128.462 226.24 132.791C223.499 137.12 221.168 144.349 220.916 146.411L224.953 148.646C224.953 148.646 234.677 134.395 233.84 128.636Z" fill="#5878DB"/>
<path d="M226.872 123.967C226.872 123.967 219.351 141.655 224.771 174.59H256.094C256.481 169.779 254.269 146.324 259.697 123.667C256.248 122.995 252.76 122.552 249.253 122.339C244.819 122.086 240.375 122.086 235.941 122.339C232.881 122.65 229.849 123.194 226.872 123.967Z" fill="#5878DB"/>
<path opacity="0.7" d="M226.872 123.967C226.872 123.967 219.351 141.655 224.771 174.59H256.094C256.481 169.779 254.269 146.324 259.697 123.667C256.248 122.995 252.76 122.552 249.253 122.339C244.819 122.086 240.375 122.086 235.941 122.339C232.881 122.65 229.849 123.194 226.872 123.967Z" fill="white"/>
<path d="M267.186 314.918L262.549 319.073L253.708 309.87L258.354 305.714L267.186 314.918Z" fill="#E4897B"/>
<path d="M251.283 323.56H245.429L244.671 310.004H250.525L251.283 323.56Z" fill="#E4897B"/>
<path d="M253.716 309.87L258.267 314.617L262.912 310.454L258.362 305.714L253.716 309.87Z" fill="#CE6F64"/>
<path d="M250.525 310.004H244.671L245.066 316.995H250.92L250.525 310.004Z" fill="#CE6F64"/>
<path d="M224.771 174.59C224.771 174.59 218.601 217.297 216.5 240.539C214.809 259.191 255.138 314.799 255.138 314.799L262.936 307.46C262.936 307.46 233.485 257.603 235.752 236.842C237.948 216.736 245.39 174.566 245.39 174.566L224.771 174.59Z" fill="#5878DB"/>
<path opacity="0.7" d="M224.771 174.59C224.771 174.59 218.601 217.297 216.5 240.539C214.809 259.191 255.138 314.799 255.138 314.799L262.936 307.46C262.936 307.46 233.485 257.603 235.752 236.842C237.948 216.736 245.39 174.566 245.39 174.566L224.771 174.59Z" fill="black"/>
<path opacity="0.2" d="M235.752 236.866C236.882 226.509 239.41 210.282 241.582 196.994C240.444 194.767 237.253 190.256 237.253 190.256C234.393 200.139 228.176 237.395 237.047 287.71C246.29 302.61 255.138 314.823 255.138 314.823L256.347 295.61C247.807 279.542 234.18 251.22 235.752 236.866Z" fill="black"/>
<path d="M235.91 174.59C235.91 174.59 235.357 219.344 236.305 236.115C237.34 254.475 242.554 315.313 242.554 315.313H253.282C253.282 315.313 252.958 255.96 253.59 237.79C254.293 218.04 256.11 174.59 256.11 174.59H235.91Z" fill="#5878DB"/>
<path opacity="0.7" d="M235.91 174.59C235.91 174.59 235.357 219.344 236.305 236.115C237.34 254.475 242.554 315.313 242.554 315.313H253.282C253.282 315.313 252.958 255.96 253.59 237.79C254.293 218.04 256.11 174.59 256.11 174.59H235.91Z" fill="black"/>
<path d="M245.121 322.889H251.702C251.812 322.885 251.919 322.924 252 322.997C252.081 323.071 252.13 323.174 252.136 323.284L252.46 328.49C252.461 328.626 252.436 328.761 252.385 328.887C252.334 329.013 252.258 329.127 252.163 329.224C252.067 329.321 251.954 329.398 251.829 329.451C251.704 329.504 251.569 329.532 251.433 329.533C249.142 329.493 248.044 329.359 245.153 329.359C243.375 329.359 235.807 329.549 233.35 329.549C230.893 329.549 230.98 327.115 231.999 326.894C236.668 325.907 242.459 324.524 244.118 323.244C244.404 323.018 244.757 322.893 245.121 322.889Z" fill="#263238"/>
<path d="M261.269 317.406L266.909 313.606C267.002 313.533 267.116 313.494 267.233 313.494C267.351 313.494 267.465 313.533 267.557 313.606L271.871 317.959C271.955 318.055 272.017 318.168 272.053 318.29C272.088 318.412 272.096 318.541 272.077 318.667C272.057 318.793 272.01 318.913 271.939 319.019C271.868 319.124 271.774 319.213 271.665 319.279C268.063 322.051 265.464 324.145 263.41 326.452C261.04 329.146 259.76 329.533 254.23 329.533C251.67 329.533 250.225 327.376 251.267 327.044C260.479 324.129 258.014 322.857 260.258 318.583C260.492 318.113 260.839 317.708 261.269 317.406Z" fill="#263238"/>
<path d="M190.477 180.562L184.37 180.776L185.65 185.563C185.65 185.563 192.033 186.132 192.602 184.204L190.477 180.562Z" fill="#E4897B"/>
<path d="M177.782 183.628L182.063 186.124L185.65 185.563L184.37 180.776L177.782 183.628Z" fill="#E4897B"/>
<path opacity="0.31" d="M252.697 129.26C252.05 132.989 252.911 141.9 256.11 152.217C256.361 143.378 257.389 134.577 259.183 125.918V125.871C257.129 125.665 253.321 125.76 252.697 129.26Z" fill="#5878DB"/>
<path d="M248.455 107.345C247.467 111.627 246.354 119.48 249.245 122.355C249.245 122.355 247.997 125.902 240.034 125.902C231.28 125.902 235.933 122.355 235.933 122.355C240.752 121.218 240.752 117.671 240.034 114.345L248.455 107.345Z" fill="#E4897B"/>
<path d="M239.812 125.886L237.442 128.407L238.604 130.84L240.492 130.927L242.103 128.604L239.812 125.886Z" fill="#5878DB"/>
<path d="M245.026 110.197L240.042 114.321C240.221 115.1 240.332 115.893 240.373 116.691C242.206 116.43 244.782 114.424 245.042 112.512C245.182 111.746 245.176 110.961 245.026 110.197Z" fill="#CE6F64"/>
<path d="M238.066 92.825C235.072 93.8441 232.679 101.784 236.171 103.885C239.662 105.986 243.754 90.8895 238.066 92.825Z" fill="#263238"/>
<path d="M250.327 102.858C248.542 108.388 247.784 111.73 244.181 113.997C243.019 114.744 241.675 115.159 240.294 115.197C238.913 115.235 237.548 114.895 236.346 114.213C235.145 113.531 234.152 112.534 233.477 111.329C232.801 110.124 232.468 108.758 232.513 107.377C232.584 102.06 235.491 93.8758 241.614 92.8488C242.933 92.594 244.296 92.6905 245.567 93.1284C246.838 93.5663 247.971 94.3303 248.853 95.3439C249.736 96.3575 250.336 97.5851 250.595 98.9039C250.854 100.223 250.761 101.586 250.327 102.858Z" fill="#E4897B"/>
<path d="M254.751 93.615C252.966 97.9284 257.121 94.326 256.047 99.4452C255.352 102.779 249.332 110.766 247.009 110.039C244.687 109.312 244.71 103.648 247.673 99.6427C249.379 97.3438 245.69 94.7368 237.403 95.0133C229.116 95.2898 224.107 90.6288 235.12 87.2081C235.12 87.2081 231.059 89.5781 233.469 90.3681C236.882 91.64 258.33 84.9724 254.751 93.615Z" fill="#263238"/>
<path d="M253.171 95.59C253.084 95.59 255.028 95.1081 256.063 91.64C256.063 91.6953 255.723 96.8066 253.171 95.59Z" fill="#263238"/>
<path d="M237.664 87.9744C232.568 89.5544 234.677 91.3319 236.787 91.7743L241.622 89.8783C234.275 90.85 237.664 87.9744 237.664 87.9744Z" fill="#263238"/>
<path d="M251.307 109.613C250.247 110.642 248.834 111.227 247.357 111.248C245.406 111.248 244.987 109.399 246.038 107.851C246.97 106.46 249.103 104.786 250.825 105.536C252.547 106.287 252.603 108.341 251.307 109.613Z" fill="#E4897B"/>
<path d="M241.329 102.55C241.211 103.008 240.871 103.34 240.539 103.261C240.207 103.182 240.089 102.763 240.207 102.305C240.326 101.847 240.666 101.515 240.997 101.602C241.329 101.689 241.448 102.092 241.329 102.55Z" fill="#263238"/>
<path d="M236.115 101.404C235.997 101.863 235.657 102.194 235.325 102.115C234.993 102.036 234.875 101.626 234.993 101.167C235.112 100.709 235.444 100.377 235.783 100.456C236.123 100.535 236.21 100.946 236.115 101.404Z" fill="#263238"/>
<path d="M237.711 101.997C236.813 103.276 235.75 104.431 234.551 105.433C234.815 105.727 235.14 105.958 235.503 106.113C235.866 106.267 236.258 106.34 236.652 106.326L237.711 101.997Z" fill="#DE5753"/>
<path d="M238.58 107.993C238.253 107.993 237.927 107.956 237.608 107.882C237.573 107.873 237.543 107.851 237.524 107.82C237.505 107.789 237.498 107.752 237.506 107.717C237.515 107.681 237.537 107.651 237.568 107.632C237.599 107.613 237.636 107.607 237.672 107.614C238.253 107.743 238.857 107.74 239.437 107.603C240.017 107.466 240.559 107.2 241.021 106.824C241.048 106.798 241.083 106.784 241.12 106.784C241.157 106.784 241.192 106.798 241.219 106.824C241.244 106.85 241.259 106.886 241.259 106.923C241.259 106.959 241.244 106.995 241.219 107.021C240.485 107.653 239.548 107.998 238.58 107.993Z" fill="#263238"/>
<path d="M243.399 101.231C243.345 101.232 243.292 101.216 243.247 101.187C243.202 101.157 243.167 101.115 243.146 101.065C243.017 100.748 242.812 100.467 242.551 100.245C242.29 100.024 241.979 99.8688 241.645 99.7929C241.609 99.788 241.574 99.776 241.542 99.7574C241.51 99.7388 241.482 99.7141 241.46 99.6847C241.438 99.6552 241.422 99.6217 241.413 99.586C241.404 99.5503 241.403 99.5132 241.408 99.4769C241.42 99.4041 241.459 99.3388 241.518 99.2946C241.577 99.2503 241.651 99.2307 241.724 99.2399C242.15 99.3266 242.548 99.5158 242.884 99.7912C243.22 100.066 243.483 100.42 243.652 100.82C243.667 100.853 243.676 100.889 243.677 100.925C243.679 100.962 243.672 100.998 243.659 101.032C243.646 101.066 243.626 101.097 243.6 101.123C243.574 101.149 243.543 101.17 243.51 101.183C243.477 101.207 243.439 101.223 243.399 101.231Z" fill="#263238"/>
<path d="M234.354 99.1371C234.29 99.1366 234.229 99.1143 234.18 99.0739C234.123 99.0262 234.087 98.9582 234.08 98.8845C234.072 98.8107 234.094 98.7369 234.14 98.6789C234.419 98.3326 234.773 98.0549 235.175 97.8673C235.578 97.6796 236.019 97.587 236.463 97.5966C236.499 97.5996 236.535 97.6098 236.567 97.6265C236.599 97.6432 236.628 97.6662 236.652 97.6941C236.675 97.722 236.693 97.7543 236.704 97.7891C236.715 97.8239 236.719 97.8605 236.716 97.8968C236.714 97.9336 236.704 97.9695 236.688 98.0025C236.672 98.0355 236.649 98.0647 236.62 98.0884C236.592 98.1121 236.56 98.1298 236.524 98.1403C236.489 98.1508 236.452 98.154 236.415 98.1496C236.06 98.1459 235.709 98.2237 235.388 98.3771C235.068 98.5305 234.787 98.7554 234.567 99.0344C234.541 99.0667 234.509 99.0927 234.472 99.1106C234.435 99.1284 234.395 99.1374 234.354 99.1371Z" fill="#263238"/>
<path d="M261.213 127.703C261.83 128.659 262.343 129.505 262.865 130.421C263.386 131.337 263.884 132.222 264.373 133.139C265.337 134.964 266.246 136.828 267.075 138.732C268.815 142.63 270.121 146.707 270.97 150.89L271.049 151.293L271.088 151.49L271.144 151.822C271.211 152.264 271.245 152.71 271.246 153.157C271.239 153.906 271.159 154.652 271.009 155.385C270.742 156.595 270.356 157.775 269.856 158.908C268.969 160.895 267.912 162.801 266.696 164.604C264.398 168.034 261.785 171.243 258.891 174.187L255.454 171.43C257.366 168.096 259.27 164.636 260.866 161.247C261.65 159.626 262.321 157.952 262.872 156.238C263.098 155.523 263.251 154.788 263.331 154.042C263.358 153.798 263.358 153.552 263.331 153.307C263.331 153.236 263.331 153.173 263.283 153.165C263.236 153.157 263.283 153.165 263.283 153.126L263.236 152.968L263.141 152.644C262.642 150.901 262.048 149.187 261.364 147.509C260.668 145.794 259.894 144.088 259.081 142.39C258.267 140.691 257.39 139.016 256.489 137.342C256.047 136.504 255.581 135.675 255.115 134.853L253.724 132.483L261.213 127.703Z" fill="#E4897B"/>
<path d="M243.051 323.9C242.657 323.94 242.262 323.83 241.945 323.592C241.856 323.493 241.793 323.373 241.763 323.243C241.733 323.113 241.736 322.978 241.772 322.849C241.789 322.763 241.828 322.682 241.884 322.615C241.941 322.547 242.014 322.495 242.096 322.462C242.814 322.178 244.466 323.315 244.655 323.442C244.679 323.456 244.697 323.478 244.707 323.504C244.717 323.529 244.718 323.558 244.71 323.584C244.706 323.611 244.694 323.635 244.676 323.655C244.658 323.675 244.634 323.689 244.608 323.695C244.098 323.817 243.576 323.886 243.051 323.9ZM242.364 322.691C242.309 322.682 242.253 322.682 242.198 322.691C242.158 322.706 242.123 322.731 242.096 322.765C242.07 322.798 242.053 322.838 242.048 322.881C242.019 322.964 242.013 323.053 242.03 323.139C242.046 323.225 242.085 323.305 242.143 323.371C242.412 323.639 243.178 323.671 244.229 323.466C243.67 323.078 243.034 322.817 242.364 322.699V322.691Z" fill="white"/>
<path d="M244.576 323.703H244.505C243.92 323.355 243.051 322.123 243.186 321.491C243.209 321.375 243.271 321.27 243.361 321.194C243.452 321.118 243.565 321.075 243.683 321.072C243.788 321.058 243.893 321.068 243.993 321.101C244.093 321.134 244.184 321.189 244.26 321.261C244.853 321.838 244.718 323.521 244.718 323.592C244.715 323.616 244.707 323.638 244.693 323.657C244.679 323.677 244.661 323.692 244.639 323.703H244.576ZM243.786 321.333H243.723C243.525 321.333 243.478 321.451 243.462 321.53C243.375 321.949 243.952 322.873 244.458 323.3C244.53 322.659 244.398 322.011 244.078 321.451C244.039 321.412 243.992 321.382 243.94 321.362C243.889 321.341 243.834 321.331 243.778 321.333H243.786Z" fill="white"/>
<path d="M257.477 320.582C257.331 320.586 257.185 320.559 257.05 320.503C256.946 320.461 256.854 320.395 256.781 320.31C256.708 320.224 256.657 320.123 256.632 320.013C256.611 319.947 256.609 319.876 256.624 319.808C256.639 319.74 256.672 319.678 256.718 319.626C257.248 318.986 260.021 319.176 260.337 319.2C260.366 319.2 260.394 319.211 260.417 319.23C260.44 319.248 260.456 319.274 260.463 319.302C260.469 319.331 260.466 319.36 260.455 319.387C260.444 319.414 260.424 319.437 260.4 319.452C259.518 320.034 258.521 320.419 257.477 320.582ZM259.152 319.429C258.18 319.429 257.161 319.523 256.932 319.8C256.918 319.821 256.911 319.846 256.911 319.871C256.911 319.896 256.918 319.921 256.932 319.942C256.945 320.01 256.975 320.074 257.019 320.128C257.063 320.182 257.12 320.224 257.185 320.25C257.627 320.432 258.622 320.132 259.878 319.46L259.152 319.429Z" fill="white"/>
<path d="M260.329 319.476C259.539 319.476 257.761 318.868 257.627 318.236C257.627 318.078 257.627 317.856 258.006 317.675C259.365 317.035 260.416 319.184 260.463 319.255C260.473 319.277 260.478 319.301 260.478 319.326C260.478 319.35 260.473 319.375 260.463 319.397C260.45 319.421 260.431 319.441 260.407 319.455C260.383 319.469 260.356 319.476 260.329 319.476ZM258.504 317.841C258.37 317.839 258.237 317.869 258.117 317.928C257.951 318.007 257.872 318.093 257.888 318.172C257.967 318.544 259.246 319.065 260.084 319.176C259.831 318.749 259.223 317.841 258.504 317.841Z" fill="white"/>
<path d="M257.019 170.15L251.22 169.131L254.214 175.886C254.214 175.886 259.531 175.886 259.294 173.105L257.019 170.15Z" fill="#E4897B"/>
<path d="M246.836 172.528L249.577 177.979L254.182 175.886L251.188 169.131L246.836 172.528Z" fill="#E4897B"/>
<path d="M263.41 307.041L254.664 315.273L251.844 312.248L261.853 303.131L263.41 307.041Z" fill="#5878DB"/>
<path opacity="0.6" d="M263.41 307.041L254.664 315.273L251.844 312.248L261.853 303.131L263.41 307.041Z" fill="white"/>
<path d="M253.709 315.313H242.119L241.479 311.236L254.269 311.876L253.709 315.313Z" fill="#5878DB"/>
<path opacity="0.6" d="M253.709 315.313H242.119L241.479 311.236L254.269 311.876L253.709 315.313Z" fill="white"/>
<path d="M259.697 123.667C265.227 124.457 270.891 143.669 270.891 143.669L259.041 150.242C259.041 150.242 254.23 141.11 251.931 134.332C249.522 127.229 253.78 122.798 259.697 123.667Z" fill="#5878DB"/>
<path opacity="0.7" d="M259.697 123.667C265.227 124.457 270.891 143.669 270.891 143.669L259.041 150.242C259.041 150.242 254.23 141.11 251.931 134.332C249.522 127.229 253.78 122.798 259.697 123.667Z" fill="white"/>
<path opacity="0.2" d="M239.812 125.886L237.442 128.407L238.604 130.84L240.492 130.927L242.103 128.604L239.812 125.886Z" fill="black"/>
<path d="M238.809 130.405C238.809 130.405 234.314 149.026 234.14 152.897C233.895 158.221 236.123 167.314 236.123 167.314C236.123 167.314 239.283 159.754 239.931 152.731C240.579 145.708 240.097 134.347 240.389 130.405H238.809Z" fill="#5878DB"/>
<path opacity="0.2" d="M238.809 130.405C238.809 130.405 234.314 149.026 234.14 152.897C233.895 158.221 236.123 167.314 236.123 167.314C236.123 167.314 239.283 159.754 239.931 152.731C240.579 145.708 240.097 134.347 240.389 130.405H238.809Z" fill="black"/>
<path d="M239.812 125.886C240.713 127.344 241.234 129.003 241.329 130.713C241.329 130.713 251.188 127.237 250.722 122.142C250.722 122.142 249.324 121.312 248.439 120.641C248.439 120.641 248.107 123.848 239.812 125.886Z" fill="#5878DB"/>
<path opacity="0.6" d="M239.812 125.886C240.713 127.344 241.234 129.003 241.329 130.713C241.329 130.713 251.188 127.237 250.722 122.142C250.722 122.142 249.324 121.312 248.439 120.641C248.439 120.641 248.107 123.848 239.812 125.886Z" fill="white"/>
<path d="M239.812 125.886C238.906 127.266 238.253 128.796 237.885 130.405C237.885 130.405 233.421 127.387 234.764 122.355C235.582 122.026 236.425 121.761 237.284 121.565C237.284 121.565 236.7 124.82 239.812 125.886Z" fill="#5878DB"/>
<path opacity="0.6" d="M239.812 125.886C238.906 127.266 238.253 128.796 237.885 130.405C237.885 130.405 233.421 127.387 234.764 122.355C235.582 122.026 236.425 121.761 237.284 121.565C237.284 121.565 236.7 124.82 239.812 125.886Z" fill="white"/>
</svg>
