<svg width="182" height="48" viewBox="0 0 182 48" fill="none" xmlns="http://www.w3.org/2000/svg">
<path d="M39.4829 36.0134L34.8287 31.0715C32.6795 28.7908 31.1893 25.9654 30.5195 22.904L29.429 17.9201C28.0523 11.6282 22.6942 7.22614 16.5842 6.76816L15.8034 3.19979C15.3236 1.00703 13.1523 -0.38555 10.9621 0.0947893C8.7719 0.575129 7.38094 2.74896 7.86072 4.94172L8.64149 8.51009C3.28236 11.4834 0.253058 17.7249 1.62975 24.0168L2.72023 29.0007C3.39008 32.0621 3.21573 35.2504 2.21771 38.2214L0.053251 44.6587C-0.0639877 45.0074 0.0155251 45.3899 0.260564 45.6633C0.505602 45.9366 0.875442 46.0576 1.23286 45.9792L38.9604 37.7052C39.3178 37.6268 39.6052 37.3617 39.7141 37.0128C39.823 36.6638 39.7326 36.2794 39.4829 36.0134Z" fill="#5878DB" fill-opacity="0.9"/>
<path d="M14.2787 45.2014C15.911 47.2976 18.6395 48.4118 21.4015 47.806C24.1634 47.2003 26.1769 45.0462 26.7844 42.4587L14.2787 45.2014Z" fill="#5878DB" fill-opacity="0.9"/>
<path d="M60.6591 33.0579V41.5629H58.2605V19.3166H66.1559C68.6434 19.3166 70.5423 19.9058 71.8526 21.0843C73.1852 22.2627 73.8515 23.9637 73.8515 26.1872C73.8515 28.4108 73.1852 30.1118 71.8526 31.2902C70.5423 32.4687 68.6434 33.0579 66.1559 33.0579H60.6591ZM60.6591 30.7566H65.8561C67.0998 30.7566 68.0881 30.6232 68.8211 30.3563C69.5762 30.0895 70.1425 29.7338 70.5201 29.2891C70.8976 28.8221 71.1419 28.3218 71.253 27.7882C71.3862 27.2545 71.4529 26.7209 71.4529 26.1872C71.4529 25.6536 71.3862 25.1199 71.253 24.5863C71.1419 24.0527 70.8976 23.5635 70.5201 23.1188C70.1425 22.6518 69.5762 22.285 68.8211 22.0181C68.0881 21.7513 67.0998 21.6179 65.8561 21.6179H60.6591V30.7566Z" fill="#5878DB" fill-opacity="0.9"/>
<path d="M84.2549 42.0632C83.5219 42.0632 82.7779 41.9854 82.0228 41.8297C81.2899 41.6741 80.6014 41.4073 79.9573 41.0293C79.3355 40.6513 78.8247 40.1398 78.4249 39.495C78.0473 38.828 77.8585 37.9941 77.8585 36.9936C77.8585 35.615 78.114 34.5143 78.6248 33.6916C79.1578 32.8467 79.8796 32.2463 80.7902 31.8906C81.723 31.5126 82.789 31.3236 83.9883 31.3236C84.8767 31.3236 85.654 31.3903 86.3203 31.5237C87.0088 31.6349 87.6085 31.7905 88.1193 31.9906C88.6523 32.1908 89.1298 32.4242 89.5518 32.691L90.0182 34.8923C89.5074 34.5366 88.7634 34.2142 87.7861 33.9251C86.8311 33.636 85.7762 33.4915 84.6213 33.4915C83.2221 33.4915 82.145 33.7583 81.3898 34.292C80.6347 34.8256 80.2572 35.6039 80.2572 36.6267C80.2572 37.4716 80.4793 38.1387 80.9234 38.6278C81.3898 39.0948 81.9673 39.4283 82.6558 39.6284C83.3665 39.8285 84.0883 39.9286 84.8212 39.9286C86.2648 39.9286 87.3531 39.8285 88.086 39.6284C88.8411 39.4061 89.2187 38.9169 89.2187 38.1609V30.5231C89.2187 29.2335 88.8411 28.2885 88.086 27.6881C87.3309 27.0878 86.2537 26.7876 84.8545 26.7876C83.9661 26.7876 83.0222 26.921 82.0228 27.1878C81.0234 27.4324 80.1794 27.8326 79.4909 28.3885V25.9871C80.1794 25.5647 81.1011 25.2311 82.256 24.9865C83.4109 24.7419 84.5325 24.6197 85.6207 24.6197C86.3536 24.6197 87.031 24.6975 87.6529 24.8531C88.2747 24.9865 88.83 25.1978 89.3186 25.4868C89.8072 25.7537 90.2181 26.1094 90.5512 26.5541C90.9066 26.9766 91.1731 27.4769 91.3508 28.055C91.5506 28.6109 91.6506 29.2446 91.6506 29.9561V38.0275C91.6506 39.206 91.2952 40.0843 90.5845 40.6624C89.896 41.2405 88.9855 41.6185 87.8528 41.7964C86.7423 41.9743 85.543 42.0632 84.2549 42.0632Z" fill="#5878DB" fill-opacity="0.9"/>
<path d="M98.1195 48C97.7864 48 97.4754 47.9666 97.1867 47.8999C96.9202 47.8332 96.7092 47.7665 96.5537 47.6998V45.4985C96.7092 45.5652 96.9091 45.6319 97.1534 45.6987C97.3977 45.7654 97.6753 45.7987 97.9862 45.7987C98.7414 45.7987 99.3521 45.5875 99.8185 45.165C100.285 44.7425 100.674 44.1755 100.985 43.464C101.295 42.7747 101.595 41.9854 101.884 41.096V42.0632L94.8214 24.9198H97.5532L103.083 39.1281H102.584L108.08 24.9198H110.479L103.35 43.1972C102.839 44.5091 102.273 45.5097 101.651 46.1989C101.051 46.8882 100.44 47.3552 99.8185 47.5998C99.2189 47.8666 98.6525 48 98.1195 48Z" fill="#5878DB" fill-opacity="0.9"/>
<path d="M112.313 41.5629L121.174 19.3166H123.573L132.401 41.5629H129.836L122.14 21.5512L122.64 21.4845L114.911 41.5629H112.313ZM116.21 34.6255L117.243 32.3242H128.137L128.303 34.6255H116.21Z" fill="#5878DB" fill-opacity="0.9"/>
<path d="M138.117 41.5629H135.718V18.5828H138.117V41.5629Z" fill="#5878DB" fill-opacity="0.9"/>
<path d="M150.324 42.0632C148.725 42.0632 147.348 41.7408 146.193 41.096C145.06 40.4289 144.183 39.4394 143.561 38.1276C142.939 36.8157 142.628 35.1814 142.628 33.2247C142.628 30.3563 143.273 28.2106 144.561 26.7876C145.871 25.3423 147.659 24.6197 149.924 24.6197C151.701 24.6197 153.122 25.0199 154.188 25.8204C155.255 26.6208 156.021 27.6992 156.487 29.0556C156.976 30.4119 157.209 31.9462 157.187 33.6583H143.828L143.994 31.457H155.621L154.688 31.7905C154.622 30.1229 154.2 28.8777 153.422 28.055C152.645 27.2323 151.479 26.8209 149.924 26.8209C148.814 26.8209 147.903 27.0211 147.192 27.4213C146.482 27.8215 145.949 28.5219 145.593 29.5225C145.238 30.5009 145.06 31.8795 145.06 33.6583C145.06 35.6817 145.527 37.227 146.46 38.2943C147.415 39.3394 148.747 39.8619 150.457 39.8619C151.257 39.8619 152.001 39.8063 152.689 39.6951C153.4 39.5617 154.033 39.3838 154.588 39.1615C155.166 38.9391 155.688 38.6946 156.154 38.4277V40.8958C155.354 41.2738 154.466 41.5629 153.489 41.763C152.534 41.9631 151.479 42.0632 150.324 42.0632Z" fill="#5878DB" fill-opacity="0.9"/>
<path d="M161.68 41.5629V26.2539C161.946 26.1428 162.457 25.9538 163.212 25.6869C163.99 25.4201 164.911 25.1755 165.977 24.9532C167.066 24.7308 168.187 24.6197 169.342 24.6197C169.52 24.6197 169.698 24.6419 169.875 24.6864C170.053 24.7308 170.231 24.7753 170.408 24.8198V26.9544C169.831 26.8876 169.264 26.8543 168.709 26.8543C168.176 26.8543 167.654 26.8876 167.143 26.9544C166.633 26.9988 166.122 27.0655 165.611 27.1545C165.1 27.2434 164.589 27.3323 164.079 27.4213V41.5629H161.68Z" fill="#5878DB" fill-opacity="0.9"/>
<path d="M179.468 41.8297C178.291 41.8297 177.303 41.474 176.503 40.7624C175.704 40.0287 175.304 38.9503 175.304 37.5272V27.1211H172.406V24.9198H175.304V20.2171H177.702V24.9198H182V27.1211H177.702V36.7601C177.702 37.694 177.847 38.3944 178.136 38.8613C178.424 39.3283 179.013 39.5617 179.901 39.5617C180.301 39.5617 180.69 39.5284 181.067 39.4617C181.445 39.3727 181.756 39.2727 182 39.1615V41.4295C181.689 41.5407 181.289 41.6296 180.801 41.6963C180.334 41.7853 179.89 41.8297 179.468 41.8297Z" fill="#5878DB" fill-opacity="0.9"/>
</svg>
