<svg width="65" height="65" viewBox="0 0 65 65" fill="none" xmlns="http://www.w3.org/2000/svg">
<path d="M30.5957 0C26.3947 0 22.9785 3.54313 22.9785 7.74414C22.9785 11.9451 26.3947 15.3613 30.5957 15.3613C34.7967 15.3613 38.2129 11.9451 38.2129 7.74414C38.2129 3.54313 34.7967 0 30.5957 0Z" fill="#5878DB" fill-opacity="0.7"/>
<path d="M61.1914 32.5C61.1914 35.0658 59.3534 37.2163 57.0204 37.9354C55.8567 29.0234 47.7827 21.664 36.4574 19.6758L36.4443 19.6573C30.2368 18.6271 23.9604 19.2556 18.5023 21.4371C17.1187 17.8458 13.6598 15.3613 9.64844 15.3613H7.74414V29.3014C6.51676 30.9025 5.57578 32.6116 4.93606 34.4043H0V49.6387H6.84227C8.07155 51.5374 9.65034 53.2613 11.5527 54.7862V65H22.9785V60.1996C27.901 61.349 33.2978 61.347 38.2129 60.2016V65H49.6387V54.7955C53.9817 51.3145 56.6343 46.7016 57.1478 41.8397C61.5403 40.9958 65 37.1348 65 32.5H61.1914ZM15.3613 38.2129H11.5527V34.4043H15.3613V38.2129ZM39.3268 32.4144C34.0714 30.0136 26.9303 30.0601 21.8757 32.4014L20.2726 28.9461C26.3203 26.1399 34.6553 26.0971 40.9075 28.948L39.3268 32.4144Z" fill="#5878DB" fill-opacity="0.7"/>
</svg>
