<svg width="23" height="23" viewBox="0 0 23 23" fill="none" xmlns="http://www.w3.org/2000/svg">
<g clip-path="url(#clip0)">
<rect width="22.4221" height="22.4591" fill="white"/>
<path d="M22.2853 20.9988L15.7718 14.4746C17.0072 12.9469 17.7509 11.0047 17.7509 8.8901C17.7509 3.98812 13.7693 0 8.87542 0C3.98152 0 0 3.98812 0 8.8901C0 13.7921 3.98156 17.7802 8.87547 17.7802C10.9866 17.7802 12.9256 17.0353 14.4508 15.7979L20.9642 22.3221C21.1467 22.5048 21.4424 22.5048 21.6249 22.3221L22.2853 21.6605C22.4677 21.4777 22.4677 21.1815 22.2853 20.9988ZM8.87547 15.9086C5.01162 15.9086 1.86853 12.7603 1.86853 8.8901C1.86853 5.01988 5.01162 1.87161 8.87547 1.87161C12.7393 1.87161 15.8824 5.01988 15.8824 8.8901C15.8824 12.7603 12.7393 15.9086 8.87547 15.9086Z" fill="#5878DB" fill-opacity="0.6"/>
</g>
<defs>
<clipPath id="clip0">
<rect width="22.4221" height="22.4591" fill="white"/>
</clipPath>
</defs>
</svg>
