<svg width="607" height="657" viewBox="0 0 607 657" fill="none" xmlns="http://www.w3.org/2000/svg">
<path d="M301.788 150.683C239.437 173.484 101.866 81.3747 80.9655 193.03C63.7843 284.667 150.247 376.619 262.712 407.9C342.548 430.11 450.869 391.964 469.346 284.234C480.905 216.855 434.209 139.919 397.338 124.588C351.259 105.449 342.451 135.837 301.788 150.683Z" fill="#5878DB"/>
<path opacity="0.9" d="M301.788 150.683C239.437 173.484 101.866 81.3747 80.9655 193.03C63.7843 284.667 150.247 376.619 262.712 407.9C342.548 430.11 450.869 391.964 469.346 284.234C480.905 216.855 434.209 139.919 397.338 124.588C351.259 105.449 342.451 135.837 301.788 150.683Z" fill="white"/>
<path d="M303.448 561.875C433.194 561.875 538.374 555.222 538.374 547.016C538.374 538.809 433.194 532.156 303.448 532.156C173.702 532.156 68.5219 538.809 68.5219 547.016C68.5219 555.222 173.702 561.875 303.448 561.875Z" fill="#F5F5F5"/>
<path d="M226.569 169.021C226.573 166.576 226.391 164.135 226.024 161.723C224.4 151.061 219.359 141.36 211.786 134.326C204.214 127.291 194.596 123.374 184.622 123.262H184.258C177.567 123.266 170.972 124.994 165.018 128.304C159.065 131.613 153.923 136.409 150.017 142.295C149.375 143.254 148.805 144.238 148.224 145.223C148.176 145.288 148.136 145.358 148.103 145.433C144.125 152.559 142.03 160.732 142.044 169.061V169.152C142.069 178.832 144.925 188.254 150.202 196.065C155.478 203.876 162.904 209.674 171.413 212.627C179.921 215.58 189.075 215.536 197.559 212.501C206.043 209.466 213.421 203.596 218.633 195.734C219.263 194.776 219.844 193.804 220.414 192.807C220.461 192.742 220.502 192.671 220.535 192.597C224.507 185.488 226.595 177.331 226.569 169.021ZM143.85 167.984C143.99 160.489 145.923 153.162 149.46 146.719H162.679C160.659 153.598 159.601 160.766 159.541 167.984H143.85ZM164.533 146.719H183.386V167.984H161.358C161.398 160.761 162.469 153.588 164.533 146.719ZM185.203 144.75V125.165C187.824 125.422 190.333 126.433 192.473 128.092C196.968 131.426 200.737 137.281 203.378 144.75H185.203ZM204.032 146.719C205.531 151.636 206.507 156.723 206.94 161.88C207.122 163.928 207.207 165.963 207.231 167.984H185.203V146.719H204.032ZM180.72 125.716C181.59 125.449 182.483 125.281 183.386 125.218V144.789H165.211C168.604 134.892 174.105 127.699 180.72 125.677V125.716ZM183.386 169.993V191.258H164.569C163.07 186.328 162.102 181.227 161.685 176.057C161.516 174.009 161.419 171.975 161.394 169.953L183.386 169.993ZM183.386 193.227V212.812C180.766 212.552 178.256 211.542 176.116 209.884C171.633 206.55 167.865 200.696 165.211 193.227H183.386ZM187.869 212.3C186.999 212.569 186.106 212.736 185.203 212.798V193.187H203.378C199.985 203.045 194.484 210.252 187.869 212.26V212.3ZM185.203 191.297V169.966H207.231C207.197 177.19 206.126 184.364 204.056 191.231L185.203 191.297ZM209.048 169.966H224.8C224.653 177.46 222.721 184.785 219.19 191.231H205.91C207.93 184.352 208.988 177.185 209.048 169.966ZM224.8 167.997H209.048C209.048 165.923 208.927 163.823 208.745 161.71C208.332 156.622 207.401 151.599 205.971 146.732H219.166C221.715 151.422 223.437 156.586 224.242 161.959C224.531 163.954 224.701 165.966 224.751 167.984L224.8 167.997ZM207.994 133.435C211.955 136.525 215.369 140.363 218.075 144.763H205.304C202.59 136.638 198.507 130.206 193.503 126.478L193.115 126.202C198.458 127.498 203.503 129.954 207.946 133.422L207.994 133.435ZM175.437 126.228C170.336 129.864 166.144 136.48 163.321 144.763H150.599L151.483 143.359C157.237 134.657 165.747 128.554 175.389 126.215L175.437 126.228ZM143.935 169.966H159.625C159.625 172.04 159.747 174.141 159.928 176.254C160.348 181.341 161.278 186.363 162.703 191.231H149.435C146.88 186.544 145.158 181.379 144.359 176.005C144.057 174.007 143.887 171.99 143.85 169.966H143.935ZM150.647 193.2H163.321C166.035 201.326 170.118 207.758 175.122 211.486L175.522 211.761C165.341 209.256 156.437 202.612 150.647 193.2ZM193.188 211.722C198.277 208.099 202.469 201.47 205.304 193.187H218.002C217.712 193.66 217.421 194.132 217.118 194.592C211.359 203.298 202.839 209.397 193.188 211.722Z" fill="#5878DB"/>
<path opacity="0.8" d="M226.569 169.021C226.573 166.576 226.391 164.135 226.024 161.723C224.4 151.061 219.359 141.36 211.786 134.326C204.214 127.291 194.596 123.374 184.622 123.262H184.258C177.567 123.266 170.972 124.994 165.018 128.304C159.065 131.613 153.923 136.409 150.017 142.295C149.375 143.254 148.805 144.238 148.224 145.223C148.176 145.288 148.136 145.358 148.103 145.433C144.125 152.559 142.03 160.732 142.044 169.061V169.152C142.069 178.832 144.925 188.254 150.202 196.065C155.478 203.876 162.904 209.674 171.413 212.627C179.921 215.58 189.075 215.536 197.559 212.501C206.043 209.466 213.421 203.596 218.633 195.734C219.263 194.776 219.844 193.804 220.414 192.807C220.461 192.742 220.502 192.671 220.535 192.597C224.507 185.488 226.595 177.331 226.569 169.021ZM143.85 167.984C143.99 160.489 145.923 153.162 149.46 146.719H162.679C160.659 153.598 159.601 160.766 159.541 167.984H143.85ZM164.533 146.719H183.386V167.984H161.358C161.398 160.761 162.469 153.588 164.533 146.719ZM185.203 144.75V125.165C187.824 125.422 190.333 126.433 192.473 128.092C196.968 131.426 200.737 137.281 203.378 144.75H185.203ZM204.032 146.719C205.531 151.636 206.507 156.723 206.94 161.88C207.122 163.928 207.207 165.963 207.231 167.984H185.203V146.719H204.032ZM180.72 125.716C181.59 125.449 182.483 125.281 183.386 125.218V144.789H165.211C168.604 134.892 174.105 127.699 180.72 125.677V125.716ZM183.386 169.993V191.258H164.569C163.07 186.328 162.102 181.227 161.685 176.057C161.516 174.009 161.419 171.975 161.394 169.953L183.386 169.993ZM183.386 193.227V212.812C180.766 212.552 178.256 211.542 176.116 209.884C171.633 206.55 167.865 200.696 165.211 193.227H183.386ZM187.869 212.3C186.999 212.569 186.106 212.736 185.203 212.798V193.187H203.378C199.985 203.045 194.484 210.252 187.869 212.26V212.3ZM185.203 191.297V169.966H207.231C207.197 177.19 206.126 184.364 204.056 191.231L185.203 191.297ZM209.048 169.966H224.8C224.653 177.46 222.721 184.785 219.19 191.231H205.91C207.93 184.352 208.988 177.185 209.048 169.966ZM224.8 167.997H209.048C209.048 165.923 208.927 163.823 208.745 161.71C208.332 156.622 207.401 151.599 205.971 146.732H219.166C221.715 151.422 223.437 156.586 224.242 161.959C224.531 163.954 224.701 165.966 224.751 167.984L224.8 167.997ZM207.994 133.435C211.955 136.525 215.369 140.363 218.075 144.763H205.304C202.59 136.638 198.507 130.206 193.503 126.478L193.115 126.202C198.458 127.498 203.503 129.954 207.946 133.422L207.994 133.435ZM175.437 126.228C170.336 129.864 166.144 136.48 163.321 144.763H150.599L151.483 143.359C157.237 134.657 165.747 128.554 175.389 126.215L175.437 126.228ZM143.935 169.966H159.625C159.625 172.04 159.747 174.141 159.928 176.254C160.348 181.341 161.278 186.363 162.703 191.231H149.435C146.88 186.544 145.158 181.379 144.359 176.005C144.057 174.007 143.887 171.99 143.85 169.966H143.935ZM150.647 193.2H163.321C166.035 201.326 170.118 207.758 175.122 211.486L175.522 211.761C165.341 209.256 156.437 202.612 150.647 193.2ZM193.188 211.722C198.277 208.099 202.469 201.47 205.304 193.187H218.002C217.712 193.66 217.421 194.132 217.118 194.592C211.359 203.298 202.839 209.397 193.188 211.722Z" fill="#FAFAFA"/>
<path d="M502.509 190.838H121.568V290.837H502.509V190.838Z" fill="#5878DB"/>
<path opacity="0.6" d="M502.509 190.838H121.568V290.837H502.509V190.838Z" fill="#FAFAFA"/>
<path d="M493.918 200.145H112.977V300.143H493.918V200.145Z" fill="#5878DB"/>
<path opacity="0.3" d="M493.918 200.145H112.977V300.143H493.918V200.145Z" fill="black"/>
<path d="M485.328 209.451H104.386V309.45H485.328V209.451Z" fill="#5878DB"/>
<path opacity="0.1" d="M485.328 209.451H104.386V309.45H485.328V209.451Z" fill="#FAFAFA"/>
<path d="M467.153 289.76V229.142L122.561 229.142V289.76H467.153Z" fill="#5878DB"/>
<path opacity="0.9" d="M467.153 289.76V229.142L122.561 229.142V289.76H467.153Z" fill="#FAFAFA"/>
<path d="M409.188 229.141V289.76H411.211V229.141H409.188Z" fill="#5878DB"/>
<path opacity="0.6" d="M409.188 229.141V289.76H411.211V229.141H409.188Z" fill="#FAFAFA"/>
<path d="M131.152 237.503V281.398H133.175V237.503H131.152Z" fill="#5878DB"/>
<path opacity="0.6" d="M131.152 237.503V281.398H133.175V237.503H131.152Z" fill="#FAFAFA"/>
<path d="M437.25 267.103C435.78 267.103 434.332 266.709 433.036 265.958C431.739 265.207 430.634 264.121 429.817 262.796C429.001 261.471 428.498 259.949 428.355 258.364C428.211 256.779 428.43 255.18 428.992 253.708C429.555 252.237 430.444 250.938 431.581 249.928C432.717 248.917 434.066 248.226 435.508 247.915C436.95 247.604 438.44 247.683 439.847 248.145C441.254 248.607 442.535 249.438 443.575 250.564C444.826 251.919 445.678 253.645 446.023 255.525C446.369 257.405 446.192 259.353 445.515 261.124C444.837 262.894 443.691 264.408 442.22 265.472C440.748 266.537 439.019 267.104 437.25 267.103ZM437.25 250.367C435.741 250.367 434.28 250.935 433.114 251.972C431.948 253.009 431.151 254.452 430.857 256.055C430.564 257.658 430.793 259.322 431.505 260.763C432.217 262.204 433.368 263.332 434.762 263.956C436.157 264.58 437.707 264.661 439.15 264.185C440.593 263.709 441.839 262.705 442.676 261.345C443.513 259.986 443.888 258.353 443.738 256.727C443.588 255.101 442.922 253.582 441.854 252.428C441.256 251.759 440.54 251.227 439.75 250.862C438.959 250.497 438.109 250.306 437.25 250.301V250.367Z" fill="#5878DB"/>
<path d="M448.845 271.225C448.685 271.224 448.526 271.189 448.379 271.122C448.231 271.054 448.097 270.955 447.985 270.831L441.866 264.202C441.739 264.085 441.636 263.94 441.564 263.777C441.491 263.614 441.45 263.437 441.444 263.256C441.437 263.075 441.465 262.895 441.526 262.726C441.587 262.558 441.679 262.405 441.798 262.277C441.916 262.149 442.057 262.049 442.212 261.983C442.368 261.917 442.534 261.887 442.701 261.894C442.868 261.901 443.032 261.945 443.182 262.024C443.332 262.102 443.466 262.214 443.575 262.351L449.693 268.98C449.919 269.226 450.046 269.559 450.046 269.906C450.046 270.253 449.919 270.585 449.693 270.831C449.47 271.079 449.165 271.22 448.845 271.225Z" fill="#5878DB"/>
<g opacity="0.6">
<path opacity="0.6" d="M437.25 267.103C435.78 267.103 434.332 266.709 433.036 265.958C431.739 265.207 430.634 264.121 429.817 262.796C429.001 261.471 428.498 259.949 428.355 258.364C428.211 256.779 428.43 255.18 428.992 253.708C429.555 252.237 430.444 250.938 431.581 249.928C432.717 248.917 434.066 248.226 435.508 247.915C436.95 247.604 438.44 247.683 439.847 248.145C441.254 248.607 442.535 249.438 443.575 250.564C444.826 251.919 445.678 253.645 446.023 255.525C446.369 257.405 446.192 259.353 445.515 261.124C444.837 262.894 443.691 264.408 442.22 265.472C440.748 266.537 439.019 267.104 437.25 267.103ZM437.25 250.367C435.741 250.367 434.28 250.935 433.114 251.972C431.948 253.009 431.151 254.452 430.857 256.055C430.564 257.658 430.793 259.322 431.505 260.763C432.217 262.204 433.368 263.332 434.762 263.956C436.157 264.58 437.707 264.661 439.15 264.185C440.593 263.709 441.839 262.705 442.676 261.345C443.513 259.986 443.888 258.353 443.738 256.727C443.588 255.101 442.922 253.582 441.854 252.428C441.256 251.759 440.54 251.227 439.75 250.862C438.959 250.497 438.109 250.306 437.25 250.301V250.367Z" fill="#FAFAFA"/>
<path opacity="0.6" d="M448.845 271.225C448.685 271.224 448.526 271.189 448.379 271.122C448.231 271.054 448.097 270.955 447.985 270.831L441.866 264.202C441.739 264.085 441.636 263.94 441.564 263.777C441.491 263.614 441.45 263.437 441.444 263.256C441.437 263.075 441.465 262.895 441.526 262.726C441.587 262.558 441.679 262.405 441.798 262.277C441.916 262.149 442.057 262.049 442.212 261.983C442.368 261.917 442.534 261.887 442.701 261.894C442.868 261.901 443.032 261.945 443.182 262.024C443.332 262.102 443.466 262.214 443.575 262.351L449.693 268.98C449.919 269.226 450.046 269.559 450.046 269.906C450.046 270.253 449.919 270.585 449.693 270.831C449.47 271.079 449.165 271.22 448.845 271.225Z" fill="#FAFAFA"/>
</g>
<path d="M355.052 130.39H316.958V131.414H355.052V130.39Z" fill="#5878DB"/>
<path d="M355.052 134.734H316.958V135.758H355.052V134.734Z" fill="#5878DB"/>
<path d="M355.052 139.093H316.958V140.117H355.052V139.093Z" fill="#5878DB"/>
<path d="M355.052 143.438H316.958V144.461H355.052V143.438Z" fill="#5878DB"/>
<path d="M355.052 147.782H316.958V148.806H355.052V147.782Z" fill="#5878DB"/>
<path d="M341.796 152.141H316.958V153.164H341.796V152.141Z" fill="#5878DB"/>
<g opacity="0.5">
<path opacity="0.5" d="M355.052 130.39H316.958V131.414H355.052V130.39Z" fill="#FAFAFA"/>
<path opacity="0.5" d="M355.052 134.734H316.958V135.758H355.052V134.734Z" fill="#FAFAFA"/>
<path opacity="0.5" d="M355.052 139.093H316.958V140.117H355.052V139.093Z" fill="#FAFAFA"/>
<path opacity="0.5" d="M355.052 143.438H316.958V144.461H355.052V143.438Z" fill="#FAFAFA"/>
<path opacity="0.5" d="M355.052 147.782H316.958V148.806H355.052V147.782Z" fill="#FAFAFA"/>
<path opacity="0.5" d="M341.796 152.141H316.958V153.164H341.796V152.141Z" fill="#FAFAFA"/>
</g>
<path d="M125.76 318.087H85.1698V318.743H125.76V318.087Z" fill="#5878DB"/>
<path d="M125.76 320.87H85.1698V321.526H125.76V320.87Z" fill="#5878DB"/>
<path d="M125.76 323.653H85.1698V324.31H125.76V323.653Z" fill="#5878DB"/>
<path d="M125.76 326.436H85.1698V327.092H125.76V326.436Z" fill="#5878DB"/>
<path d="M125.76 329.219H85.1698V329.875H125.76V329.219Z" fill="#5878DB"/>
<path d="M110.687 332.015H85.1698V332.671H110.687V332.015Z" fill="#5878DB"/>
<g opacity="0.4">
<path opacity="0.4" d="M125.76 318.087H85.1698V318.743H125.76V318.087Z" fill="#FAFAFA"/>
<path opacity="0.4" d="M125.76 320.87H85.1698V321.526H125.76V320.87Z" fill="#FAFAFA"/>
<path opacity="0.4" d="M125.76 323.652H85.1698V324.309H125.76V323.652Z" fill="#FAFAFA"/>
<path opacity="0.4" d="M125.76 326.436H85.1698V327.092H125.76V326.436Z" fill="#FAFAFA"/>
<path opacity="0.4" d="M125.76 329.218H85.1698V329.874H125.76V329.218Z" fill="#FAFAFA"/>
<path opacity="0.4" d="M110.687 332.015H85.1698V332.671H110.687V332.015Z" fill="#FAFAFA"/>
</g>
<path d="M259.162 136.835C257.131 136.835 255.183 137.709 253.747 139.265C252.311 140.821 251.505 142.931 251.505 145.131V172.5C251.505 174.7 252.311 176.81 253.747 178.366C255.183 179.922 257.131 180.796 259.162 180.796C261.193 180.796 263.141 179.922 264.577 178.366C266.013 176.81 266.82 174.7 266.82 172.5V145.131C266.82 142.931 266.013 140.821 264.577 139.265C263.141 137.709 261.193 136.835 259.162 136.835Z" fill="#5878DB"/>
<path opacity="0.2" d="M259.162 136.835C257.131 136.835 255.183 137.709 253.747 139.265C252.311 140.821 251.505 142.931 251.505 145.131V172.5C251.505 174.7 252.311 176.81 253.747 178.366C255.183 179.922 257.131 180.796 259.162 180.796C261.193 180.796 263.141 179.922 264.577 178.366C266.013 176.81 266.82 174.7 266.82 172.5V145.131C266.82 142.931 266.013 140.821 264.577 139.265C263.141 137.709 261.193 136.835 259.162 136.835Z" fill="#FAFAFA"/>
<path d="M278.355 120.519C276.33 120.529 274.392 121.408 272.963 122.962C271.535 124.517 270.733 126.621 270.733 128.815V172.5C270.733 174.7 271.54 176.81 272.976 178.366C274.412 179.922 276.36 180.796 278.391 180.796C280.422 180.796 282.37 179.922 283.806 178.366C285.242 176.81 286.048 174.7 286.048 172.5V128.815C286.049 127.722 285.849 126.64 285.462 125.631C285.075 124.622 284.508 123.705 283.793 122.935C283.078 122.164 282.229 121.553 281.296 121.139C280.363 120.724 279.363 120.513 278.355 120.519Z" fill="#5878DB"/>
<path opacity="0.3" d="M278.355 120.519C276.33 120.529 274.392 121.408 272.963 122.962C271.535 124.517 270.733 126.621 270.733 128.815V172.5C270.733 174.7 271.54 176.81 272.976 178.366C274.412 179.922 276.36 180.796 278.391 180.796C280.422 180.796 282.37 179.922 283.806 178.366C285.242 176.81 286.048 174.7 286.048 172.5V128.815C286.049 127.722 285.849 126.64 285.462 125.631C285.075 124.622 284.508 123.705 283.793 122.935C283.078 122.164 282.229 121.553 281.296 121.139C280.363 120.724 279.363 120.513 278.355 120.519Z" fill="black"/>
<path d="M297.535 153.151C295.504 153.151 293.556 154.025 292.12 155.581C290.684 157.137 289.877 159.247 289.877 161.447V172.5C289.877 174.7 290.684 176.81 292.12 178.366C293.556 179.922 295.504 180.796 297.535 180.796C298.542 180.798 299.539 180.584 300.469 180.168C301.4 179.752 302.245 179.141 302.958 178.371C303.67 177.6 304.235 176.685 304.621 175.678C305.006 174.67 305.205 173.591 305.205 172.5V161.447C305.205 160.357 305.006 159.277 304.621 158.27C304.235 157.262 303.67 156.347 302.958 155.577C302.245 154.806 301.4 154.195 300.469 153.779C299.539 153.363 298.542 153.15 297.535 153.151Z" fill="#5878DB"/>
<path opacity="0.6" d="M297.535 153.151C295.504 153.151 293.556 154.025 292.12 155.581C290.684 157.137 289.877 159.247 289.877 161.447V172.5C289.877 174.7 290.684 176.81 292.12 178.366C293.556 179.922 295.504 180.796 297.535 180.796C298.542 180.798 299.539 180.584 300.469 180.168C301.4 179.752 302.245 179.141 302.958 178.371C303.67 177.6 304.235 176.685 304.621 175.678C305.006 174.67 305.205 173.591 305.205 172.5V161.447C305.205 160.357 305.006 159.277 304.621 158.27C304.235 157.262 303.67 156.347 302.958 155.577C302.245 154.806 301.4 154.195 300.469 153.779C299.539 153.363 298.542 153.15 297.535 153.151Z" fill="#FAFAFA"/>
<path d="M459.277 340.783H490.235L437.383 281.398L459.277 340.783Z" fill="#5878DB"/>
<g opacity="0.1">
<path opacity="0.1" d="M459.277 340.783H490.235L437.383 281.398L459.277 340.783Z" fill="black"/>
</g>
<g style="mix-blend-mode:multiply">
<path d="M429.519 309.437L437.383 281.398L441.842 309.437H429.519Z" fill="#5878DB"/>
</g>
<path d="M437.383 281.398V364.49L442.86 358.57L459.277 340.783L437.383 281.398Z" fill="#5878DB"/>
<path opacity="0.3" d="M437.383 281.398V364.49L442.86 358.57L459.277 340.783L437.383 281.398Z" fill="#FAFAFA"/>
<path d="M492.125 103.165H424.273C420.834 103.179 417.54 104.664 415.107 107.297C412.674 109.93 411.3 113.498 411.284 117.224V155.186C411.3 158.909 412.672 162.475 415.103 165.108C417.533 167.741 420.824 169.227 424.261 169.245H474.047L473.684 182.516L486.249 169.245H492.101C495.54 169.231 498.834 167.746 501.267 165.112C503.7 162.479 505.074 158.911 505.09 155.186V117.224C505.074 113.503 503.703 109.939 501.276 107.306C498.848 104.674 495.56 103.186 492.125 103.165ZM422.746 119.337C422.746 118.293 423.129 117.291 423.811 116.552C424.493 115.814 425.417 115.399 426.381 115.399H441.999C442.963 115.399 443.888 115.814 444.57 116.552C445.251 117.291 445.634 118.293 445.634 119.337C445.634 120.381 445.251 121.383 444.57 122.122C443.888 122.86 442.963 123.275 441.999 123.275H426.369C425.407 123.272 424.486 122.855 423.807 122.117C423.128 121.379 422.746 120.379 422.746 119.337ZM488.272 156.092H461.277C460.754 156.191 460.218 156.165 459.706 156.016C459.193 155.866 458.718 155.598 458.311 155.228C457.905 154.858 457.579 154.397 457.355 153.876C457.131 153.355 457.015 152.787 457.015 152.213C457.015 151.638 457.131 151.07 457.355 150.549C457.579 150.029 457.905 149.567 458.311 149.197C458.718 148.828 459.193 148.559 459.706 148.41C460.218 148.261 460.754 148.235 461.277 148.334H488.272C488.795 148.235 489.331 148.261 489.843 148.41C490.355 148.559 490.831 148.828 491.237 149.197C491.644 149.567 491.97 150.029 492.194 150.549C492.418 151.07 492.534 151.638 492.534 152.213C492.534 152.787 492.418 153.355 492.194 153.876C491.97 154.397 491.644 154.858 491.237 155.228C490.831 155.598 490.355 155.866 489.843 156.016C489.331 156.165 488.795 156.191 488.272 156.092ZM488.272 139.67H430.004C429.482 139.769 428.945 139.743 428.433 139.594C427.921 139.445 427.445 139.176 427.039 138.807C426.633 138.437 426.306 137.975 426.082 137.455C425.858 136.934 425.742 136.366 425.742 135.791C425.742 135.217 425.858 134.649 426.082 134.128C426.306 133.607 426.633 133.146 427.039 132.776C427.445 132.406 427.921 132.138 428.433 131.988C428.945 131.839 429.482 131.813 430.004 131.912H488.272C488.795 131.813 489.331 131.839 489.843 131.988C490.355 132.138 490.831 132.406 491.237 132.776C491.644 133.146 491.97 133.607 492.194 134.128C492.418 134.649 492.534 135.217 492.534 135.791C492.534 136.366 492.418 136.934 492.194 137.455C491.97 137.975 491.644 138.437 491.237 138.807C490.831 139.176 490.355 139.445 489.843 139.594C489.331 139.743 488.795 139.769 488.272 139.67ZM488.272 123.249H453.777C452.813 123.249 451.888 122.834 451.206 122.095C450.525 121.357 450.142 120.355 450.142 119.311C450.142 118.266 450.525 117.265 451.206 116.526C451.888 115.788 452.813 115.373 453.777 115.373H488.272C489.236 115.373 490.161 115.788 490.842 116.526C491.524 117.265 491.907 118.266 491.907 119.311C491.907 120.355 491.524 121.357 490.842 122.095C490.161 122.834 489.236 123.249 488.272 123.249Z" fill="#5878DB"/>
<path d="M386.009 223.496C383.111 214.872 378.687 206.944 372.984 200.157H276.646C270.943 206.944 266.519 214.872 263.621 223.496L276.949 295.378C287.145 307.353 300.853 315.134 315.745 317.4C330.637 319.666 345.793 316.277 358.64 307.809C371.486 299.341 381.231 286.316 386.218 270.946C391.205 255.577 391.127 238.811 385.997 223.496H386.009Z" fill="#5878DB"/>
<path opacity="0.1" d="M386.009 223.496C383.111 214.872 378.687 206.944 372.984 200.157H276.646C270.943 206.944 266.519 214.872 263.621 223.496L276.949 295.378C287.145 307.353 300.853 315.134 315.745 317.4C330.637 319.666 345.793 316.277 358.64 307.809C371.486 299.341 381.231 286.316 386.218 270.946C391.205 255.577 391.127 238.811 385.997 223.496H386.009Z" fill="#FAFAFA"/>
<path d="M389.85 250.84C389.162 267.414 383.085 283.191 372.693 295.378H276.973C268.893 285.866 263.377 274.133 261.027 261.458C258.676 248.783 259.582 235.653 263.645 223.497H386.021C388.961 232.246 390.262 241.541 389.85 250.84Z" fill="#5878DB"/>
<path opacity="0.9" d="M389.85 250.84C389.162 267.414 383.085 283.191 372.693 295.378H276.973C268.893 285.866 263.377 274.133 261.027 261.458C258.676 248.783 259.582 235.653 263.645 223.497H386.021C388.961 232.246 390.262 241.541 389.85 250.84Z" fill="#FAFAFA"/>
<path opacity="0.3" d="M389.85 250.839C389.097 268.281 382.385 284.796 371.019 297.176C359.653 309.555 344.445 316.915 328.349 317.825C312.254 318.735 296.422 313.13 283.928 302.098C271.435 291.067 263.173 275.398 260.748 258.136C258.323 240.874 261.908 223.252 270.807 208.694C279.706 194.136 293.283 183.682 308.899 179.363C324.516 175.045 341.056 177.17 355.307 185.326C369.558 193.482 380.501 207.087 386.009 223.496C388.948 232.245 390.254 241.539 389.85 250.839Z" fill="white"/>
<path opacity="0.4" d="M361.51 189.342L267.898 281.832C267.43 280.896 266.969 279.95 266.517 278.997C263.655 272.789 261.666 266.152 260.616 259.307L341.469 179.418C348.624 181.461 355.402 184.817 361.51 189.342Z" fill="white"/>
<path opacity="0.4" d="M386.555 225.189L298.601 312.14C289.478 307.779 281.402 301.204 274.998 292.923L371.106 197.965C378.11 205.64 383.395 214.954 386.555 225.189Z" fill="white"/>
<path d="M389.826 206.918C382.401 192.97 371.324 181.721 357.997 174.595C344.669 167.47 329.69 164.787 314.955 166.886C300.22 168.986 286.39 175.773 275.217 186.39C264.043 197.007 256.028 210.976 252.184 226.529C248.34 242.083 248.842 258.522 253.624 273.767C258.407 289.011 267.256 302.377 279.052 312.171C290.848 321.966 305.061 327.75 319.892 328.791C334.723 329.833 349.506 326.085 362.37 318.021C379.6 307.222 392.169 289.456 397.317 268.624C402.465 247.792 399.771 225.599 389.826 206.918ZM273.508 279.692C267.65 268.7 264.932 256.073 265.697 243.407C266.463 230.742 270.678 218.607 277.81 208.537C284.941 198.467 294.669 190.914 305.762 186.833C316.856 182.752 328.818 182.327 340.135 185.611C351.451 188.895 361.615 195.741 369.341 205.282C377.067 214.824 382.007 226.634 383.538 239.218C385.068 251.801 383.12 264.594 377.94 275.979C372.759 287.363 364.579 296.827 354.434 303.175C347.698 307.39 340.262 310.126 332.549 311.227C324.837 312.328 317.001 311.772 309.487 309.591C301.973 307.411 294.929 303.648 288.758 298.517C282.587 293.387 277.409 286.99 273.52 279.692H273.508Z" fill="#5878DB"/>
<path opacity="0.1" d="M389.826 206.918C382.401 192.97 371.324 181.721 357.997 174.595C344.669 167.47 329.69 164.787 314.955 166.886C300.22 168.986 286.39 175.773 275.217 186.39C264.043 197.007 256.028 210.976 252.184 226.529C248.34 242.083 248.842 258.522 253.624 273.767C258.407 289.011 267.256 302.377 279.052 312.171C290.848 321.966 305.061 327.75 319.892 328.791C334.723 329.833 349.506 326.085 362.37 318.021C379.6 307.222 392.169 289.456 397.317 268.624C402.465 247.792 399.771 225.599 389.826 206.918ZM273.508 279.692C267.65 268.7 264.932 256.073 265.697 243.407C266.463 230.742 270.678 218.607 277.81 208.537C284.941 198.467 294.669 190.914 305.762 186.833C316.856 182.752 328.818 182.327 340.135 185.611C351.451 188.895 361.615 195.741 369.341 205.282C377.067 214.824 382.007 226.634 383.538 239.218C385.068 251.801 383.12 264.594 377.94 275.979C372.759 287.363 364.579 296.827 354.434 303.175C347.698 307.39 340.262 310.126 332.549 311.227C324.837 312.328 317.001 311.772 309.487 309.591C301.973 307.411 294.929 303.648 288.758 298.517C282.587 293.387 277.409 286.99 273.52 279.692H273.508Z" fill="black"/>
<path d="M152.065 331.279L161.346 333.616L153.652 339.838C153.652 339.838 148.139 337.134 147.885 332.894L152.065 331.279Z" fill="#E4897B"/>
<path d="M166.314 340.31L159.626 345.141L153.652 339.838L161.346 333.629L166.314 340.31Z" fill="#E4897B"/>
<path d="M271.303 290.443C261.44 298.319 251.323 305.801 241.157 313.112C230.991 320.424 220.692 327.552 210.345 334.548C199.998 341.545 189.553 348.397 179.072 355.052C173.838 358.439 168.555 361.72 163.321 365.054C160.721 366.848 157.886 368.206 154.912 369.084C153.325 369.54 151.703 369.835 150.066 369.964C148.248 370.124 146.418 370.023 144.625 369.662C143.344 369.387 142.125 368.842 141.038 368.056C139.952 367.27 139.019 366.261 138.293 365.084C137.567 363.907 137.063 362.587 136.808 361.199C136.554 359.811 136.554 358.382 136.81 356.995C136.893 356.549 137.007 356.11 137.149 355.682C137.734 353.821 138.55 352.055 139.573 350.431C140.485 348.972 141.524 347.609 142.675 346.362C144.866 344.012 147.369 342.029 150.102 340.481C155.397 337.213 160.655 333.918 165.987 330.676C176.601 324.178 187.312 317.851 198.047 311.603C208.782 305.354 219.65 299.303 230.579 293.396C241.508 287.489 252.522 281.74 263.766 276.436C265.463 275.624 267.377 275.519 269.141 276.142C270.905 276.765 272.395 278.072 273.323 279.812C274.252 281.552 274.554 283.603 274.172 285.57C273.79 287.537 272.751 289.281 271.254 290.469L271.303 290.443Z" fill="#5878DB"/>
<path opacity="0.1" d="M271.303 290.443C261.44 298.319 251.323 305.801 241.157 313.112C230.991 320.424 220.692 327.552 210.345 334.548C199.998 341.545 189.553 348.397 179.072 355.052C173.838 358.439 168.555 361.72 163.321 365.054C160.721 366.848 157.886 368.206 154.912 369.084C153.325 369.54 151.703 369.835 150.066 369.964C148.248 370.124 146.418 370.023 144.625 369.662C143.344 369.387 142.125 368.842 141.038 368.056C139.952 367.27 139.019 366.261 138.293 365.084C137.567 363.907 137.063 362.587 136.808 361.199C136.554 359.811 136.554 358.382 136.81 356.995C136.893 356.549 137.007 356.11 137.149 355.682C137.734 353.821 138.55 352.055 139.573 350.431C140.485 348.972 141.524 347.609 142.675 346.362C144.866 344.012 147.369 342.029 150.102 340.481C155.397 337.213 160.655 333.918 165.987 330.676C176.601 324.178 187.312 317.851 198.047 311.603C208.782 305.354 219.65 299.303 230.579 293.396C241.508 287.489 252.522 281.74 263.766 276.436C265.463 275.624 267.377 275.519 269.141 276.142C270.905 276.765 272.395 278.072 273.323 279.812C274.252 281.552 274.554 283.603 274.172 285.57C273.79 287.537 272.751 289.281 271.254 290.469L271.303 290.443Z" fill="black"/>
<path d="M165.514 269.099C164.908 270.162 164.218 271.448 163.563 272.656C162.909 273.863 162.267 275.124 161.661 276.397C160.449 278.904 159.238 281.451 158.026 284.037C156.814 286.623 155.833 289.287 154.839 291.913C154.355 293.225 153.846 294.538 153.398 295.851L152.719 297.859C152.586 298.24 152.562 298.397 152.477 298.673C152.392 298.948 152.356 299.211 152.283 299.474C151.81 302.068 151.571 304.705 151.568 307.35C151.507 310.172 151.568 313.047 151.713 315.947C151.859 318.848 152.004 321.763 152.247 324.677C152.489 327.591 152.731 330.557 152.986 333.445L148.309 334.482C147.485 331.555 146.843 328.641 146.2 325.687C145.558 322.734 145.074 319.767 144.601 316.748C144.129 313.729 143.814 310.697 143.608 307.56C143.356 304.274 143.433 300.969 143.838 297.701C143.91 297.242 143.971 296.809 144.08 296.389C144.189 295.969 144.298 295.378 144.395 295.076L144.989 292.845C145.377 291.361 145.825 289.891 146.285 288.434C147.218 285.507 148.236 282.632 149.375 279.797C150.514 276.961 151.726 274.192 153.01 271.461C153.676 270.149 154.379 268.744 155.094 267.392C155.809 266.04 156.524 264.767 157.42 263.336L165.514 269.099Z" fill="#E4897B"/>
<path d="M160.34 540.138C159.523 540.11 158.71 539.986 157.917 539.77C157.875 539.762 157.835 539.741 157.805 539.708C157.775 539.675 157.754 539.632 157.747 539.586C157.74 539.539 157.745 539.49 157.762 539.446C157.779 539.402 157.808 539.364 157.844 539.337C158.171 539.101 161.031 537.105 162.134 537.644C162.256 537.704 162.361 537.8 162.438 537.92C162.515 538.04 162.56 538.18 162.57 538.326C162.627 538.56 162.623 538.806 162.559 539.038C162.495 539.27 162.373 539.477 162.206 539.639C161.66 540.044 160.998 540.221 160.34 540.138ZM158.487 539.429C160.134 539.783 161.37 539.718 161.843 539.245C161.947 539.137 162.022 539.001 162.063 538.852C162.103 538.702 162.107 538.543 162.073 538.392C162.071 538.325 162.052 538.26 162.018 538.204C161.984 538.148 161.936 538.104 161.879 538.077C161.31 537.801 159.65 538.667 158.487 539.429Z" fill="#5878DB"/>
<path d="M157.905 539.783C157.869 539.794 157.832 539.794 157.796 539.783C157.761 539.763 157.732 539.732 157.713 539.695C157.694 539.658 157.685 539.615 157.687 539.573C157.687 539.455 157.687 536.514 158.717 535.53C158.844 535.406 158.994 535.313 159.157 535.256C159.32 535.199 159.492 535.181 159.662 535.202C159.84 535.204 160.013 535.274 160.15 535.398C160.287 535.522 160.38 535.694 160.413 535.884C160.631 537.026 158.911 539.231 157.99 539.822C157.959 539.817 157.93 539.803 157.905 539.783ZM159.516 535.635C159.333 535.637 159.156 535.711 159.02 535.845C158.424 536.796 158.119 537.925 158.147 539.074C159.044 538.286 160.11 536.632 159.977 535.937C159.977 535.819 159.892 535.687 159.613 535.648L159.516 535.635Z" fill="#5878DB"/>
<path d="M203.257 540.137C202.259 540.121 201.264 539.998 200.288 539.77C200.242 539.764 200.199 539.742 200.166 539.706C200.133 539.67 200.112 539.623 200.107 539.573C200.101 539.523 200.11 539.472 200.131 539.428C200.153 539.383 200.187 539.347 200.228 539.323C200.652 539.087 204.408 537.013 205.559 537.696C205.67 537.757 205.764 537.849 205.832 537.962C205.9 538.074 205.939 538.205 205.947 538.339C205.973 538.555 205.949 538.776 205.877 538.98C205.805 539.184 205.688 539.365 205.535 539.507C204.865 539.994 204.06 540.217 203.257 540.137ZM201.027 539.428C203.124 539.809 204.662 539.704 205.244 539.153C205.341 539.055 205.414 538.934 205.458 538.799C205.503 538.664 205.516 538.52 205.498 538.378C205.498 538.325 205.484 538.272 205.459 538.226C205.433 538.18 205.397 538.142 205.353 538.116C204.723 537.748 202.566 538.628 201.027 539.428Z" fill="#5878DB"/>
<path d="M200.325 539.782C200.305 539.791 200.285 539.796 200.264 539.796C200.243 539.796 200.223 539.791 200.203 539.782C200.169 539.763 200.14 539.733 200.123 539.695C200.105 539.657 200.1 539.614 200.107 539.572C200.107 539.454 200.337 536.698 201.512 535.635C201.85 535.328 202.285 535.177 202.724 535.214C203.342 535.28 203.511 535.621 203.56 535.897C203.729 537.052 201.512 539.257 200.385 539.835L200.325 539.782ZM202.578 535.635C202.294 535.638 202.019 535.749 201.803 535.95C201.108 536.839 200.685 537.939 200.591 539.1C201.73 538.352 203.245 536.619 203.136 535.923C203.136 535.923 203.136 535.687 202.699 535.648L202.578 535.635Z" fill="#5878DB"/>
<path d="M179.86 229.68C180.599 235.81 182.283 248.241 178.188 251.995C178.188 251.995 179.4 258.243 189.723 258.965C201.136 259.766 195.539 253.216 195.539 253.216C189.408 251.168 189.868 246.167 191.237 241.546L179.86 229.68Z" fill="#E4897B"/>
<path d="M201.027 217.222C200.955 217.221 200.884 217.198 200.821 217.157C200.769 217.128 200.722 217.087 200.684 217.038C200.646 216.989 200.618 216.932 200.601 216.871C200.584 216.809 200.578 216.745 200.585 216.681C200.592 216.618 200.61 216.556 200.64 216.5C200.954 215.806 201.42 215.204 201.996 214.747C202.572 214.29 203.241 213.991 203.948 213.875C204.056 213.88 204.159 213.927 204.238 214.007C204.317 214.088 204.366 214.197 204.376 214.314C204.387 214.431 204.358 214.548 204.294 214.644C204.231 214.739 204.138 214.806 204.032 214.833C203.48 214.938 202.957 215.179 202.505 215.539C202.053 215.899 201.684 216.367 201.427 216.907C201.393 216.994 201.338 217.069 201.267 217.124C201.197 217.18 201.114 217.214 201.027 217.222Z" fill="#263238"/>
<path d="M204.287 222.604C205.122 224.407 206.182 226.077 207.437 227.566C207.077 227.905 206.653 228.155 206.195 228.298C205.736 228.441 205.255 228.473 204.784 228.393L204.287 222.604Z" fill="#DE5753"/>
<path d="M203.487 221.265C203.56 222.092 204.02 222.709 204.505 222.656C204.99 222.604 205.353 221.908 205.28 221.081C205.208 220.254 204.747 219.637 204.25 219.69C203.754 219.742 203.414 220.451 203.487 221.265Z" fill="#263238"/>
<path d="M204.093 219.756L205.862 219.008C205.862 219.008 205.014 220.636 204.093 219.756Z" fill="#263238"/>
<path d="M189.953 539.533H199.392L200.022 515.879H190.583L189.953 539.533Z" fill="#E4897B"/>
<path d="M147.097 539.533H156.536L159.565 515.879H150.138L147.097 539.533Z" fill="#E4897B"/>
<path d="M157.117 538.352H146.515C146.334 538.35 146.158 538.419 146.019 538.547C145.881 538.675 145.791 538.853 145.764 539.047L144.553 548.131C144.529 548.36 144.55 548.592 144.614 548.812C144.679 549.032 144.786 549.235 144.927 549.407C145.069 549.579 145.243 549.717 145.437 549.812C145.632 549.906 145.842 549.955 146.055 549.956C149.69 549.89 151.532 549.654 156.197 549.654C159.056 549.654 163.248 549.969 167.21 549.969C171.172 549.969 171.378 545.729 169.731 545.348C162.34 543.629 161.176 541.253 158.68 538.982C158.245 538.578 157.691 538.355 157.117 538.352Z" fill="#263238"/>
<path d="M199.707 538.352H189.117C188.934 538.347 188.757 538.415 188.618 538.544C188.479 538.672 188.39 538.852 188.366 539.048L187.154 548.131C187.132 548.361 187.155 548.594 187.221 548.813C187.287 549.033 187.395 549.236 187.537 549.408C187.68 549.58 187.855 549.717 188.049 549.812C188.244 549.906 188.455 549.955 188.669 549.956C192.304 549.89 194.145 549.654 198.798 549.654C201.67 549.654 207.594 549.969 211.557 549.969C215.519 549.969 215.725 545.729 214.077 545.348C206.686 543.629 203.778 541.253 201.282 538.982C200.843 538.575 200.284 538.352 199.707 538.352Z" fill="#263238"/>
<path d="M200.01 515.879L199.695 528.074H190.256L190.583 515.879H200.01Z" fill="#CE6F64"/>
<path d="M150.126 515.879H159.565L158.002 528.074H148.563L150.126 515.879Z" fill="#CE6F64"/>
<path d="M169.537 270.673C167.745 273.705 165.671 276.529 163.345 279.101L162.267 278.326L150.32 269.728C150.32 269.728 156.839 253.976 161.746 253.176C166.435 252.362 169.852 257.612 171.439 263.231C172.045 265.265 171.039 268.022 169.537 270.673Z" fill="#5878DB"/>
<path opacity="0.6" d="M169.537 270.673C167.745 273.705 165.671 276.529 163.345 279.101L162.267 278.326L150.32 269.728C150.32 269.728 156.839 253.976 161.746 253.176C166.435 252.362 169.852 257.612 171.439 263.231C172.045 265.265 171.039 268.022 169.537 270.673Z" fill="#FAFAFA"/>
<path d="M169.537 270.674C167.745 273.706 165.671 276.53 163.345 279.101L162.267 278.327C162.8 273.601 164.496 268.915 166.435 267.432C167.622 267.563 168.676 268.928 169.537 270.674Z" fill="#5878DB"/>
<path opacity="0.4" d="M169.537 270.674C167.745 273.706 165.671 276.53 163.345 279.101L162.267 278.327C162.8 273.601 164.496 268.915 166.435 267.432C167.622 267.563 168.676 268.928 169.537 270.674Z" fill="#FAFAFA"/>
<path d="M210.406 278.536C209.836 282.474 209.097 287.108 208.103 292.608C206.892 299.644 205.195 308.084 203.051 318.179L164.823 315.553C166.471 298.738 167.113 288.342 161.746 253.228C167.173 252.407 172.648 252.016 178.127 252.06C183.93 252.019 189.729 252.427 195.478 253.281C202.893 254.593 211.229 257.009 211.229 257.009C211.229 257.009 213.362 257.914 210.406 278.536Z" fill="#5878DB"/>
<path opacity="0.6" d="M210.406 278.536C209.836 282.474 209.097 287.108 208.103 292.608C206.892 299.644 205.195 308.084 203.051 318.179L164.823 315.553C166.471 298.738 167.113 288.342 161.746 253.228C167.173 252.407 172.648 252.016 178.127 252.06C183.93 252.019 189.729 252.427 195.478 253.281C202.893 254.593 211.229 257.009 211.229 257.009C211.229 257.009 213.362 257.914 210.406 278.536Z" fill="#FAFAFA"/>
<path d="M210.406 278.536C209.836 282.474 209.097 287.108 208.103 292.608C206.001 287.764 204.255 282.747 202.881 277.604H209.981L210.406 278.536Z" fill="#5878DB"/>
<path opacity="0.4" d="M210.406 278.536C209.836 282.474 209.097 287.108 208.103 292.608C206.001 287.764 204.255 282.747 202.881 277.604H209.981L210.406 278.536Z" fill="#FAFAFA"/>
<path d="M177.776 221.055C179.218 231.07 179.642 235.35 184.791 240.036C192.534 247.098 203.572 242.976 204.917 232.685C206.128 223.431 203.56 208.598 194.097 205.526C192.015 204.834 189.805 204.731 187.676 205.226C185.548 205.721 183.571 206.798 181.935 208.355C180.299 209.911 179.058 211.895 178.33 214.118C177.602 216.341 177.411 218.729 177.776 221.055Z" fill="#E4897B"/>
<path d="M192.946 317.47C192.946 317.47 192.34 335.703 190.886 358.701C189.674 377.997 187.845 400.627 185.288 418.663L185.215 419.162C180.623 451.086 160.28 525.698 160.28 525.698H147.412C147.412 525.698 158.014 453.633 160.34 421.998C166.241 342.096 151.459 333.051 164.823 315.436L192.946 317.47Z" fill="#5878DB"/>
<path opacity="0.3" d="M192.946 317.47C192.946 317.47 192.34 335.703 190.886 358.701C189.674 377.997 187.845 400.627 185.288 418.663L185.215 419.162C180.623 451.086 160.28 525.698 160.28 525.698H147.412C147.412 525.698 158.014 453.633 160.34 421.998C166.241 342.096 151.459 333.051 164.823 315.436L192.946 317.47Z" fill="black"/>
<path d="M190.886 358.701C189.674 377.997 187.845 400.627 185.288 418.663C180.938 395.232 173.79 361.011 183.386 338.591C185.676 344.957 188.342 352.151 190.886 358.701Z" fill="#5878DB"/>
<path opacity="0.4" d="M190.886 358.701C189.674 377.997 187.845 400.627 185.288 418.663C180.938 395.232 173.79 361.011 183.386 338.591C185.676 344.957 188.342 352.151 190.886 358.701Z" fill="black"/>
<path d="M203.051 318.192C203.051 318.192 213.956 388.21 213.301 419.372C212.659 451.795 201.694 525.698 201.694 525.698H188.947C188.947 525.698 190.959 453.672 189.832 421.84C188.62 387.133 175.05 316.21 175.05 316.21L203.051 318.192Z" fill="#5878DB"/>
<path opacity="0.3" d="M203.051 318.192C203.051 318.192 213.956 388.21 213.301 419.372C212.659 451.795 201.694 525.698 201.694 525.698H188.947C188.947 525.698 190.959 453.672 189.832 421.84C188.62 387.133 175.05 316.21 175.05 316.21L203.051 318.192Z" fill="black"/>
<path d="M186.766 526.354H203.863L205.195 520.146L186.161 520.29L186.766 526.354Z" fill="#263238"/>
<path d="M145.546 526.354H162.642L163.975 520.146L145.667 520.29L145.546 526.354Z" fill="#263238"/>
<path d="M164.387 313.047L162.449 316.643C162.291 316.919 162.594 317.234 163.03 317.26L203.124 320.082C203.463 320.082 203.766 319.951 203.802 319.715L204.372 316.026C204.372 315.777 204.117 315.541 203.741 315.514L164.969 312.784C164.86 312.779 164.751 312.799 164.651 312.845C164.55 312.89 164.46 312.959 164.387 313.047Z" fill="#263238"/>
<path d="M169.307 318.087L168.277 318.008C168.071 318.008 167.913 317.864 167.937 317.732L168.713 312.941C168.713 312.81 168.919 312.705 169.125 312.718L170.167 312.784C170.373 312.784 170.518 312.928 170.506 313.072L169.731 317.85C169.706 317.995 169.513 318.1 169.307 318.087Z" fill="#5878DB"/>
<path opacity="0.3" d="M169.307 318.087L168.277 318.008C168.071 318.008 167.913 317.864 167.937 317.732L168.713 312.941C168.713 312.81 168.919 312.705 169.125 312.718L170.167 312.784C170.373 312.784 170.518 312.928 170.506 313.072L169.731 317.85C169.706 317.995 169.513 318.1 169.307 318.087Z" fill="black"/>
<path d="M194.4 319.846L193.37 319.781C193.164 319.781 193.006 319.636 193.031 319.492L193.806 314.714C193.806 314.569 194.012 314.477 194.23 314.491L195.26 314.556C195.466 314.556 195.624 314.701 195.599 314.845L194.824 319.623C194.836 319.767 194.642 319.859 194.4 319.846Z" fill="#5878DB"/>
<path opacity="0.3" d="M194.4 319.846L193.37 319.781C193.164 319.781 193.006 319.636 193.031 319.492L193.806 314.714C193.806 314.569 194.012 314.477 194.23 314.491L195.26 314.556C195.466 314.556 195.624 314.701 195.599 314.845L194.824 319.623C194.836 319.767 194.642 319.859 194.4 319.846Z" fill="black"/>
<path d="M213.398 267.51C214.852 272.76 216.234 278.077 217.579 283.38L221.638 299.25L222.146 301.219L222.28 301.705L222.34 301.954V302.085C222.384 302.259 222.436 302.43 222.498 302.597C222.795 303.395 223.204 304.139 223.709 304.803C225.156 306.457 226.832 307.856 228.677 308.951C232.904 311.429 237.375 313.384 242.005 314.779L241.303 319.898C235.869 319.595 230.517 318.34 225.454 316.183C222.653 314.994 220.071 313.269 217.833 311.09C216.551 309.803 215.485 308.284 214.683 306.601C214.466 306.146 214.276 305.677 214.113 305.196L213.98 304.842L213.895 304.593L213.738 304.107L213.095 302.125C211.399 296.874 209.824 291.623 208.334 286.294C206.843 280.965 205.377 275.714 204.044 270.358L213.398 267.51Z" fill="#E4897B"/>
<path d="M211.229 256.957C216.076 258.676 221.165 275.846 221.165 275.846L203.669 284.01C203.669 284.01 196.399 264.741 199.622 260.383C202.845 256.025 205.668 254.988 211.229 256.957Z" fill="#5878DB"/>
<path opacity="0.6" d="M211.229 256.957C216.076 258.676 221.165 275.846 221.165 275.846L203.669 284.01C203.669 284.01 196.399 264.741 199.622 260.383C202.845 256.025 205.668 254.988 211.229 256.957Z" fill="#FAFAFA"/>
<path d="M201.876 204.949C198.786 200.814 174.916 197.861 173.644 209.123C165.163 215.555 173.208 232.174 174.42 236.4C168.567 238.159 149.714 245.143 163.515 258.716C177.316 272.289 198.01 269.978 202.057 255.933C204.893 246.114 195.89 229.68 196.084 223.93C196.278 218.181 207.17 211.972 201.876 204.949Z" fill="#263238"/>
<path d="M176.092 238.474C176.047 238.476 176.003 238.466 175.963 238.446C175.923 238.425 175.888 238.394 175.861 238.356C173.668 235.468 166.035 220.294 168.713 213.074C169.128 211.954 169.832 210.987 170.741 210.289C171.65 209.591 172.725 209.191 173.838 209.136C173.877 209.131 173.917 209.134 173.955 209.146C173.993 209.158 174.028 209.178 174.059 209.205C174.089 209.232 174.115 209.265 174.133 209.303C174.151 209.341 174.162 209.383 174.165 209.425C174.176 209.51 174.155 209.596 174.107 209.665C174.06 209.734 173.989 209.78 173.911 209.793C172.91 209.833 171.941 210.183 171.118 210.802C170.296 211.421 169.654 212.282 169.27 213.284C166.689 220.268 174.177 235.088 176.322 237.923C176.36 237.969 176.385 238.027 176.393 238.088C176.401 238.15 176.393 238.213 176.368 238.269C176.344 238.325 176.304 238.372 176.255 238.404C176.206 238.436 176.149 238.451 176.092 238.448V238.474Z" fill="#263238"/>
<path d="M194.194 223.313C194.464 225.23 195.317 226.994 196.617 228.327C198.337 230.113 199.961 228.892 200.119 226.621C200.264 224.586 199.537 221.213 197.501 220.268C195.466 219.322 193.939 221.042 194.194 223.313Z" fill="#E4897B"/>
<path d="M236.068 313.362L242.95 310.828L241.872 319.794C241.872 319.794 239.158 321.106 235.644 317.798L232.288 315.475L234.929 313.913C235.291 313.689 235.673 313.505 236.068 313.362Z" fill="#E4897B"/>
<path d="M247.761 310.802L245.652 318.638L241.872 319.78L242.95 310.828L247.761 310.802Z" fill="#E4897B"/>
</svg>
