<?xml version="1.0"?>
<svg xmlns="http://www.w3.org/2000/svg" xmlns:xlink="http://www.w3.org/1999/xlink" version="1.1" id="Layer_1" x="0px" y="0px" viewBox="0 0 354.14 354.14" style="enable-background:new 0 0 354.14 354.14;" xml:space="preserve" width="512px" height="512px" class=""><g><g>
	<g>
		<g>
			<path d="M94.071,308.621H94.07c0,1.352,1.096,2.449,2.449,2.449h161.103c1.352,0,2.449-1.096,2.449-2.449v-25.052h-166V308.621z" data-original="#000000" class="active-path" data-old_color="#000000" fill="#5878DB"/>
			<path d="M353.538,150.311L260.802,43.909c-0.465-0.534-1.138-0.84-1.846-0.84h-42.463c-1.359,0-2.424,1.116-2.423,2.475     c0,0.008,0,0.017,0,0.025c0,20.158-16.342,36.5-36.5,36.5s-36.5-16.342-36.5-36.5c0-0.008,0-0.017,0-0.025     c0.001-1.359-1.064-2.475-2.423-2.475H95.184c-0.708,0-1.381,0.306-1.846,0.84L0.603,150.311     c-0.858,0.985-0.792,2.469,0.149,3.374l47.51,45.647c0.991,0.953,2.573,0.902,3.501-0.111l38.052-41.512     c1.509-1.646,4.254-0.579,4.254,1.655v109.205h166V159.364c0-2.233,2.745-3.301,4.254-1.655l38.052,41.512     c0.929,1.013,2.51,1.064,3.501,0.111l47.51-45.647C354.33,152.78,354.396,151.295,353.538,150.311z M242.57,239.069     c0,4.142-3.357,7.5-7.5,7.5s-7.5-3.358-7.5-7.5V172.07c0-4.142,3.357-7.5,7.5-7.5s7.5,3.358,7.5,7.5V239.069z" data-original="#000000" class="active-path" data-old_color="#000000" fill="#5878DB"/>
		</g>
	</g>
</g></g> </svg>
